<svg xmlns="http://www.w3.org/2000/svg"><defs><font id="alex_brushregular" horiz-adv-x="462"><font-face ascent="1638" descent="-410" units-per-em="2048"/><glyph horiz-adv-x="0"/><glyph horiz-adv-x="681"/><glyph horiz-adv-x="405"/><glyph horiz-adv-x="405"/><glyph horiz-adv-x="405"/><glyph d="M158 78q0 57 80 57 30 0 57-19.5t27-46-26-46T239.5 4t-56 22.5T158 78zm118 201q25 141 191 390t225 249q25 0 54.5-9.5T776 883q0-6-8-15-86-90-253-310T326.5 289 285 240q-14 0-9 39z" horiz-adv-x="530" unicode="!"/><glyph d="M35 680q8 10 21.5 24.5T82 733q43 47 43 79t-27.5 56.5T70 905q0 61 59 62 31 0 58.5-20.5T215 897q0-86-66.5-154.5T51 674q-16 0-16 6zm209-1q0 5 44 55t44 80-28 54.5-28 36.5q0 61 62 62 31 0 57.5-20.5T422 897q0-86-65.5-154.5t-89-68.5-23.5 5z" horiz-adv-x="421" unicode="&quot;"/><glyph d="M-20 485q0 35 104 41l340 2q51 139 129 357-209-2-215-2-164 0-176 45-16 41 100 49 45 0 324-4l94 266q33 90 51.5 90t18.5-55q-4-121-33-201l-37-100q319-4 391-4 131 350 168 356 20 4 21-53-6-113-39-199l-39-102 340 8q72 0 71.5-15.5T1546 932q-115-45-203-45h-192l-135-359 295 2q102 0 102-22 0-16-45-31-111-39-203-39l-184-2-72-196Q854 78 803 78q-25 0-25 32.5t10 77.5q37 92 93 248l-404-2-71-194Q351 78 301 78q-27 0-27 34.5t13 75.5q43 98 100 246l-215-2q-193 0-192 53zm532 43h401q23 66 127 359l-393-2z" horiz-adv-x="1619" unicode="#"/><glyph d="M14.5 659.5Q14 692 35 729q37 63 94 64 12 0 12-5 0-8-24-22l-35-25q-23-23-23-63 0-76 55.5-134.5T242 465q117 176 272 387-137 37-137 137 0 74 92 148 141 111 352 118 199 248 221.5 248t33.5-11 11-24.5-16-33.5q-68-78-153-185 170-25 169-133 0-76-79-106-47-18-79-18.5t-32 16.5q0 8 29 10 106 6 106 80 0 96-145 114-109-133-246-311 63-8 190-43 98-39 98.5-112.5t-67-147.5T723 492q-152-70-344-70-33 0-86 4Q119 164 119 86q0-35 22-45 8-6-5-20.5T102 6Q71 6 71.5 66.5T111 236q20 53 112 200Q65 475 27 598q-12 29-12.5 61.5zM313 453q21-2 64-2 133 0 257 50t183 148q23 39 23 66 0 45-59.5 70.5T590 836Q418 607 313 453zm144 559q0-59 106-92 94 125 225 294-176-16-270-100-61-57-61-102z" horiz-adv-x="1099" unicode="$"/><glyph d="M195 907q0 123 179 345.5T664 1475q104 0 104-111 0-29-10-74 2-4 20.5-4t63.5 6q207 25 479 152 8 4 20.5 4t25.5-13.5 13-27.5-18-37q-276-317-633.5-797.5T305-80q-12-37-12-70.5t15.5-42T315-215q-14-20-43-21-35 0-34.5 68T286 33t391 605 564 724q-102-49-248.5-92T748 1223q2-8 2-19 0-72-138-239-162-199-276-199h-33q-53 0-84 55-25 39-24 86zm96-2q0-78 49-78 88 0 223 160t135 230q-33 18-82 94-70 0-197.5-164T291 905zM604-27q0 123 179.5 345.5T1073 541q104 0 105-111 0-29-11-74 0-2 18.5-7t18.5-15q0-27-47-45 2-8 2-19 0-72-137-239-162-199-277-199h-32q-53 0-84 55-25 39-25 86zm96-1.5q0-77.5 50-77.5 88 0 223 159.5T1108 283q-33 18-82 94-70 0-198-164T700-28.5z" horiz-adv-x="1435" unicode="%"/><glyph d="M27 367q0 199 303 378 141 86 276 129-57 63-57 166 0 53 24 88 68 96 205 154 162 72 328 72 219 0 215-137-4-59-50-103.5t-101.5-44.5-55.5 29q0 20 27 20l35-6q29 0 56.5 35t27.5 70q0 55-64 79-41 14-78 15-172 0-286.5-72T664 1079q-31-51-31-106t24-84q81 22 142 22 115 0 114-47 0-12-8-20-27-45-116-45t-160 53q-111-33-258-139-229-170-230-334 0-182 248-203 49 303 295 455 80 51 172 72.5T982 732t115 20.5l93 15.5q190 33 244.5 74t54.5 78q0 10-3 22t5 14 18-6q16-23 16.5-55.5T1485 815q-61-61-170-86-41-10-109.5-23.5T1106 684q39-37 39-111 0-152-180-297-199-160-533-159-2-16-2-51 0-143 95.5-226.5T766-244q51 0 88 34t37 77q0 14-8.5 32.5T898-82t24-54-47.5-96T766-274q-160 0-266 88Q379-90 379 66q0 35 2 53-178 16-270 90-84 72-84 158zm411-193q45 0 90 6 264 29 420 168 129 117 129 240 0 90-78 90-25 0-100-19-395-147-461-485zm244 690q51-33 110.5-33t59.5 27q0 18-54.5 18.5T682 864z" horiz-adv-x="1542" unicode="&amp;"/><glyph d="M150 559q0 8 55 79t55 101.5-27.5 55T205 831q0 61 59 62 31 0 58.5-19.5T350 825q0-88-77.5-181T162 551q-12 0-12 8z" horiz-adv-x="266" unicode="'"/><glyph d="M-10 422q0 164 84 348 121 264 444 496 361 259 742 290 41-6 40.5-25.5T1249 1509q-358-35-663-299-223-197-351.5-438.5T106 355t79-268T412-18q47-4 47-23 0-29-49-29h-19Q227-54 108.5 78.5T-10 422z" horiz-adv-x="768" unicode="("/><glyph d="M18-46.5Q18-27 70-25q358 35 663 299 227 197 354 437.5t127 416.5q0 350-307 375-45 2-45 23 0 29 47 28h19q164-16 282.5-148t118.5-341q0-164-84-350-121-264-444-496Q440-41 61-72q-43 6-43 25.5z" horiz-adv-x="1333" unicode=")"/><glyph d="M82 719q0 18 45 24l182 9q-45 68-76 110-37 43-36.5 62.5T211 944t41-24l104-132 37 152q6 35 25 68 4 2 6 2 14 0 14-51.5T414 780l118 82q49 35 56 35h8q16-6-7.5-39T455 745h161q49 0 50-14 0-6-20.5-19.5T587 696t-55-4q-53-2-90-2l95-127q39-51 38-61 0-51-182 147l-51-172q-12-31-27-31-18 0-18 52l29 155-107-80q-47-33-66.5-32.5T133 555t25 39l135 98H164q-82 0-82 27z" horiz-adv-x="720" unicode="*"/><glyph d="M39 481q0 20 17.5 34.5t42 14.5 89.5 2h191q72 213 100 363h2q23 0 23-56.5T473 532h175l163 5q2-4 2-7 0-29-129-53-76-10-227-35-27-100-68-202.5T324 137q-20 0-31.5 22.5T287 201l63 233q-311 0-311 47z" horiz-adv-x="831" unicode="+"/><glyph d="M166-160q0 4 44 54.5t44 81-27.5 55T199 68q0 61 59 61 31 0 58.5-20.5T344 59q0-86-65.5-154.5t-89-68.5-23.5 4z" horiz-adv-x="397" unicode=","/><glyph d="M39 481q0 20 17.5 34.5T86 530t25 2h104l199-2q119 0 170 7 2-2 2-7 0-31-162-59-88-12-165-25.5T160.5 432 89 441.5 39 481z" horiz-adv-x="608" unicode="-"/><glyph d="M180 70q0 59 78 59 31 0 58.5-20.5t27.5-46-25.5-45T262-2t-56.5 21.5T180 70z" unicode="."/><glyph d="M55-186.5Q55-119 100 4q63 174 535 807 465 619 514 619 23 0 36-13.5t13-28-18-36.5q-276-317-634-797.5T123-98q-12-37-12-71t16-41 6-23q-14-20-43-21-35 0-35 67.5z" horiz-adv-x="1236" unicode="/"/><glyph d="M68 227.5Q68 444 227 705q98 164 277.5 317.5T866 1257q-8 8-8 17 0 25 68 24 20 0 49-2 59 20 158 21 153 0 153-57-4-29-53-9.5t-79 19.5h-34q63-20 117-72 115-109 115-270.5T1261.5 598 1020 297Q666-18 315-18q-41 0-77 6Q68 11 68 227.5zm94-30.5q0-156 100-164 20-2 41-2 276 0 608 291.5T1243 944q0 156-65 209-100 78-189 94-190-59-401-260-156-152-258-309-168-260-168-481z" horiz-adv-x="1179" unicode="0"/><glyph d="M-2 11.5Q-2 39 16 45q55 25 207 76 256 469 514 936-113-70-286-135-31-12-31 20 0 16 18 27 139 51 387 245l13 21q20 39 85.5 39t65.5-31q0-6-6-16L324 137q138 25 292 25 23 0 23-23 0-29-31-28-137 0-293-50-76-27-179-67.5T25.5-47 8-31.5t-10 43z" horiz-adv-x="714" unicode="1"/><glyph d="M0 27q0 45 53 86 78 51 228 51 35 0 69-2 479 289 622.5 401.5T1186 762q96 115 117 246 4 25 4 34 0 111-137.5 111t-331-88T535 879q-8-8-19-9-20 0-20 25 0 14 12 25 141 121 375.5 225t413 104 178.5-145q0-160-191-352-82-86-291-251T403 137q88-10 313.5-85T1081-23q78 0 150 31 90 37 90 109 0 82-125 127-16 6-16 16 0 27 34 16 170-49 170-163 0-96-104-154.5T1060-100 772-41L487 61q-96 29-153 29Q260 55 92-4q-25-6-43-6Q0-10 0 27z" horiz-adv-x="1327" unicode="2"/><glyph d="M66 225q0 63 45 145.5T296 512t234 59q25 0 25-16 0-20-29-20-68 0-175-67T223 330q-10-41-10-70 0-178 244-221 63-12 129-12 178 0 364 86 287 133 387 383 14 35 15 69 0 82-86 119t-205 37-199-31q-18-8-39-8-37 0-37 35 0 25 17.5 43t42.5 18q176 0 330 60 197 78 221 219 2 10 2 26 0 88-109.5 88t-249-52T805 1006q-10-6-14-7-14 0-15 27 0 61 39 70 47 14 150 110 12 12 22 8t10-15-9-19.5-19-20.5q219 94 366 94 193 0 193-172v-14q-10-178-367-289 309-33 309-217 0-31-8-57-61-242-362-393Q836-20 522-20q-201 0-328.5 63T66 225z" horiz-adv-x="1470" unicode="3"/><glyph d="M27 387q0 53 45 68 31 12 114 28 111 59 337.5 221T811 907q393 248 467 359l18 28q10 14 35 15 70 0 70-39 0-2-365-527-119-175-205-325 143-49 221-49t126 34q59 49 59 119 0 23-6 48.5t14.5 25.5 30.5-21q39-70 39-124 0-139-250-140-106 0-266 49-78-145-99-315-2-25-2-68t25-88q4-12 4-18 0-37-33-37-23 0-32 12-29 61-29 148 0 156 92 387-158 45-275.5 45T84 324q-25-8-41 12t-16 51zm305 117q84 10 141 10 109 0 281-65 90 197 338 550l47 70q-129-80-415-284.5T332 504z" horiz-adv-x="1163" unicode="4"/><glyph d="M-68 191.5Q-68 293 66 420q20 20 36.5 20t16.5-15-21-36q-74-70-73.5-149.5t94.5-137T340 45q244 0 499 177t302 407q4 29 4 41 0 102-127 155-88 31-184 31-141 0-265-59L354 692q-4-2-12-2-18 0-18 27.5t26 40.5l242 305q18 23 75.5 22.5T725 1073q0-4-4-8L483 807q262 104 375 104 438 0 438-217 0-35-12-73-84-264-371-445Q607-16 283-16 136-16 34 37T-68 191.5zM610 1149q-4 20 0 54t19 44q47 35 92 40t132 5 277.5-53 257-53 127 29.5 60.5 78.5q0 31 24.5 31t24.5-53q0-72-92-111-61-27-149.5-26.5t-260.5 27-293.5 26.5-197.5-58q-16-12-21 19z" horiz-adv-x="1355" unicode="5"/><glyph d="M102 207q0 176 169 389t427 352q317 172 519 240-33 8-40.5 11t-5.5 11q4 8 24 15.5t32 5.5l188 10q45 0 78-20.5t33-46-23-29.5q-315-61-743-271-197-94-373-276-213-217-213-397 0-186 256-187 141 0 361 66 100 31 202.5 111.5T1096 362q0 72-95 72-145 0-308-93T504 98q-6-39-35-39-25 0-18 35 33 188 208 299 180 113 369 113t189-139q0-109-127-211Q988 78 862 39 606-39 434-39T182 29.5 102 207z" horiz-adv-x="1253" unicode="6"/><glyph d="M221 1001q0 18 8 46l37 73q20 43 21 74 0 63 20 59 16-12 17-63 143 129 385 129 104 0 273-40t257-52l104 78q6 4 19.5 4t40.5-28 27-41-11-19Q927 865 590 530 490 430 397.5 281.5T305 29q0-14 4-35 2-25-24-25-33 0-35 37-2 10-2 35 0 217 275.5 528.5T1184 1184q-328 45-469.5 45T485 1192q-117-51-161-186-16-41-48-41t-43.5 13-11.5 23z" horiz-adv-x="1011" unicode="7"/><glyph d="M2 147q0 123 125 256 233 254 551 418-127 78-127 150 0 23 8 41 45 123 197.5 200.5t286 77.5 204.5-41q55-33 55.5-82t-36.5-100l172 55q16 4 24-4t8-20q0-39-59-54-242-53-545-194 123-51 189-92 150-94 149.5-221t-158-260.5T669 53 275.5-37 45 31Q2 80 2 147zm113-12Q115 2 281 2q133 0 317 76 489 201 489 409 0 123-176 213l-176 91Q555 689 362 514 115 287 115 135zm565 885q0-86 127-143 145 70 391 167 43 84 43 113t-39 43q-80 29-164 29-145 0-251.5-65.5T680 1020z" horiz-adv-x="1245" unicode="8"/><glyph d="M154 739q0 174 219 314 176 111 416.5 170t400.5 59h33q14 0 12-19.5t-20.5-45-46-23.5-68.5 2q-254 0-522-119-319-141-330-313-4-68 65-68 137 0 451 201 203 129 385 277 8 8 37 8 86 0 86-43 0-16-19-31-106-90-225-199Q332 266 332-186q0-80 30-90 31-12 11-27-8-8-21.5-8H330q-84 10-84 125 0 217 210 541.5T930 938Q501 641 274 641q-121 0-120 98z" horiz-adv-x="901" unicode="9"/><glyph d="M180 70q0 59 78 59 31 0 58.5-20.5t27.5-46-25.5-45T262-2t-56.5 21.5T180 70zm82 397q0 59 78 59 31 0 58.5-20.5t27.5-46-25.5-45T344 395t-56.5 21.5T262 467z" unicode=":"/><glyph d="M166-160q0 4 44 54.5t44 81-27.5 55T199 68q0 61 59 61 31 0 58.5-20.5T344 59q0-86-65.5-154.5t-89-68.5-23.5 4zm96 627q0 59 78 59 31 0 58.5-20.5t27.5-46-25.5-45T344 395t-56.5 21.5T262 467z" unicode=";"/><glyph d="M174 524q0 29 107 174l135 185q16 23 34.5 22.5T469 893q0-31-203-313 199-254 199-277.5T444 279l-16 8q-70 98-248 225-6 4-6 12z" horiz-adv-x="651" unicode="&lt;"/><glyph d="M39 481q0 20 17.5 34.5T88 530h31l51 2h260l213-2q117 0 168 7 2-4 2-9.5T799 512q-35-20-134.5-36.5t-180.5-30T355 432t-136 6Q39 450 39 481zm67 246q0 23 17.5 36t32.5 13h28q111 4 215 4l269-2q129 0 211 4 2-2 2-6 0-29-162-57l-227-37q-14-4-61.5-4t-186 9T106 727z" horiz-adv-x="831" unicode="="/><glyph d="M174 276q0 31 203 314-201 256-201 278.5t23 22.5l16-8q74-98 248-226 6-2 6-12 0-41-244-358-16-23-33.5-23T174 276z" horiz-adv-x="651" unicode="&gt;"/><glyph d="M168 700v11q12 137 134 212.5T553 999q340 0 340-194 0-125-111-211-25-18-245-148-144-82-197-182-18-33-31.5-33T295 248.5t4 30.5q53 109 180 190 184 119 226 154 88 80 88 145.5t-75 106T529.5 915t-207-53T217 707q-4-27 21.5-50.5T312 633t108 61q6 6 12 6t6-13-10-23q-63-70-145-70-51 0-83 31.5T168 700zm10-639q0 57 78 58 31 0 58.5-19.5t27.5-45-26.5-45T258-10t-55.5 21.5T178 61z" horiz-adv-x="821" unicode="?"/><glyph d="M29 418.5Q29 575 113 760q106 231 419 454 352 252 734 252 203 0 309-76.5t106-197.5q0-72-27.5-127t-25.5-57q14-50 14-109 0-256-262-487Q979 54 477 53q-55 0-86 2-162 10-262 108.5t-100 255zM139 373q0-260 273-275 31-2 61-2 403 0 764 322 250 225 281 426-4 4-9 4l-249-277q-188-182-310-182-31 0-53 8-90 35-90 135 0 16 4 54-4 4-8 4-225-215-293-215-51 0-96 33-59 37-60 108 0 150 210 353.5T946 1073q78 0 94-59l4-13v-4q5-8 9-8l28 6q23 0 42.5-18.5T1144 944t-40-74.5T973 682q-80-131-80-189.5t49-58.5q72 0 250 163t324 339v4q-14 111-103 190-141 125-342 125-135 4-156 11-2 6 3 8 96 33 184 33t196-27q209-49 297-199 6-8 9 0 16 49 16 103.5t-45 118.5q-86 123-320.5 122.5t-501-156-440.5-396T139 373zm301 116q0-70 52-69 102 0 284 209 45 49 150 195l106 147-2 2q-14 25-49 24-129 0-335-191.5T440 489z" horiz-adv-x="1724" unicode="@"/><glyph d="M-2 86q0 176 111 373 147 262 403 447.5T971 1092t203-150q0-100-61.5-223T987 563q-6-2-13-2t-7 4l67 111q70 109 70 190.5t-36 132-114 50.5q-160 0-382-178.5T234.5 432 119 27q0-219 223-220 213 0 578 275 162 121 526 457-72-4-133-15-56-11-87-11-40 0-36 19 8 76 78 76 135-16 227-16 176 162 526 530 236 248 287 248 23 0 23-35t-18.5-108.5-41.5-89.5q-47-33-88-89.5t-117-211T1937 586l199 4q74 0 74-10 0-27-299-48-190-373-191-507 0-94 60-95 23 0 56.5 28t40.5 28 7-11q-10-37-62.5-61.5t-88-24.5-56.5 5q-49 18-49 118 0 207 158 527l-246-7Q1266 264 989 61 575-240 342-240q-14 0-29 2Q-2-211-2 86zm1579 508h121q43-2 106-2 59 116 297 493z" horiz-adv-x="2088" unicode="A"/><glyph d="M37 96.5q0 108.5 90 266T285 549q31 10 47 10 59 0 90-98l61-197q59 63 162 203l182 246q336 436 441 477 37 14 75.5 14t64.5-16.5 26-40.5q0-37-60-43-61-35-234-204T934 686Q705 367 510 195 635-53 885-53q152 0 301 95t223 234q33 59 33 133t-58.5 140.5T1237 647q-41 6-131 17.5t-90 37.5q0 10 8 19 25 29 63 29 23 0 44.5-8.5t34-12.5 28.5-10q45-4 78-4 135 0 246 43 141 55 180 166 24 69 24 125 0 145-137 215-119 61-325 61-326 0-584-123-131-61-249-182T309 813q0-59 31-98 12-16 43-41 10-6-12-6-127 29-127 170t143 266q106 92 240 149 276 119 628 119 252 0 402-74 174-82 174-247 0-66-27-133-43-123-223-187-135-47-291-49 121-6 204-89t83-206q0-74-33-139-70-147-266.5-245.5T868-96q-324 0-440 221Q217-51 127-51q-16 0-29 6Q37-12 37 96.5zm69 9.5q0-55 27-100 6-10 21-10 66 0 252 186l-7 8q-82 273-131 273-2 0-10-4-152-219-152-353z" horiz-adv-x="1677" unicode="B"/><glyph d="M63 299q0 68 17 145 55 262 291 510 170 178 403.5 277.5T1217 1331q111 0 192-26 223-70 223-281 0-129-76-223-188-232-448-232-123 0-207 56.5T817 768q0 109 141 217 25 18 37.5 18.5t12.5-8.5q0-20-33-32-115-92-115-187 0-68 61.5-114t153.5-46q201 0 379 193 92 100 92 231t-98 195q-82 57-221 57-201 0-404-100-250-121-451.5-376T170 326q0-186 127-287.5T612-63q215 0 422 104 158 82 273 209 33 37 51 37 12 0 12-21.5t-22-44.5Q1239 106 1034 0 782-133 527-133T147 35Q63 146 63 299z" horiz-adv-x="1486" unicode="C"/><glyph d="M31 51q0 98 83 295t158 197q39 0 67-153.5T395 166q139 147 404 491 332 436 440 478 37 14 76 14t64.5-16.5 25.5-40.5q0-35-59-41-72-39-222-189-150-145-239-272Q666 285 434 92 549-78 795-78q27 0 79 4 569 53 807 494 97 177 97 349 0 171-125 308-100 113-218 139.5t-241 26.5q-315 0-582-145-280-153-280-343 0-52 27.5-85t37.5-37h-12q-53 10-94 53-45 53-45 113 0 205 257 352t603 147q160 0 328-36.5t305-176.5q157-163 158-367 0-157-91-321-156-283-465-413-249-104-535-104-1 0-1-1-285 0-422 172Q203-88 119-88q-45 0-66.5 44T31 51zm73 8q0-63 25-110 88 39 213 162-59 98-74.5 154.5T246 414Q104 211 104 59zm293 574q2 0 4 2 0-4-1-4t-3 2z" horiz-adv-x="1886" unicode="D"/><glyph d="M6 158q0 84 53 168 188 299 643 444-68 77-68 165 0 89 44 148 84 115 252 189 201 88 401 88 117 0 187.5-38t70.5-117-58-133-121.5-54-63.5 31q0 18 26 18l41-6q41 0 75 44t34 91q0 70-80 102-51 20-96.5 20.5t-63.5-1.5q-176-10-344-123-197-129-197-291 0-59 41-110 131 41 250 41 201 0 201-76 0-16-12-37-49-76-179-76-84 0-172 30t-133 62q-190-55-338.5-169.5T176 307q-39-78-39-151 0-115 95.5-186.5T512-102q51 0 106 6 326 35 519 209 161 142 161 299 0 127-120 127-145 0-334-156-47-39-80-98.5T731 168t57-72q20-8 21-20 0-20-41-17-98 2-98 129t129 238q176 152 372 152 147 0 187-93 16-43 16-86 0-190-211-358-252-205-639-205-240 0-379 89T6 158zm811 602q88-70 203-70t115 64q0 29-102.5 29T817 760z" horiz-adv-x="1415" unicode="E"/><glyph d="M-25 522q0 242 295 488 213 174 453 263t417 89 264-51 87-142.5-80-205.5q-47-76-330-449 199-6 210.5-6h13.5q49 4 49-14 0-29-80-29l-174 4q-53-4-64-10-86-106-231.5-308T659-90q0-16 37 8 23 0 23-6 0-10-45-31l-58-31q-38-33-88-33l-1 1q-50 0-46 24 2 49 145.5 249T924 471q-147-27-226-27-8 2-8 13.5t24.5 32T767 510t89 2h105q70 94 309 434 98 141 98 234 0 143-213 143-166 0-390-92T352 979Q219 868 141 739T63 510q0-162 193-162 16 0 35 2 125 10 236.5 142.5T639 715q0 8-2 18 53-10 53-63 0-88-115-207-156-162-360-162-113 0-176.5 59.5T-25 522z" horiz-adv-x="1294" unicode="F"/><glyph d="M-31 293q0 313 379 637 190 164 460.5 272.5T1283 1311t312-80q84-66 84-148 0-117-144-224t-286-107q-190 0-190 219 0 84 35 84 28-1 28-58l-4-65q0-133 144-133 119 0 239.5 82t120.5 165.5-98 141.5q-66 39-205 39-207 0-462-98.5T379 813Q86 526 86 287q0-141 107.5-227.5T475-27q242 0 561 183 266 150 400 317l59 88q-37 0-305-21.5T883 509t-64-9q-67 0-67 31 0 52 155.5 86t526 34 489.5-28q18-4 19-11 0-23-142-32-176-14-180-15-209-274-541-848-18-33-35.5-32.5T1026-289q0 72 115 277l143 268Q1153 143 950 45 686-80 451.5-80T93 21.5-31 293z" horiz-adv-x="1695" unicode="G"/><glyph d="M39 655q0 53 12 109 61 276 355 483t661 207q141 0 242.5-60.5t101.5-169-76-229.5L965 426q66-2 234.5-19.5T1453 389t114 2l78 129q199 334 459.5 624t455.5 359q6 2 12 2 14 0 15-16 0-6-7-10-131-74-375.5-357.5T1782 539l-80-136q94 12 135 48 8 6 14.5-7.5T1849 424q-61-47-174-68-143-266-143-374 0-70 59-70 41 0 95.5 27.5t73 47T1782 6t2-13-8-22q-35-33-104.5-69.5T1559-135t-64 14q-66 43-66 148 0 107 109 313-76-6-141-6-23 0-482 14Q770 119 682-70q-27-55-64.5-55T580-94q0 57 235 444-168 0-223-14-92-23-137-92-16-23-27.5-25t-11.5 9.5 8 19.5q78 104 153.5 143T817 430h49q125 190 351 565 83 156 83 254 0 160-192 162h-23q-262 0-477-131T268 954.5 143 604q0-190 179-190 141 0 241.5 125T664 776q0 63-33 105-4 4-4 10 0 14 16 14 8 0 12-6 41-53 41-127 0-125-102-255T379 373q-35-6-68-6-131 0-202 84-70 76-70 204z" horiz-adv-x="1947" unicode="H"/><glyph d="M43 236q0 311 166 501 139 164 319 164 47 0 97-16 121-47 121-199 0-154-126-320-124-166-255-165-147 0-148 159 0 45 19.5 94.5T281 504q18 0 18-19 0-10-18.5-51T262 361.5t34-59.5 71-28q121 0 224 148.5T694 713q0 109-78 143-27 10-55 10-145 0-291-200-141-203-141-445 0-133 57-217 59-86 164-86 270 0 705 735-225 68-226 267 0 264 269 421 170 98 329 99 125 0 226-41 141-55 141-168 0-25-11-47.5t-24-22.5q-27 27-63 27-174 0-477-518 16-2 34-2 70 0 139.5 41t69.5 102l-14 55q0 16 16 17 6 0 17-6 47-35 47-92.5t-74-112-186-54.5q-35 0-70 7-141-260-344-480-269-286-490-286h-2Q43-141 43 236zm895 644.5Q938 733 1090 705q113 184 291 367t296 183q31 0 54-14-2 57-80 100-70 41-174.5 41t-240.5-60-217-177-81-264.5z" horiz-adv-x="1179" unicode="I"/><glyph d="M80 44q0 118 45 202 109 209 313 325 152 88 281 88 139 0 218-67.5t79-169.5q0-111-82-201-51-57-82-57-8 0-8 7t6 19q74 109 74 202t-52 153q-59 63-160.5 63T485 526Q331 426 233 225q-51-100-51-207.5t80-174T477-223q520 0 1088 913 340 545 348 668-123 6-129 6-96 0-247-53.5T1341 1180q-18-31-18-68t39-82 39-53q0-16-42-16t-84 41.5-42 102 37 109.5q78 106 260 152 131 33 262 33h16q18 0 101-6-4 27 21.5 50t58.5 23q59 0 59-83v-5q221-39 233-118 2-18 3-31 0-41-24-41t-15 49q-51 76-203 106-37-166-385-720-231-365-539-611-351-278-661-278h-2q-190 0-282.5 96T80 44z" horiz-adv-x="1683" unicode="J"/><glyph d="M45 180q0 84 33 156 104 231 315 319 117 51 233 51 1 0 1 1 114 0 153-76 14-27 14.5-56.5t-8-38T764 551q-49 90-105 100-37 4-53 4-160 0-299-133-180-174-180-377 0-221 250-249h16q90 0 232 79 229 131 489 451-47 43-47 127t62.5 158.5T1300 786q31 0 58-6 102 172 198.5 372t96.5 230q0 4-12.5 4t-142.5-64.5-185.5-101-135-115.5-79.5-128q0-23 31.5-45.5T1245 910q10-4 10-11.5t-56-17-89-9.5q-74 0-74 62 0 72 88 172t193 158q305 163 387 163 43 0 43-30 0-125-344-715 14-55 45-129l610 465q350 266 473 342 274 164 539 164 76 0 139-25 39-14 39-53t-20-39q-12 0-25.5 16.5t-78 16.5-210.5-33q-229-51-520-229-182-113-487-346.5T1466 510q104-219 269-408 251-292 451-292h1q98 0 99 75 0 14-3.5 28.5t7 35T2314-31q27 0 35-63 2-10 2-21 0-66-66.5-107.5T2127-264t-153 28q-162 80-326.5 281T1395 467q-113-66-187-72-137-178-338-346Q761-43 634.5-99.5T391-156q-166 0-256 83T45 180zm1112 401q0-42 23-71 100 143 120 176-25 10-54 10t-59-36.5-30-78.5zm113-106q20 0 36.5 3t71.5 32q-16 41-26 82-41-59-82-117z" horiz-adv-x="1916" unicode="K"/><glyph d="M6 73.5Q6 188 101.5 356T252 535q37 0 84-84l129-250q109 143 227 313-168 76-168 219 0 119 97 193 53 39 113.5 39t90.5-64q6-12 1-15t-7-1q-41 41-88 41h-4q-59 0-103-63.5T580 745v-12q0-106 147-182 25 35 79 116t85 126q408 598 678 598 190-1 190-179 0-162-157-381-123-172-327-276T899 451q-63 0-106 14-86-111-277-346Q588 17 775.5-73.5T1098-164t200 37q90 47 91 135 0 23-4.5 43.5t13 20.5 31-30 13.5-52q0-72-76-135-96-78-262-78t-344 77.5T467 66Q303-98 156-98q-45 0-78 16Q6-41 6 73.5zM86 77q0-120 74-120 53 0 128 55t126 121q-49 68-102.5 173.5t-71 126T217 453h-8q-37-6-80-131T86 77zm739 433q27-6 60-6 143 0 327.5 98T1503 850q186 260 187 395 0 82-72 105-18 6-41 6-102 0-254-172-104-121-244.5-325T825 510z" horiz-adv-x="1347" unicode="L"/><glyph d="M33 475q0 324 422 662 109 86 286 141t338.5 55 220-56 58.5-151q0-143-117-387-37-76-166-276l158 201q115 150 397 426 61 59 136 99t128 40q74 0 74-78 0-68-64.5-204t-130-258-80-159.5T1673 469t-8-25q6 10 135 157t381 366l328 270q39 33 69.5 33t50-51.5 19.5-83-98-131.5q-256-262-434.5-573.5T1937-14q0-35 12.5-48.5t39-8.5T2100-29t112 43q10-4 10-10 0-31-107.5-86t-162-55-66.5 18q-37 53-37 129 0 176 189 506 121 207 372 557-197-160-532.5-489.5T1438 68q-53-96-129-97-35 0-35 25 0 8 42 73.5T1501 377q352 612 352 737 0 33-22 33-33 0-96-55-227-190-483.5-497.5T866 84q-49-76-49-98.5T836-47q0-2-37-31-33-16-74-16t-59.5 9T653-55q29 92 215.5 369.5T1118 707q137 248 137 395 0 61-20 104-41 84-195 84-240 0-495-207-205-166-313.5-351T123 401q0-209 184-213h17q236 0 364 170 49 68 49 115t-20 59q-2 2-2 8.5t12 6.5q53 0 53-70 0-43-42-116.5t-148.5-139T342 156t-225 88-84 231z" horiz-adv-x="2326" unicode="M"/><glyph d="M4 391q0 319 438 672 111 88 288 147.5t321.5 59.5 204-54.5T1315 1065q0-233-283-662 63 80 207 203 510 428 877 563 18 8 41 9 78 0 98-88 1-3 1-6 0-38-99-140-256-262-434.5-573.5T1544-76q0-33 12.5-46t39-8T1707-88t112 42q10-4 10-9 0-31-107.5-86.5t-161-55.5-67.5 19q-37 51-37 129 0 176 189 506 121 207 372 557-272-25-704-430Q968 258 823 25q-49-76-49-99.5t19-31.5q0-4-34-26t-93.5-22-59.5 31q0 53 202 353t265 415q139 250 139 395 0 57-22 107-35 74-168 74-244 0-518-224-209-172-322-356Q80 467 80 330q0-197 182-201h17q242 0 366 170 49 68 49 115t-22 59q-2 2-2 8t12 6q53 0 53-69 0-43-41-117T545.5 161.5 301 96 84 176 4 391z" horiz-adv-x="1894" unicode="N"/><glyph d="M49 245.5Q49 403 133 590q106 236 416 459 356 254 737 254 205 0 311.5-80t106.5-199q0-74-57-182 16-56 16-113 0-256-262-489-403-360-903-361-55 0-86 2-164 8-263.5 107.5T49 245.5zM432-78q29-2 57-2 403 0 768 326 262 233 283 444-106-117-369-278l-16-4q-2 0-2 2 0 8 55 55l115 94q147 129 215 211-14 115-103 191.5T1231 1073q-57 14-177 18.5t-120 8.5 4 8q94 31 181 31.5t200-27.5q215-51 301-209 20 49 20 109.5t-45 124.5q-88 123-311 123-309 0-583.5-191.5T272 586Q160 377 160 210q0-273 272-288z" horiz-adv-x="1605" unicode="O"/><glyph d="M88 70q0 178 143 336 158 174 398 174 98 0 165.5-45.5T862 397q0-61-69.5-147T707 164q-4 0-4.5 8t6.5 16q66 95 66 176 0 82-51 126-50 44-124 45-172 0-304-157T164 61q0-102 64.5-165.5T428-168q252 0 432 170 104 98 211 287l178 321q131 211 305 627h-36q-276 0-555-60.5T541 1004q-62-47-62-93 0-45 48-73t114-27.5 163 26T950 905q20 16 29 17 16 0 6-17-74-86-223-129-90-27-179-27-1 1-3 1-90 0-147.5 39.5T375 898t74 138q139 135 497 201 254 45 584 45h55q45 39 82 39t37-29q0-6-2-14 317-23 514-107 233-98 233-256 0-104-104-229t-316-202.5-412-77.5-317 51Q1042 78 965 0 744-221 436-221q-174 0-261 81T88 70zm1235 422q20-10 70-23 82-14 127-14 156 0 358.5 64.5T2217 708t136 228q0 129-209 211-182 72-456 86l-66-205q-78-193-299-536z" horiz-adv-x="2164" unicode="P"/><glyph d="M49 256q0 147 84 334 106 236 416 459 356 254 737 254 205 0 311.5-80t106.5-199q0-74-57-182 16-55 16-113 0-256-262-489Q1168 31 907-55q416-299 561-299 33 0 59.5 17.5t26.5 41-14 43.5q-6 14-6 23 0 29 36-10.5t36-82.5-41-71.5-107-28.5q-213 0-678 330-127-29-284.5-29T242-76q-29-92-43-92-23 0-23 78 0 29 4 51Q49 61 49 256zM205 35q23 55 55 100 51 74 133 74t166-47q111-59 283-172 219 82 415 256 260 229 283 444-106-117-369-278l-16-4q-2 0-2 2 0 8 55 55l115 94q147 129 215 211-14 115-103 191.5T1231 1073q-57 14-177 18.5t-120 8.5 4 8q94 31 181 31t200-27q215-51 301-209 20 49 20 109.5t-45 124.5q-88 123-311 123-309 0-583.5-191.5T272 586Q160 377 160 210q0-109 45-175zm53-55q70-55 174-58h41q119 0 244 29Q481 94 395 94T279 29z" horiz-adv-x="1632" unicode="Q"/><glyph d="M-86-20q0 66 41 144.5t100.5 138T160 322q8 0 8-5 0-10-51-51T18.5 150.5-29 14q0-108 143-108h3q272 0 749 639 27 35 45 49l-32 12q-27-10-43-10-43 0-43 35 0 47 63 61 8 2 14 2 37 0 86-37 180 201 185 205 150 154 202 154t52-45q0-20-9.5-39t-21.5-19q-12-4-12 13 0 8 12 24 2 29-18 29-66 0-318-348 61-4 102-4 475 0 594 245 25 53 25 99 0 90-82 155-131 106-426 106-1 0-2 1-294 0-600-150-373-182-373-428 0-80 100.5-80t213 74T731 795q14 27 27.5 26.5T766 805q-39-115-173-196t-279.5-81T168 621v14q31 268 329 455.5t717 187.5q391 0 555-135 98-82 99-193 0-47-23-102-63-150-260-222.5T1171 553q-102 0-190 16 29-90 121-407 29-92 90-187 83-120 155-121 1 0 1 1 86 0 143 174 10 41 21.5 41t16.5-23.5 5-32.5q0-51-57-131-76-113-165-113h-1q-90 0-166 90.5t-148.5 329T924 494q0 10 2 16Q680 184 573 80 335-151 88-152-86-152-86-20z" horiz-adv-x="1540" unicode="R"/><glyph d="M-35 278.5Q-35 346-8 391q61 109 155 109 72 0 84-121 29-233 39-266Q301 13 375-57q86-18 186-19 221 0 434 88t308 250q38 61 38 110 0 99-170 152l-360 82q-111 27-177.5 88.5T567 836q0 123 154 245 117 94 286 146.5t331.5 52.5 269.5-47q137-63 137-185t-125-171q-76-31-130-31t-54 22q0 14 60 16t87 15q78 41 78 121 0 41-23 86-66 117-317 117-145 0-290.5-44t-244-135.5T688 874q0-119 236-174l241-45q145-27 217-73 94-57 95-164 0-43-15-92-66-221-338-338-227-100-536-101-88 0-154 9 66-37 172-64 8-2 8-8 0-18-43-19-84 0-209 101Q192-67 109 0 56 43 10.5 127T-35 278.5zM41 322q0-158 111-271 55-57 149-88Q182 94 150 322q-18 129-35 129t-31-9.5-28.5-40T41 322z" horiz-adv-x="1531" unicode="S"/><glyph d="M238 1264q224 198 577 198h4q164 0 352-47 43-10 367-158.5t465-148.5q94 0 141 53 25 27 25 57.5t-27 55.5q-14 20-14 26.5t11 6.5 39-36 28-84-64.5-92-163.5-44q-154 0-477 148.5T1095 1364t-190 16q-424 0-667-274-29-31-68-124t-39-179q0-119 84-185 106 156 251.5 248T762 958q184 0 184-143 0-172-201.5-373.5T371 240q-111 0-111 94 0 33 17.5 57.5T319 410l-4-48q0-30 89-30h6q139 0 293.5 143T891 756q8 31 8 55 0 92-117.5 92T538 813 301 575q8-4 64-16l122-4q90-4 91-20 0-29-86-29h-13q-125 0-205 31Q117 297 117 95v-3q0-262 202-262 229 0 478 320l401 598q225 328 391 335l78-18q37-20 37-61t-21-41l-65 10q-141 0-363-305L848 98Q586-207 346-207q-164 0-226.5 88T57 137q0 221 131 438Q37 670 37 858q0 229 201 406z" horiz-adv-x="1353" unicode="T"/><glyph d="M29 381q0 322 606 756 123 88 291 152.5t305 64.5q70 0 134.5-27t64.5-89-73-178-227.5-326-262-392T760 88q0-35 28-35 55 0 207 115 360 274 848 891 78 98 125 98 18 0 19-18 0-8-7-21 2-6 2-12 0-43-49-117l-241-342q-147-213-260-403-106-178-106-219 0-3 1-5l37 13q102 57 178 133 27 20 33 20l4-4q0-18-55-78-142-125-205-125-62-1-62 39 0 38 110 241.5T1718 819q-41-49-129-145-504-516-604-596Q836-39 707-39q-88 0-89 62 0 106 271.5 488T1219 981q124 191 124 261 0 36-26 44-49 20-115 21-225 0-575-240-229-160-380-374T96 340q0-100 82-115 33-6 66-6 104 0 215 68 55 33 139 108l37 13q-39-74-163-150t-255-76q-31 0-72 8.5T66.5 249 29 381z" horiz-adv-x="1640" unicode="U"/><glyph d="M-39 592q0 158 86 309 119 207 341 328t433 121q154 0 252-68 111-76 111-225 0-190-184.5-597T815 0q0-16 10-10 53 35 488.5 556t605.5 644q152 113 253 169t208 56q29 0 43-2 55-4 55-57 0-27-18-27-2 0-29 9.5t-45 9.5q-287 0-772-519-182-195-443.5-524.5T862-51q-166-94-186-94-6 0-6 20 0 68 114 344 47 106 138 320l94 276q49 139 49 203 0 141-82 215t-235.5 74T418 1198q-190-123-284.5-303T39 590t51-197q84-117 223-117 106 0 188.5 71T584 526q0 23-5 41.5t15 18.5q29 0 29-68 0-102-101.5-191T289 238q-84 0-162 41-166 90-166 313z" horiz-adv-x="1413" unicode="V"/><glyph d="M31 453q0 127 141 305 250 315 643 469 203 78 334 78 162 0 162-107 0-221-557-960Q568-10 565-10q6 0 214 231.5T1174 616q72 63 247 234 92 86 199 156 27 16 77 16t68-29q-188-233-328.5-523T1296 55q0-137 138-137 184 0 444 266 236 238 359.5 484.5T2361 1044q0 20-4 41-45 0-92 48v-3q-31 25-31 50.5t20.5 42 53.5 16.5 46-25.5 33.5-46 18.5-28.5q12-19 38-19h1q25 0 57 24t52 24.5 20-11.5q0-23-39-43-20-16-49-18h-65q24-81 24-118 0-167-156.5-429T1886 84q-248-209-449.5-209T1235 72q0 156 131 444l147 322-200-156q-94-78-191.5-171T782 127L545-164q-56-65-102-65h-1q-35 0-35 44 0 45 37 117l396 570q358 526 358 667 0 78-143 78-174 0-486-213-168-115-295-288T147 459.5 299 346q141 0 291 131 53 45 61 45t6-14q-23-78-167-148.5T236 289q-29 0-39 2h-2Q31 326 31 453zm2455 643h2-2z" horiz-adv-x="2324" unicode="W"/><glyph d="M-342 43q0 174 117 367 42 71 68 71h1q8 0 8.5-13t-14.5-34q-112-178-112-331 0-87 36-146 47-66 125-66 164 0 543 273 276 199 584 477l33 29q47 205 47 364.5t-74 208.5q-45 31-112.5 31T776 1253q-233-72-373.5-261T262 645t119-158q66 0 162 60 25 18 24 20 6-6-14-26-82-82-215-82-80 0-127 40t-47 111q0 12 2 27 25 272 263.5 466.5T909 1298q66 0 115-14 164-53 164-301 0-84-23-203 213 188 449.5 368.5t316.5 203 107.5 22.5 38.5-4q39-14 39-33.5t-52-17.5h-4q-135 0-495-291-233-188-422-377-16-43-43-141-88-319-88-434 0-59 35-60 84 0 294 209 35 35 35 13 0-61-147-170Q1045-69 969-70q-68 0-68 92.5T995 465l23 90Q565 158 225-27-13-156-150-156q-16 0-32 2-160 23-160 197z" horiz-adv-x="1310" unicode="X"/><glyph d="M29 561q0 279 407 569 119 86 313.5 156t314.5 70 182.5-38 62.5-121-115-258-363-476q-51-59-94-154.5t-43-152 44-56.5 132 64q250 178 499 432t366 426q84 121 178 121 33 0 33-21 0-4-4-16-258-451-703-1196-131-215-279.5-322.5T688-520q-78 0-152.5 55T461-342q0 43 43 43 10 0 31-4 25-86 40-117 35-55 119-55 252 0 619 688l368 657q-395-422-560-586.5T895 82Q772 8 692 8 575 8 575 145q0 164 140 338 10 12 87 105.5T982 811t172 249 69 168-29 62q-59 31-135 31-217 0-600-262-160-109-254-252t-94-264 116-152q37-10 72-10 104 0 231 90 150 100 168 107-20-76-161-166-156-96-291-97-18 0-68.5 7.5t-99.5 75T29 561z" horiz-adv-x="1806" unicode="Y"/><glyph d="M-166 10q0 31 33 63.5t57 32.5q4 0 8-4 10-16 88-28 518 541 1485 1071l-61 12q-145 33-374.5 33T670 1128q-37-8-111-45-119-59-119-141 0-12 6-29.5t-2-27.5q-8-12-27.5-12.5t-37 28.5-17.5 61.5 11 67.5q39 131 252 193 107 31 355 31h8q254 0 505-46 31-2 102-18l113 61q16 9 72 9h2q53 0 53-21 0-8-18-14-8-6-105-60 92-6 113.5-6t39 10.5 12.5 31 3 20.5q12 0 29.5-28t17.5-51q0-50-67-50-10 0-220 32-346-197-793.5-504T123 53q313 35 637 64 37 2 106 2 256 0 403.5-49.5T1417-61q0-49-59-109-78-72-107-72-10 0-10 17.5t23.5 39T1288-145q0 63-190 116-199 57-373 57-3 0-5 1-172 0-400-34Q90-39-43-39h-14q-33-29-41-29-4 0-4 7.5T-90-33q-76 4-76 43z" horiz-adv-x="1513" unicode="Z"/><glyph d="M47 39q0 244 265.5 751.5T778 1436q53 35 224.5 34.5T1174 1427q0-8-3-26-8-2-28-2l-148 8q-90 0-122.5-20.5T758 1270q-166-197-373-579T178 123Q178 8 336 8l153 10q59 0 60-24 0-29-172-29Q47-35 47 39z" horiz-adv-x="1198" unicode="["/><glyph d="M61.5 1389q-.5 14 13 27.5T111 1430q49 0 514-619 471-633 534-807 45-123 45-190.5t-35-67.5q-29 0-43 21-8 16 7.5 23t15.5 41-12 71q-66 172-423.5 652T80 1352q-18 23-18.5 37z" horiz-adv-x="1128" unicode="\"/><glyph d="M47 8q0 8 2 27 8 2 29 2l147-8q90 0 123 20.5T463 166q166 197 372.5 578.5T1042 1313q1 114-157 114l-154-10q-59 0-59 25 0 29 172 28 330 0 330-73 0-246-265.5-752T442 0q-53-35-224-35T47 8z" horiz-adv-x="1138" unicode="]"/><glyph d="M131 693.5Q131 715 256 815q127 106 154 109l12-4q78-86 256-222l10-20-8-14q-47 4-157.5 75.5T381 844Q176 672 153.5 672T131 693.5z" horiz-adv-x="757" unicode="^"/><glyph d="M16-100.5Q16-51 51-51h1516q51 0 57-58l-14-14q-698 0-1559-27-35 0-35 49.5z" horiz-adv-x="1650" unicode="_"/><glyph d="M76 797.5Q76 823 96 823q25 0 250-184 8-6 8-15.5t-12-9.5-120.5 65.5-127 79-18.5 39z" horiz-adv-x="452" unicode="`"/><glyph d="M-18 133q0 150 208.5 357.5T573 698q68 0 91-47 6-16 10-27.5t6-11.5l29 6q23 0 43-18t20-28.5-127-198T518 113q0-6 2-13 10-47 45-47 106 0 389 353 6 8 14.5 8t8.5-15.5-19-40.5Q696 8 559 8q-18 0-35 6-90 35-90 136 0 35 8 69L315 96Q194-10 140-10T37 25q-55 41-55 108zm86-24q0-74 51-74 119 0 323 260l217 299q-16 29-53 29-125 0-331.5-193.5T68 109z" horiz-adv-x="843" unicode="a"/><glyph d="M230.5 637Q471 983 598 983q27 0 48.5-16.5T668 928q0 2-30-31T476 721 217 405.5 90 139q0-25 13.5-53.5T147 57q90 0 211 140 100 123 123 206-14 44-14 107 0 139 86 139 8 0 18-2 35-6 35-53t-16-119q-16-53-23-80 6-35 34-89t76-54 107 65q12 14 23.5 14.5t12.5-13-15-35.5q-63-76-133-76-100 0-162 147-63-145-180-250.5T98-2Q-10-2-10 159q0 132 240.5 478z" horiz-adv-x="747" unicode="b"/><glyph d="M-16 127q0 143 180 331.5T487 647q47 0 77-25.5t30-69.5-26.5-92-80-48-53.5 32q0 23 27.5 69t27.5 49-6 3q-57-6-156.5-81.5T190 356l-79-116q-20-33-29.5-78T72 94.5 97.5 43 170 14q102 0 253.5 120T657 362q10 12 24.5 12.5t14.5-8-10-20.5Q573 196 416.5 84.5T156-27q-23 0-41 7Q-16 17-16 127z" horiz-adv-x="579" unicode="c"/><glyph d="M-18 133q0 150 208.5 357.5T573 698q57 0 80-30 9-10 19-47 228 372 319 372 14 0 40-9t26-28q0-10-10-26-164-201-244-301-242-305-266-439-6-29-7-57 0-92 76-92 152 0 395 281 20 20 35 23t15-7-13-25Q800 28 616-4q-10-2-28-2-63 0-95 44t-32 95q0 57 22 127L317 94Q204-10 140-10T33 25q-51 39-51 108zm86-24q0-74 51-74 88 0 293 241 37 43 245 322-14 25-49 25-127 0-333.5-193.5T68 109z" horiz-adv-x="956" unicode="d"/><glyph d="M-68 127q0 143 180.5 331.5T436 647q47 0 77-25.5t30-62.5q0-115-173-219T88 236q-16 0-29 4-30-53-30-113Q29 16 130 16h1q101 0 262 138 125 100 213 213 18 25 31.5 24.5T651 379t-16-35Q524 199 368.5 86T104-27q-23 0-41 7Q-68 17-68 127zM90 285q12-4 27-4 78 0 208 82.5T487 545q5 10 5 18 0 25-52.5 25T291 508Q162 402 90 285z" horiz-adv-x="526" unicode="e"/><glyph d="M-498-258q6 25 19 25 6 0 8-15 12-53 41-81.5t59-28.5q174 0 318 215Q29-20 170 299l111 266q-205 2-205 49 0 20 19.5 35t33.5 15l193-5q201 446 368 447 63 0 129-62 17-16 17-43 0-63-37-63-10 0-21 16-18 33-61 33-94 0-176-135-16-27-103-193h25q223 0 297 7 8-2 8-9 0-16-145-45-137-23-226-39-63-131-153-311Q60-82 0-166q-178-254-348-254-59 0-103.5 50.5T-498-258z" horiz-adv-x="495" unicode="f"/><glyph d="M-172-258q6 25 18 25 6 0 11-15 10-53 38.5-81.5T-47-358q117 0 250 153 88 102 194 299l103 203-154-156Q199 0 144.5 0T41 37q-55 41-55 108 0 150 210 357t382 207q70 0 90-45 6-16 10-27.5t6-11.5l29 6q27 0 42-16.5t15-25.5-2-20.5T709 465q-72-125-119-211Q424-55 336-170 148-420-23-420q-59 0-103 50.5T-172-258zM72 121q0-74 51-74 119 0 323 260l218 299q-12 29-52 29-127 0-333.5-195.5T72 121z" horiz-adv-x="757" unicode="g"/><glyph d="M-115 25q0 18 25 65 199 354 301 518 244 391 344 424 4 2 8 2 27 0 37-43-6-43-213-311-215-272-244-356 76 55 265 186 203 141 268 141t65-51q0-8-1-11T598 395.5 457 115q0-47 35-47 111 4 331 266 18 18 27.5 18t9.5-12q0-41-203-221Q530 8 485 8 365 8 365 148q0 82 56 179t138 228Q297 424 84 168-35-10-55-10q-59 0-60 35z" horiz-adv-x="770" unicode="h"/><glyph d="M-31 113q0 111 121 306t195 197q20 0 45.5-16t25.5-33q-10-14-24.5-31.5t-30.5-38-45-58.5-55-72Q47 168 47 93t51-75q43 0 117 48 172 106 272 233 37 47 50.5 47t13.5-16.5-47-65.5-75-77.5-38-38-37.5-35-42-35.5-41-30.5-47-30T176-4Q133-23 74-23-30-23-31 113zm398 665q0 57 77 58 31 0 58.5-19.5T530 770t-25.5-46-56-19-56 22.5T367 778z" unicode="i"/><glyph d="M-543-300q0 40 19 40 2 0 42-52.5t93-52.5q164 0 373 371 129 231 176 375-25-29-85.5-84T1 242t-13 6q0 18 32.5 47t88 108.5T174 492l68 71q41 39 89 39t48-45q0-12-162-291Q59-35-27-154q-186-266-350-266-61 0-113.5 40t-52.5 80zM340 780q0 59 78 60 31 0 58.5-20.5t27.5-46-25.5-45T422 709t-56.5 21.5T340 780z" horiz-adv-x="411" unicode="j"/><glyph d="M207 551q264 395 362 465 8 6 33 6 63 0 64-33 0-16-142.5-184T365 602q186 96 297 96 63 0 108-51 43-43 43-88v-12q-16-117-164-193-119-63-221-63t-143 26q-12 2-19.5-6t-3.5-20Q319 37 453 37q70 0 179 78t228 219q14 14 25.5 14t11.5-11-14-32Q772 170 674 92 524-25 420-25q-162 0-275 256-29-43-129-241-73 29-73 77 0 89 264 484zm-4-201q18 0 98-6 92 0 242 76 172 86 172 182 0 16-18.5 32.5T657 651q-111 0-265-92T203 350z" horiz-adv-x="806" unicode="k"/><glyph d="M-6 126q0 67 35 155 59 139 190 350 240 389 340 389 20 0 42-15.5t24-33.5q-47-63-181.5-243.5T258 468t-76.5-118-38-60.5T115 233q-35-70-35-131t67.5-61 174 71.5T528 307q25 33 39.5 33t14.5-12-84-107Q293-4 156-4 88-4 41 27.5T-6 126z" horiz-adv-x="497" unicode="l"/><glyph d="M-76 181.5q0 13.5 17 29.5 76 76 135 151.5T272 633q23 31 64 31t41-39q0-14-108.5-199.5T147 193q84 92 252 247 252 233 332 234 25 0 45.5-14.5t20.5-32T717 473q-78-141-86-168 227 190 227 193 192 149 276 149h1q25 0 46-15.5t21-35.5q0-4-133-173T920 145q-4-37 14-55t66.5-18 141.5 66.5T1331 317q37 41 50.5 41t13.5-10q0-14-19-33-100-121-215.5-205.5T979 25q-139 0-139 129 0 74 65.5 201.5T1042 571q-127-61-292.5-222T518 12Q508-4 483-4q-49 0-49 55 20 113 92 258 23 47 133 275-160-104-271.5-224T181 119 74-2Q47-2 27.5 22.5T8 72q0 37 107 270L-8 213q-45-45-56.5-45T-76 181.5z" horiz-adv-x="1292" unicode="m"/><glyph d="M-76 181.5q0 13.5 17 29.5 76 76 131 145 53 70 219 267 19 24 39 24 55 0 55-43 0-12-6-24-184-256-221-387 477 477 579 477 10 2 19 2 57 0 57-51 0-10-4-20.5T727 489q-90-106-152.5-204.5t-62.5-164T541 55q90 0 313 248 4 4 14 19 31 37 37 36.5t6-21-28-52.5Q629-4 522-4 422-4 422 106.5T504 360l131 213Q496 471 387.5 349t-198-236.5T86-2Q55-2 37.5 23.5T20 87t27 101.5T115 342L-8 213q-45-45-56.5-45T-76 181.5z" horiz-adv-x="825" unicode="n"/><glyph d="M159 482.5Q338 705 449 705q104 0 104-111 0-29-10-74 2-6 38.5-6T694 553q-2-35-162-100 3-9 3-19 0-72-138-239Q235-4 121-4H88Q35-4 4 51q-24 38-24 82 0 127 179 349.5zM76 135q0-78 49-78 88 0 223 160t135 229q-33 19-82 95-70 0-197.5-164T76 135z" horiz-adv-x="575" unicode="o"/><glyph d="M-205-204q0 136 226.5 471T334 631q20 4 26 4 35 0 35-76 20 20 84 39 78 20 111 20 74 0 128-41.5T772 463q0-166-189.5-314.5T254 0q-92 0-134 12.5T27 86Q-8 57-67.5-60.5T-127-262q0-39 39-103 4-10-6-17t-15.5-7-9.5 2q-86 47-86 183zM57 131q0-37 56.5-55.5T227 57q113 0 277 128t164 298q0 78-92.5 78T408 522q-35-16-193-180T57 131z" horiz-adv-x="772" unicode="p"/><glyph d="M-57 119q0 86 108 213 96 106 191 160 223 124 364 124h2q45 0 56-34v-66q35-27 34.5-34t-6.5-15L530 313Q376 155 319 25q12 4 67.5 4T473-19.5t31-95.5q0-98-86-231-94-150-205-150-106 0-107 158 0 96 52 217l94 219Q121 8 43 8-57 8-57 119zM4 88q0-39 49-39 102 0 275 178l258 275q-4 12-27 12-104 0-314-136T6 100q-2-6-2-12zm166-438q0-41 16.5-73t44.5-32q76 0 133.5 131T422-127t-28.5 86.5T299-18q-39-61-84-176t-45-156z" horiz-adv-x="679" unicode="q"/><glyph d="M-10 242q0 20 35 59 178 207 251 350 47 178 119 178 47 0 47-40.5T391 684l-49-66q0-43 64-43 37 0 81 27l54 33q4 2 20.5 2t34.5-20.5 12-36.5L467 401Q336 233 336 136t90-97q94 0 231 100 82 59 150 133 63 74 70 74 14 0 14-15.5T872 295l-65-74q-55-57-123-110Q522-10 418-10q-154 0-154 170 0 86 45 188.5T408 520q-10-2-27-2-49 0-82 70L147 391Q20 233 0 233q-10 0-10 9z" horiz-adv-x="806" unicode="r"/><glyph d="M-43 213q0 14 10 25 68 84 230 241l258 242q111 104 131 104 65 0 65-48 0-26-19.5-49T603 691.5 584 666q-37-63-75-262t-58-277q170 2 350 221 20 20 30.5 20.5t10.5-13-19-36.5Q704 180 602 125q-61-31-160-51l-65-43Q318-4 230.5-4T97 53.5 18 236q-37-37-51-37-10 0-10 14zm143 45q0-70 46.5-114T250 100t88 23q41 23 81 188.5T467 604l8 70q-113-84-241-217T102 281q-2-13-2-23z" horiz-adv-x="735" unicode="s"/><glyph d="M-14 127q0 84 73.5 230.5T172 575q-29-6-49-6-59 0-60 47 0 35 50 50 6 0 18 2h119q37 47 84 108 57 74 77.5 74t51.5-16.5 31-39T395 662q54-3 140-3l294 5q6-4 7-7 0-18-255-51t-276-39q-39-35-143.5-208T57 106q0-75 102-75h3q49 0 129 30.5T414 119q115 72 245 211 29 29 39 28 6 0 6.5-12T674 297Q568 166 434 86 274-12 129-12 66-12 26 15.5T-14 127z" horiz-adv-x="608" unicode="t"/><glyph d="M-39 213q0 10 19 35l282 332q53 61 108.5 61t55.5-37q0-14-12-26-82-76-206-252T84 66q0-37 25-37 86 0 249 170 57 57 213 252.5T776 647q74 0 74-57 0-20-86-119-117-141-178.5-230T524 96.5 555 41q14 0 33 8 141 61 338 287 12 14 24.5 14t12.5-13-15-30q-88-102-207-205.5T573-12q-10-2-43.5-2T462 12.5 428 81t15.5 93 21.5 78Q229-22 96-23 12-23 4 82v14q0 88 107 238-59-53-121-123-8-8-21-8-8 0-8 10z" horiz-adv-x="870" unicode="u"/><glyph d="M-29 63q0 45 98.5 305.5T205 659q8 8 26.5 8.5t39-19T293 602q1-2-101-238Q96 142 96 90v-6q88 27 314.5 215T637 637q0 90-90 131-14 6-15 18 0 19 23 19 61 0 104-41t43-115q0-162-268-405Q207 39 68-6 45-6 8 18.5T-29 63z" horiz-adv-x="616" unicode="v"/><glyph d="M-39 61q0 49 125 325t186 276q23 0 41.5-22t18.5-33-111.5-210.5T111 156q195 236 206 250 199 229 261 229 23 0 44-19.5t21-35-57.5-91-97-148.5T449 195q0-129 86-129h26q111 0 202 168.5T854 506q0 82-27 127-4 4-4 10 0 12 13 12 37 0 57-45 25-39 25-135 0-147-129.5-302T510 18q-72 0-116 70t-44 143.5T383 412q-59-59-174-204T53-4Q33-4-3 18.5T-39 61z" horiz-adv-x="919" unicode="w"/><glyph d="M-72 184.5q0 10.5 65.5 83t174 237.5 156 208 88.5 43 59-11.5 13-39-8-48-5-47.5q-12-96-14-157 100 96 452 395 4 4 14.5 4t27-17.5 16.5-35-17-33.5q-66-53-228.5-171T453 379q-2-43-2-117t18-135q25-80 90-80 117 0 361 281 20 20 30.5 20t10.5-13-17-32Q817 153 741 90 594-33 496.5-33T369 109q-10 57-15 172Q104 15-20-201q-6-8-17-8-25 0-24 23 0 6 4 10 190 301 411 528 8 281 11 316-47-10-201-238Q88 315 30.5 254T-38 183.5t-22.5-9.5-11.5 10.5z" horiz-adv-x="874" unicode="x"/><glyph d="M-115-238q97-122 169-122h1q117 0 252 186 98 137 193 346l78 188-302-235Q137 16 53 16 8 16-18.5 47T-45 117q0 88 151.5 289.5t221 201.5 69.5-47q0-18-181-211.5T35 88q0-27 35-27 66 0 263 154t298 254q23 27 63 80 39 45 86 45t47-45q0-8-92-145.5T639 258q-63-123-195-358Q245-419 47-420q-66 0-115 56-47 54-47 121v5z" horiz-adv-x="757" unicode="y"/><glyph d="M-27 78q0 18 12.5 45T10 150q18 0 8-31-6-31 18.5-31T96 113l-78 59q-4 4-4 14.5t20.5 30 32 19.5 99.5-70q254 287 373 377-162 49-240 49-23 0-43-3t-44-24.5-24-48.5 22.5-44 22.5-27.5-15-10.5-50 41q-33 41-33 84 0 72 105 94 54 11 112 11h1q58 0 282-74 29 16 61 16 86 0 86-51 0-20-26.5-37.5T692 500t-67 14Q430 393 207 133l74-57q89-58 205-58h3q115 0 169 37 56 37 55 95 0 27-10.5 50t18.5 23q10 0 20.5-23.5T752 143q0-82-78-135T473-45Q338-45 250 6q-35 19-113 78Q55 27 20 27q-47 0-47 51z" horiz-adv-x="790" unicode="z"/><glyph d="M18 530l23 33q145 16 201 60 70 51 96 182l45 252q31 127 108.5 190.5T735 1311h15q12 0 22-19l-27-10q-158 0-221-88-43-59-71-223-8-53-37-170-68-217-238-258 135-50 135-187 0-68-33.5-212T246-86t57-111l133-24 19-17q-29-12-39-12-115 0-172 29-80 41-80 151 0 72 37 216.5T238 367q0 160-220 163z" horiz-adv-x="661" unicode="{"/><glyph d="M104-206q0 3 9 38 31 129 63 289 68 393 68 780 0 160-13 242-25 102-24.5 120.5T242 1282q82 0 82-181t-58.5-693T156-174q-25-35-50-35-2 0-2 3z" horiz-adv-x="448" unicode="|"/><glyph d="M31-227q23 10 104 18 139 8 197 148l80 249q51 162 118 224 82 80 201 114-150 37-149 162 0 86 51 237.5t51 231.5-55 98l-121 19-16 14 28 17q106 0 160-19 90-31 90-122t-56.5-248.5T657 682t62-111q51-25 143-32l-26-35q-178-4-256-109-45-63-99-260-45-182-110-260Q268-246 55-246h-2q-12 0-22 19z" horiz-adv-x="870" unicode="}"/><glyph d="M98 819q0 29 86 82 33 20 70 20.5t101.5-21T463 879t76 45q12-1 12-9 0-31-80-86-29-18-61.5-18t-99 27.5T210 866t-66.5-26.5T100 813q-2 2-2 6z" horiz-adv-x="620" unicode="~"/><glyph d="M-102-406q0 6 8 15 90 94 250 307 166 213 188.5 266.5T389 236q10 0 10-15 0-123-179-392T-18-440q-25 0-54.5 9t-29.5 25zm454 812.5q0 25.5 27 45t56.5 19.5 55-21.5T516 399q0-59-78-59-31 0-58.5 20.5t-27.5 46z" horiz-adv-x="604" unicode="¡"/><glyph d="M51-72q0 8 10 60 39 203 111 299-49 33-49 115.5t93 182T387 684h14q18 39 91 162t88.5 134 32 11 16.5-14q0-6-33-52T436 670q10-10 10-27.5T421.5 583 381 541q-6 0-6 8l12 47q0 35-53 35t-100.5-78T186 412q0-104 93-105 113 0 241 160 14 20 24.5 20t10.5-6q0-25-69.5-88t-120-96T250 264q-12 0-33 4-70-92-139-350-4-4-6-4-20 0-21 14z" horiz-adv-x="604" unicode="¢"/><glyph d="M78 240q0 76 88 75 125 0 563-221 139 170 270 553H670q-25 0-25 17 0 47 49 47h328q162 483 307 651 121 135 260 135 78 0 127-50t49-132q0-201-223-307-14-8-25.5-8.5t-11.5 16 21.5 32 39 31 27.5 23.5q109 100 109 235 0 47-28.5 72t-71.5 25-90.5-30-90.5-87q-55-74-118.5-183.5T1110 711h352q16 0 17-15 0-49-60-49h-334q-92-223-131-303-94-195-176-270Q887 6 1057-33q166-45 296-45t230 37q141 45 141 152 0 41-37.5 78.5t-37.5 49 9 11.5 17-8q117-86 117-159t-35-122-94-72q-233-92-576 9Q905-49 729 43 571-57 438-57T191.5 30 78 240zm133-33q0-84 74-152Q361-6 467.5-6T664 57q-53 41-211 103.5T253 223t-42-16z" horiz-adv-x="1804" unicode="£"/><glyph d="M100 477l209 197q-72 45-71 133 0 141 137 223l-109 166 60 18q8-37 80-167 80 35 160.5 34.5T700 1057q88 86 148 153l47-18q-4-4-33-29-74-64-137-123 59-43 59-123.5t-45-143T621 676q98-162 129-197h-68q-8 27-98 180-59-20-131-20t-119 23L166 477h-66zm217 373q0-72 42-112t131.5-40 153 58.5T707 885q0 145-148 145-106 0-174-54t-68-126z" horiz-adv-x="1060" unicode="¤"/><glyph d="M211 334q0 51 63 51h218l112 176H385q-45 2-41 21 12 49 62 49h235q264 473 264 604 0 94-106.5 94T516 1205 268 983q-18-27-26 2-2 10-2 32.5t28 59.5q92 117 251 207t285 90 167-55q20-29 20-76 0-168-211-514l-57-98h12q193 205 498 444 387 315 612 316 61 0 90-21.5t29-39-4-28-6-10.5l-15 35q-18 33-63 33-123 0-476-254T836 633l282 2q-6-14-17-19.5t-44-11.5-63.5-10-96.5-11.5T778 567l-55-59q-4-6-38-54t-46-69l352 10q2-2-1-10t-56-20q-133-35-332-43Q428 27 428-49q0-29 23-29 35 0 149 82 10 0 8-12-8-31-97-75t-122-44q-74 0-74 78 0 100 144 366l-158 2q-90 0-90 15z" horiz-adv-x="1124" unicode="¥"/><glyph d="M205-161.5Q205-137 215-53t10 180l-2 440 86 2q-27-596-53-700-14-55-32.5-55T205-161.5zm2 1423.5q0 20 35 20 82 0 82-187.5T313 659l-90 5v245q0 199-8 270.5t-8 82.5z" horiz-adv-x="448" unicode="¦"/><glyph d="M-57-104q0 86 90 165 82 78 198 125 16 10 29.5 10.5T281 188q0-10-74-47T78 43Q10-22 10-94q0-150 232-150 207 0 411 92Q782-101 850-2q23 33 22 59 0 84-92 146-49 31-155.5 73.5t-182 75.5-138 102.5-62.5 174 88 207T559 995q-23 49-22 99 0 109 104 214t262 171q174 74 334 73 98 0 122.5-42t24.5-79.5-5-63.5-27.5-63.5-46.5-39.5q-14 0-7 26 10 70 11 82 0 104-150 105-90 0-213-40t-224-118-101-168q10-113 83.5-179.5t167-101T1057 803q219-74 219-203 0-109-96.5-216.5T940 217q43-43 43-87t-21.5-90T887-53q-104-92-219-144-229-111-441-110-242 0-280 166-4 18-4 37zm383 780q10-100 63-156 59-57 111.5-82.5T578 401q70-31 143-55 113-45 180-92 111 37 189.5 116t78.5 159.5-69.5 133-158.5 80-194.5 81T588 944q-111-41-186.5-111.5T326 676z" horiz-adv-x="1167" unicode="§"/><glyph d="M66 769q0 24 59 67 61 43 94 43 2 0 6-2-2 0-28-37l-33-82q-24-56-55-56-14 0-28.5 21.5T66 769zm159 108h2v-3q0 2-2 3zm88-108q0 24 60 67 61 43 94 43l6-2q-2 0-29-37l-32-82q-25-55-56-56-14 0-28.5 21.5T313 769zm160 108h2v-3z" horiz-adv-x="534" unicode="¨"/><glyph d="M84 379q0 242 255 466t501 224q145 0 247.5-90.5T1190 745q0-238-250-462T444 59q-145 0-252.5 87T84 379zm74-2q0-125 98-201 88-74 217-74 217 0 428 205t211 422q0 131-82 215t-211 84q-229 0-445-211T158 377zm110-10q0 188 202 371.5T864 922q101 0 101-82 0-61-37-66l-10 8q6 55 10 52-4 70-74 69-160 0-338-191.5T338 358q0-98 99.5-98t255 86T846 438q6 0 6-6 0-70-164-133t-241.5-63T324 266q-55 33-56 101z" horiz-adv-x="1306" unicode="©"/><glyph d="M-18 625q0 150 208.5 357.5T573 1190q68 0 91-47 6-16 10-27.5t6-11.5l29 6q23 0 43-18.5t20-28.5-127-197.5T518 604q0-6 2-12 10-47 45-47 106 0 389 352 6 8 14.5 8t8.5-15.5-19-39.5Q696 500 559 500q-18 0-35 6-90 35-90 135 0 35 8 70L315 588Q194 482 140 481.5T37 516q-55 41-55 109zm86-25q0-74 51-74 119 0 323 260l217 299q-16 29-53 29-125 0-331.5-193.5T68 600z" horiz-adv-x="491" unicode="ª"/><glyph d="M174 524q0 25 104.5 171.5t130 178 43 31.5 17.5-12q0-30-203-313 199-250 199-275.5T449 279q-4 0-21 8-47 63-117 121L180 512q-6 4-6 12zm287 6.5q0 14.5 102.5 161t131 180 45 33.5 16.5-12q0-30-203-313 201-254 201-277.5T735 279q-4 0-20 8-51 68-115 121L467 512q-6 4-6 18.5z" horiz-adv-x="860" unicode="«"/><glyph d="M6 121q0 125 325.5 587.5T723 1171q84 0 84-34 0-6-8-15-223-244-472-596T78 45q0-78 76-92 6-2 6-4 0-14-45-15-66 0-92 80Q7 67 6 121z" horiz-adv-x="530" unicode="¬"/><glyph d="M39 481q0 20 17.5 34.5T86 530t25 2h104l199-2q119 0 170 7 2-2 2-7 0-31-162-59-88-12-165-25.5T160.5 432 89 441.5 39 481z" horiz-adv-x="608" unicode="­"/><glyph d="M84 379q0 242 255 466t501 224q145 0 247.5-90.5T1190 745q0-238-250-462T444 59q-145 0-252.5 87T84 379zm74-2q0-125 98-201 88-74 232.5-74T797 221q-76 18-141.5 119.5T561 541q-18 0-24 6l22 8 14 10 19-6q358 49 358 199 0 117-231 116-78 0-200-35.5T319 762Q157 569 158 377zm126.5-139.5Q285 319 449 557q133 199 239 305l45-22q-6-10-112.5-146.5T461 477Q332 289 315 178q-4-22-8-22-23 0-22.5 81.5zM381 827q184 72 346 72 98 0 172-31 102-41 102-125 0-102-145-161-104-43-233-47 27-96 73-175 63-104 140-108 276 221 276 477 0 131-82 215t-211 84q-225 0-438-201z" horiz-adv-x="1306" unicode="®"/><glyph d="M451 1262q33 16 201.5 16t217.5-25q6-4 7-6 0-10-13-10-63 0-186-12.5T494 1212q-10 0-25.5 19t-17.5 31z" horiz-adv-x="1024" unicode="¯"/><glyph d="M133 831.5q0 73.5 51.5 125t125 51.5T434 956.5t51-125-52-125T308.5 655t-124 51.5-51.5 125zm45 0q0-53.5 39-92.5t92-39 92 39 39 92.5-39 92.5-92 39-92-39-39-92.5z" horiz-adv-x="579" unicode="°"/><glyph d="M125 627l10 10q84 8 181.5 8H449l-13 283q0 12 15.5 24.5T481 965l11-11q8-82 8-178V645q164-4 315-14 12-6 12-13v-8l-18-12q-160 0-309-2-2-274-11.5-293.5T469 283q-20 0-20 204v107l-285-10q-12 0-24.5 14T125 627zm104-445q33 16 202 16.5T649 174q6-2 6-6 0-10-12-10-63 0-186-12.5T272 133q-10 0-25.5 18.5T229 182z" horiz-adv-x="897" unicode="±"/><glyph d="M0 793q0 27 31 47 49 35 133 34 23 0 47-2 297 182 378 246t128 123q59 70 67 160 0 68-81.5 67.5T505 1415t-183-112q-8-4-16.5-4.5t-8.5 13 8 15.5q88 76 227.5 137.5t246 61.5 106.5-88q-8-100-115-211-49-51-175-150.5T242 858q59-6 193-51t197.5-45 112 21.5T793 846q0 49-76 76-8 6-8 10 0 16 20 10 102-31 102-98 0-57-61-92t-132-35-175 35l-170 61q-59 16-92 16-139-59-170-59T0 793z" horiz-adv-x="931" unicode="²"/><glyph d="M39 909q0 37 26.5 86t118.5 90q78 31 114 31t36-8q0-12-29-12t-90-37q-66-43-82-86l-6-43q0-106 147-133 39-6 76-6 109 0 219 51 172 80 234 229 8 18 8 43 0 47-49 69.5T639 1206t-102.5-11-42.5-11q-23 0-23 20 0 14 11.5 25.5T508 1241q104 0 197 35 119 45 133 133 2 6 2 14 0 53-67.5 53.5t-157-34.5-113-51.5T472 1374t-7 25.5 24 32.5q27 8 61 39.5t42 31.5q6-4 6-10t-6-14q-2 0-10-9 133 55 219 56 121 0 117-111-6-106-222-174 186-20 187-131 0-14-6-33-37-145-218-237-162-78-346-78-121 0-197.5 39T39 909z" horiz-adv-x="974" unicode="³"/><glyph d="M98 540.5q0 10.5 8 16.5l216 166q23 18 34 18 18 0 18.5-24.5T358 676q-18-14-124.5-80t-121-66T98 540.5z" horiz-adv-x="452" unicode="´"/><glyph d="M-162-204q0 136 232 478l26 41-92-84q-12-12-22.5-12T-29 230.5-8 262l270 318q55 61 109.5 61t54.5-37q0-14-26.5-39.5T319 477q-16-25-53-71-39-51-45-62Q84 149 84 66q0-37 25-37 39 0 139 77l110 93q33 25 209 250 160 199 209 198 74 0 74-57 0-20-86-119-117-141-178.5-230T524 96.5 555 41q14 0 33 8 147 66 338 283 12 14 24.5 14t12.5-10q0-41-207-223Q623-2 573-12q-10-2-43.5-2T462 12.5 428 81t15.5 93 21.5 78L285 72Q179-22 108.5-22T18 23Q-84-155-84-262q0-39 39-103 4-10-6-17t-15.5-7-9.5 2q-86 47-86 183z" horiz-adv-x="870" unicode="µ"/><glyph d="M-106-344q6 12 20 12 180 0 365 375 61 129 213 541-315 27-316 231 0 176 189.5 301T739 1241l222 8q53 0 79-8 82 86 174 86 53 0 66-27-4-4-40-11t-52-17q-109-63-260-400L678 270Q512-121 418-121q-12 0-12 8 4 10 28 33Q545 24 680 426q74 227 137 410 94 246 203 376h-21q-143 0-323-381-78-160-207-520Q391 98 258-96 78-362-74-362q-29 0-32 18z" horiz-adv-x="1122" unicode="¶"/><glyph d="M180 651q0 59 78 60 31 0 58.5-20.5T344 644t-25.5-45-56.5-19-56.5 21.5T180 651z" unicode="·"/><glyph d="M31-551q0 10 18 16 98 16 148 23 72 23 71 119 0 27-53 103.5T162-174q0 72 40 125T305 4q23 0 25-14-43-8-68.5-44T236-139q0-23 59-100t59-132q0-96-99-149T49-573q-18 0-18 22z" horiz-adv-x="458" unicode="¸"/><glyph d="M-2 766q0 16 21.5 24.5T133 831l309 564q-63-41-172-82-18-6-18 12 0 10 10 16 82 31 234 148l6 12q14 23 53 23t39-19q0-4-399-663 78 14 176 14 12 0 12-12 0-18-18-19-88 0-158-22.5t-128.5-47T15 731t-11 9.5-6 25.5z" horiz-adv-x="714" unicode="¹"/><glyph d="M-20 616q0 123 179 345.5T449 1184q104 0 104-111 0-29-10-74 2-6 38.5-6t112.5 39q-2-35-162-100 3-9 3-19 0-72-138-239-162-199-276-199H88q-53 0-84 55-25 39-24 86zm96-1.5q0-77.5 49-77.5 88 0 223 159.5T483 926q-33 18-82 94-70 0-197.5-164T76 614.5z" horiz-adv-x="391" unicode="º"/><glyph d="M174 276q0 31 203 314-201 256-201 278.5t19 22.5q4 0 20-8 57-80 248-226 6-2 6-17T366.5 478.5 235.5 298t-45-34-16.5 12zm320 0q-1 31 202 314-201 256-200.5 278.5T514 891q4 0 21-8 57-80 247-226 6-2 6-17T686 478.5 555 298t-45-34-16 12z" horiz-adv-x="860" unicode="»"/><glyph d="M-2 766q0 16 21.5 24.5T133 831l309 564q-63-41-172-82-18-6-18 12 0 10 10 16 82 31 234 148l6 12q14 23 53 23t39-19q0-4-399-663 78 14 176 14 12 0 12-12 0-18-18-19-88 0-158-22.5T23 733q-10-4-17.5 6.5T-2 766zm391-535q0 41 34 130.5T737 829q281 371 310 371 12 0 24-11t-6-36Q897 960 685 677T430 283q-8-29-8-45.5t10-21.5 3-15.5-26.5-10.5-19.5 41zm260-33.5q0 25.5 26.5 35T745 250q66 35 202 133t173 121q250 156 279 215l12 16q6 8 21 8 41 0 41-22 0-4-3-4l-215-311q-72-106-122-197 90-29 133-29t73 21q35 31 35 59.5t-4 42.5 8.5 14 20.5-12q23-39 22-76 0-84-149-84-63 0-160 31-57-111-57-199 0-41 6-63.5t8-32.5q0-22-20-22-35 0-35 94t53 235q-96 27-166 27t-217-61q-14-4-24.5 7T649 197.5zM831 262q61 6 105.5 6t148.5-41q49 113 232 373-82-49-254.5-173T831 262z" horiz-adv-x="1632" unicode="¼"/><glyph d="M-2 766q0 16 21.5 24.5T133 831l309 564q-63-41-172-82-18-6-18 12 0 10 10 16 82 31 234 148l6 12q14 23 53 23t39-19q0-4-399-663 78 14 176 14 12 0 12-12 0-18-18-19-88 0-158-22.5T23 733q-10-4-17.5 6.5T-2 766zm391-535q0 41 34 130.5T737 829q281 371 310 371 12 0 20-8t8-16.5-10-22.5Q897 960 684 676 422 326 422 244q0-23 10-28t3-15.5-26.5-10.5-19.5 41zM614 18.5Q614 43 645 66q49 33 133 32 23 0 47-2 297 182 378 246t128 121q59 72 68 162 0 68-82 67.5T1119.5 639 936 526q-8-4-16.5-4t-8.5 13.5 9 15.5q88 76 227 137.5t245.5 61.5 106.5-88q-8-100-115-211-49-51-175-150.5T856 82q57-6 192.5-51t199-45T1359 7.5t48 62.5q0 49-76 75-8 6-8 11 0 16 20 10 102-31 103-98 0-57-61.5-92t-132-35T1077-25L907 37q-59 16-92 16Q676-6 645-6t-31 24.5z" horiz-adv-x="1644" unicode="½"/><glyph d="M39 905q0 37 26.5 86t118.5 90q78 31 114 31t36-8q0-12-29-12t-90-37q-66-43-82-86l-6-43q0-106 147-133 39-6 76-7 109 0 219 52 172 80 234 229 8 18 8 43 0 47-49 69.5T639 1202t-102.5-11-42.5-11q-23 0-23 20 0 14 11.5 25.5T508 1237q104 0 197 35 119 45 133 133 2 6 2 14 0 53-67.5 53.5t-157-34.5-113-51.5T472 1370t-7 25.5 24 31.5q27 8 61 40t42 32q6-4 6-10t-6-14q-2 0-10-9 133 55 219 56 121 0 117-111-6-106-222-174 186-20 187-131 0-14-6-33-37-145-218-237-162-78-346-78-121 0-197.5 39T39 905zm606-674q0 41 34 130.5T993 829q281 371 310 371 12 0 24-11t-6-36q-168-193-380-476T686 283q-8-29-8-45.5t9-21.5 3-15.5-25.5-10.5-19.5 41zm260-33.5q0 25.5 26.5 35T1001 250q66 35 202 133t173 121q250 156 279 215l12 16q6 8 21 8 41 0 41-22 0-4-3-4l-215-311q-72-106-122-197 90-29 133-29t73 21q35 31 35 59.5t-4 42.5 8.5 14 20.5-12q23-39 22-76 0-84-149-84-66 0-160 31-57-111-57-199 0-41 6-63.5t8-32.5q0-22-20-22-35 0-35 94t53 235q-96 27-166 27t-217-61q-14-4-24.5 7T905 197.5zm182 64.5q61 6 105.5 6t148.5-41q49 113 232 373-82-49-254.5-173T1087 262z" horiz-adv-x="1871" unicode="¾"/><glyph d="M-16-227q0 125 108 211 27 20 246 147 143 82 197 182 18 35 31.5 35t13.5-18.5-5-30.5q-51-106-180-190Q211-6 172-43q-88-80-88-147.5T157.5-298 345-338t205 53.5T657-129q4 27-21.5 50.5T563-55t-106-62q-14-14-19 0-6 16 8 31 68 70 132.5 70T675-48t32-75v-10q-12-137-134-213t-251-76q-338 0-338 195zm551 752.5q0 25.5 25.5 45t56 19.5 56-21.5T698 518q0-59-80-59-29 0-56 20.5t-27 46z" horiz-adv-x="821" unicode="¿"/><glyph d="M-2 86q0 176 111 373 147 262 403 447.5T971 1092t203-150q0-100-61.5-223T987 563q-6-2-13-2t-7 4l67 111q70 109 70 190.5t-36 132-114 50.5q-160 0-382-178.5T234.5 432 119 27q0-219 223-220 213 0 578 275 162 121 526 457-72-4-133-15-131-25-123 8 8 76 78 76 135-16 227-16 176 162 526 530 236 248 287 248 23 0 23-35t-18.5-108.5-41.5-89.5q-47-33-88-89.5t-117-211T1937 586l199 4q74 0 74-10 0-27-299-48-190-373-191-507 0-94 60-95 23 0 56.5 28t40.5 28 7-11q-10-37-62.5-61.5t-88-24.5-56.5 5q-49 18-49 118 0 207 158 527l-246-7Q1266 264 989 61 575-240 342-240q-14 0-29 2Q-2-211-2 86zm1579 508h121q43-2 106-2 59 116 297 493zm557 1070q0 26 20 26 25-1 250-185 8-6 8.5-15t-12-9-121 65.5-127 78.5-18.5 39z" horiz-adv-x="2088" unicode="À"/><glyph d="M-2 86q0 176 111 373 147 262 403 447.5T971 1092t203-150q0-100-61.5-223T987 563q-6-2-13-2t-7 4l67 111q70 109 70 190.5t-36 132-114 50.5q-160 0-382-178.5T234.5 432 119 27q0-219 223-220 213 0 578 275 162 121 526 457-72-4-133-15-131-25-123 8 8 76 78 76 135-16 227-16 176 162 526 530 236 248 287 248 23 0 23-35t-18.5-108.5-41.5-89.5q-47-33-88-89.5t-117-211T1937 586l199 4q74 0 74-10 0-27-299-48-190-373-191-507 0-94 60-95 23 0 56.5 28t40.5 28 7-11q-10-37-62.5-61.5t-88-24.5-56.5 5q-49 18-49 118 0 207 158 527l-246-7Q1266 264 989 61 575-240 342-240q-14 0-29 2Q-2-211-2 86zm1579 508h121q43-2 106-2 59 116 297 493zm747 895q0 10 9 16l215 166q20 18 36.5 18.5t16.5-24.5-16-41q-18-14-125-79.5t-121.5-65.5-14.5 10z" horiz-adv-x="2088" unicode="Á"/><glyph d="M-2 86q0 176 111 373 147 262 403 447.5T971 1092t203-150q0-100-61.5-223T987 563q-6-2-13-2t-7 4l67 111q70 109 70 190.5t-36 132-114 50.5q-160 0-382-178.5T234.5 432 119 27q0-219 223-220 213 0 578 275 162 121 526 457-72-4-133-15-131-25-123 8 8 76 78 76 135-16 227-16 176 162 526 530 236 248 287 248 23 0 23-35t-18.5-108.5-41.5-89.5q-47-33-88-89.5t-117-211T1937 586l199 4q74 0 74-10 0-27-299-48-190-373-191-507 0-94 60-95 23 0 56.5 28t40.5 28 7-11q-10-37-62.5-61.5t-88-24.5-56.5 5q-49 18-49 118 0 207 158 527l-246-7Q1266 264 989 61 575-240 342-240q-14 0-29 2Q-2-211-2 86zm1579 508h121q43-2 106-2 59 116 297 493zm475 881q0 6 21 24 156 94 202 135 61 51 74 52 31 0 117-95.5t89-106.5 3-16q0-20-16.5-20t-88 65.5T2337 1606q-12-8-68.5-43t-106-68-65.5-35q-45-12-45 15z" horiz-adv-x="2088" unicode="Â"/><glyph d="M-2 86q0 176 111 373 147 262 403 447.5T971 1092t203-150q0-100-61.5-223T987 563q-6-2-13-2t-7 4l67 111q70 109 70 190.5t-36 132-114 50.5q-160 0-382-178.5T234.5 432 119 27q0-219 223-220 213 0 578 275 162 121 526 457-72-4-133-15-131-25-123 8 8 76 78 76 135-16 227-16 176 162 526 530 236 248 287 248 23 0 23-35t-18.5-108.5-41.5-89.5q-47-33-88-89.5t-117-211T1937 586l199 4q74 0 74-10 0-27-299-48-190-373-191-507 0-94 60-95 23 0 56.5 28t40.5 28 7-11q-10-37-62.5-61.5t-88-24.5-56.5 5q-49 18-49 118 0 207 158 527l-246-7Q1266 264 989 61 575-240 342-240q-14 0-29 2Q-2-211-2 86zm1579 508h121q43-2 106-2 59 116 297 493zm586 946q0 33 88 84 33 20 68.5 20.5t100-21T2526 1602t79 43q12-1 12-9 0-31-82-86-27-16-60.5-16t-100 27.5-100 27.5-66.5-26.5-43-26.5q-2 2-2 4z" horiz-adv-x="2088" unicode="Ã"/><glyph d="M-2 86q0 176 111 373 147 262 403 447.5T971 1092t203-150q0-100-61.5-223T987 563q-6-2-13-2t-7 4l67 111q70 109 70 190.5t-36 132-114 50.5q-160 0-382-178.5T234.5 432 119 27q0-219 223-220 213 0 578 275 162 121 526 457-72-4-133-15-131-25-123 8 8 76 78 76 135-16 227-16 176 162 526 530 236 248 287 248 23 0 23-35t-18.5-108.5-41.5-89.5q-47-33-88-89.5t-117-211T1937 586l199 4q74 0 74-10 0-27-299-48-190-373-191-507 0-94 60-95 23 0 56.5 28t40.5 28 7-11q-10-37-62.5-61.5t-88-24.5-56.5 5q-49 18-49 118 0 207 158 527l-246-7Q1266 264 989 61 575-240 342-240q-14 0-29 2Q-2-211-2 86zm1579 508h121q43-2 106-2 59 116 297 493zm623 981.5q0 23.5 59 66.5 61 43 94 44 2 0 6-3-2 0-28-36l-33-82q-24-56-55-56-14 0-28.5 21.5t-14.5 45zm159 107.5h2v-2zm88-107.5q0 23.5 60 66.5 61 43 94 44l6-3q-2 0-29-36l-32-82q-25-55-56-56-14 0-28.5 21.5t-14.5 45zm160 107.5h2v-2z" horiz-adv-x="2088" unicode="Ä"/><glyph d="M-2 86q0 176 111 373 147 262 403 447.5T971 1092t203-150q0-100-61.5-223T987 563q-6-2-13-2t-7 4l67 111q70 109 70 190.5t-36 132-114 50.5q-160 0-382-178.5T234.5 432 119 27q0-219 223-220 213 0 578 275 161 121 526 457-72-4-133-15-131-25-123 8 8 76 78 76 135-16 227-16 176 162 526 530 178 188 252 234-33 18-32.5 66t23 97.5 56.5 59.5q35 66 105 66 37 0 62.5-32t25.5-90.5-58.5-117.5-125.5-59q2-6 2-26t-18.5-93.5-41.5-89.5q-47-33-88-89.5t-116.5-211T1937 586l199 4q74 0 74-10 0-27-299-48-190-373-191-507 0-94 60-95 23 0 56.5 28t40.5 28 7-11q-10-37-62.5-61.5t-88-24.5-56.5 5q-49 18-49 118 0 207 158 527l-246-7Q1266 264 989 61 575-240 342-240q-14 0-29 2Q-2-211-2 86zm1579 508h121q43-2 106-2 59 116 297 493zm739 831q0-41 31-41 47 0 82 48.5t35 112-45 63.5q-25 0-60-27l23-12q-2-6-34-54.5t-32-89.5z" horiz-adv-x="2088" unicode="Å"/><glyph d="M-2 86q0 176 111 373 147 262 403 447.5T971 1092t203-150q0-100-61.5-223T987 563q-6-2-13-2t-7 4l67 111q70 109 70 190.5t-36 132-114 50.5q-160 0-382-178.5T234.5 432 119 27q0-219 223-220 213 0 578 275 162 121 526 457-72-4-133-15-131-25-123 8 8 76 78 76 135-16 227-16 176 162 526 530 236 248 287 248 23 0 22.5-39t-14.5-90q229 119 467 119 117 0 187.5-38t70.5-117-58-133-121.5-54-63.5 31q0 18 26 18l41-6q41 0 75 44t34 91q0 70-80 102-51 20-96 20.5t-64-1.5q-174-10-344-123-197-129-197-291 0-59 41-110 131 41 250 41 201 0 201-76 0-16-12-37-49-76-179-76-84 0-171 30t-134 62q-55-16-225-98l-27-53q-127-248-127-432 0-80 31-136 49-86 146-100 37-6 88-6t144 18.5T2417.5 1 2589 113q162 143 161 301 0 125-120 125-145 0-334-156-47-39-80-98.5T2183 168t58-72q20-8 20-20 0-20-41-17-98 2-98 129t129 238q176 152 372 152 88 0 145.5-45.5T2826 399q0-199-211-358-74-55-184-100-166-68-344-68-63 0-123 10-109 18-182 103-82 92-82 247 0 72 26 164 29 96 60 142l-246-7Q1266 264 989 61 575-240 342-240q-14 0-29 2Q-2-211-2 86zm1579 508h121q43-2 106-2 59 116 297 493zm428 121q57 25 149 55-49 53-61 119-82-162-88-174zm264 45q86-70 202-70t116 64q0 29-102.5 29T2269 760z" horiz-adv-x="2867" unicode="Æ"/><glyph d="M63.5 317.5Q63 631 371 954q170 178 403.5 277.5T1217 1331q111 0 192-26 223-70 223-281 0-129-76-223-188-231-448-232-123 0-207 56.5T817 768q0 109 141 217 25 18 37.5 18.5t12.5-8.5q0-20-33-32-115-92-115-187 0-68 61.5-114t153.5-46q201 0 379 193 92 100 92 231t-98 195q-82 57-221 57-201 0-404-100-250-121-451.5-376T170 326q0-186 127-287.5T612-63q215 0 422 104 158 82 273 209 33 37 51 37 12 0 12-21.5t-22-44.5Q1239 106 1034 0 782-133 541-133q-86 0-164 18-29-39-29-86 0-23 59.5-100.5T467-434q0-94-99.5-147.5T162-635q-18 0-19 21 0 12 19 16 98 16 147 23 72 23 72 118 0 29-53.5 105T274-238q0 88 52 140Q64 4 63.5 317.5z" horiz-adv-x="1486" unicode="Ç"/><glyph d="M6 158q0 84 53 168 188 299 643 444-68 78-67.5 166t43.5 147q84 115 252 189 201 88 401 88 117 0 187.5-38t70.5-117-58-133-121.5-54-63.5 31q0 18 26 18l41-6q41 0 75 44t34 91q0 70-80 102-51 20-96.5 20.5t-63.5-1.5q-176-10-344-123-197-129-197-291 0-59 41-110 131 41 250 41 201 0 201-76 0-16-12-37-49-76-179-76-84 0-172 30t-133 62q-190-55-338.5-169.5T176 307q-39-78-39-151 0-115 95.5-186.5T512-102q51 0 106 6 326 35 519 209 162 143 161 301 0 125-120 125-145 0-334-156-47-39-80-98.5T731 168t57-72q20-8 21-20 0-20-41-17-98 2-98 129t129 238q176 152 372 152 147 0 187-93 16-43 16-86 0-190-211-358-252-205-639-205-240 0-379 89T6 158zm811 602q88-70 203-70t115 64q0 29-102.5 29T817 760zm367 881.5q0 25.5 18 25.5 29 0 250-184 8-6 8-15.5t-12-9.5-120.5 65.5-126 79-17.5 39z" horiz-adv-x="1415" unicode="È"/><glyph d="M6 158q0 84 53 168 188 299 643 444-68 78-67.5 166t43.5 147q84 115 252 189 201 88 401 88 117 0 187.5-38t70.5-117-58-133-121.5-54-63.5 31q0 18 26 18l41-6q41 0 75 44t34 91q0 70-80 102-51 20-96.5 20.5t-63.5-1.5q-176-10-344-123-197-129-197-291 0-59 41-110 131 41 250 41 201 0 201-76 0-16-12-37-49-76-179-76-84 0-172 30t-133 62q-190-55-338.5-169.5T176 307q-39-78-39-151 0-115 95.5-186.5T512-102q51 0 106 6 326 35 519 209 162 143 161 301 0 125-120 125-145 0-334-156-47-39-80-98.5T731 168t57-72q20-8 21-20 0-20-41-17-98 2-98 129t129 238q176 152 372 152 147 0 187-93 16-43 16-86 0-190-211-358-252-205-639-205-240 0-379 89T6 158zm811 602q88-70 203-70t115 64q0 29-102.5 29T817 760zm506 729q0 10 8 16l215 166q23 18 35 19 18 0 18-25t-16-41q-18-14-124.5-79.5t-121-65.5-14.5 10z" horiz-adv-x="1415" unicode="É"/><glyph d="M6 158q0 84 53 168 188 299 643 444-68 78-67.5 166t43.5 147q84 115 252 189 201 88 401 88 117 0 187.5-38t70.5-117-58-133-121.5-54-63.5 31q0 18 26 18l41-6q41 0 75 44t34 91q0 70-80 102-51 20-96.5 20.5t-63.5-1.5q-176-10-344-123-197-129-197-291 0-59 41-110 131 41 250 41 201 0 201-76 0-16-12-37-49-76-179-76-84 0-172 30t-133 62q-190-55-338.5-169.5T176 307q-39-78-39-151 0-115 95.5-186.5T512-102q51 0 106 6 326 35 519 209 162 143 161 301 0 125-120 125-145 0-334-156-47-39-80-98.5T731 168t57-72q20-8 21-20 0-20-41-17-98 2-98 129t129 238q176 152 372 152 147 0 187-93 16-43 16-86 0-190-211-358-252-205-639-205-240 0-379 89T6 158zm811 602q88-70 203-70t115 64q0 29-102.5 29T817 760zm365 719q0 6 20 24 156 94 203 135 61 51 74 52 31 0 116.5-95.5t89-106.5 3.5-15q0-20-16.5-20.5t-88.5 65-117 92.5q-12-8-68.5-43t-105.5-68-65-35q-45-12-45 15z" horiz-adv-x="1415" unicode="Ê"/><glyph d="M6 158q0 84 53 168 188 299 643 444-68 78-67.5 166t43.5 147q84 115 252 189 201 88 401 88 117 0 187.5-38t70.5-117-58-133-121.5-54-63.5 31q0 18 26 18l41-6q41 0 75 44t34 91q0 70-80 102-51 20-96.5 20.5t-63.5-1.5q-176-10-344-123-197-129-197-291 0-59 41-110 131 41 250 41 201 0 201-76 0-16-12-37-49-76-179-76-84 0-172 30t-133 62q-190-55-338.5-169.5T176 307q-39-78-39-151 0-115 95.5-186.5T512-102q51 0 106 6 326 35 519 209 162 143 161 301 0 125-120 125-145 0-334-156-47-39-80-98.5T731 168t57-72q20-8 21-20 0-20-41-17-98 2-98 129t129 238q176 152 372 152 147 0 187-93 16-43 16-86 0-190-211-358-252-205-639-205-240 0-379 89T6 158zm811 602q88-70 203-70t115 64q0 29-102.5 29T817 760zm453 756.5q0 23.5 59 66.5 61 43 94 43l7-2q-2 0-29-37l-33-82q-25-55-55-55-14 0-28.5 21.5t-14.5 45zm160 107.5h2v-2q0 2-2 2zm88-107.5q0 23.5 59 66.5 61 43 94 43l6-2q-2 0-28-37l-33-82q-25-55-55-55-14 0-28.5 21.5t-14.5 45zm159 107.5h2v-2z" horiz-adv-x="1415" unicode="Ë"/><glyph d="M43 236q0 311 166 501 139 164 319 164 47 0 97-16 121-47 120.5-200t-125-318.5T365 201q-147 0-148 159 0 45 19.5 94.5T281 504q18 0 18-19 0-10-18.5-51T262 361.5t34-59.5 71-28q121 0 224 148.5T694 713q0 109-78 143-27 10-55 10-145 0-291-200-141-203-141-445 0-133 57-217 59-86 164-86 270 0 705 735-225 68-226 267 0 264 269 421 170 98 329 99 125 0 226-41 141-55 141-168 0-25-11-47.5t-24-22.5q-27 27-63 27-174 0-477-518 16-2 34-2 70 0 139.5 41t69.5 102l-14 55q0 16 16 17 6 0 17-6 47-35 47-92.5t-74-112-186-54.5q-35 0-70 7-141-260-344-480-270-287-492-286-319 0-319 377zm895 644.5Q938 733 1090 705q113 184 291 367t296 183q31 0 54-14-2 57-80 100-70 41-174.5 41t-240.5-60-217-177-81-264.5zm563 783.5q0 26 21 26 25-1 250-185 8-6 8-15t-12.5-9-121 65.5-127 78.5-18.5 39z" horiz-adv-x="1179" unicode="Ì"/><glyph d="M43 236q0 311 166 501 139 164 319 164 47 0 97-16 121-47 120.5-200t-125-318.5T365 201q-147 0-148 159 0 45 19.5 94.5T281 504q18 0 18-19 0-10-18.5-51T262 361.5t34-59.5 71-28q121 0 224 148.5T694 713q0 109-78 143-27 10-55 10-145 0-291-200-141-203-141-445 0-133 57-217 59-86 164-86 270 0 705 735-225 68-226 267 0 264 269 421 170 98 329 99 125 0 226-41 141-55 141-168 0-25-11-47.5t-24-22.5q-27 27-63 27-174 0-477-518 16-2 34-2 70 0 139.5 41t69.5 102l-14 55q0 16 16 17 6 0 17-6 47-35 47-92.5t-74-112-186-54.5q-35 0-70 7-141-260-344-480-270-287-492-286-319 0-319 377zm895 644.5Q938 733 1090 705q113 184 291 367t296 183q31 0 54-14-2 57-80 100-70 41-174.5 41t-240.5-60-217-177-81-264.5zm625 608.5q0 10 8 16l215 166q20 18 36.5 18.5t16.5-24.5-16-41q-18-14-125-79.5t-121-65.5-14 10z" horiz-adv-x="1179" unicode="Í"/><glyph d="M43 236q0 311 166 501 139 164 319 164 47 0 97-16 121-47 120.5-200t-125-318.5T365 201q-147 0-148 159 0 45 19.5 94.5T281 504q18 0 18-19 0-10-18.5-51T262 361.5t34-59.5 71-28q121 0 224 148.5T694 713q0 109-78 143-27 10-55 10-145 0-291-200-141-203-141-445 0-133 57-217 59-86 164-86 270 0 705 735-225 68-226 267 0 264 269 421 170 98 329 99 125 0 226-41 141-55 141-168 0-25-11-47.5t-24-22.5q-27 27-63 27-174 0-477-518 16-2 34-2 70 0 139.5 41t69.5 102l-14 55q0 16 16 17 6 0 17-6 47-35 47-92.5t-74-112-186-54.5q-35 0-70 7-141-260-344-480-270-287-492-286-319 0-319 377zm895 644.5Q938 733 1090 705q113 184 291 367t296 183q31 0 54-14-2 57-80 100-70 41-174.5 41t-240.5-60-217-177-81-264.5zm410 598.5q0 6 20 24 156 94 203 135 61 51 74 52 31 0 116.5-95.5T1850 1488t3-15q0-20-16-20.5t-88 65-117 92.5q-12-8-68.5-43t-105.5-68-65-35q-45-12-45 15z" horiz-adv-x="1179" unicode="Î"/><glyph d="M43 236q0 311 166 501 139 164 319 164 47 0 97-16 121-47 120.5-200t-125-318.5T365 201q-147 0-148 159 0 45 19.5 94.5T281 504q18 0 18-19 0-10-18.5-51T262 361.5t34-59.5 71-28q121 0 224 148.5T694 713q0 109-78 143-27 10-55 10-145 0-291-200-141-203-141-445 0-133 57-217 59-86 164-86 270 0 705 735-225 68-226 267 0 264 269 421 170 98 329 99 125 0 226-41 141-55 141-168 0-25-11-47.5t-24-22.5q-27 27-63 27-174 0-477-518 16-2 34-2 70 0 139.5 41t69.5 102l-14 55q0 16 16 17 6 0 17-6 47-35 47-92.5t-74-112-186-54.5q-35 0-70 7-141-260-344-480-270-287-492-286-319 0-319 377zm895 644.5Q938 733 1090 705q113 184 291 367t296 183q31 0 54-14-2 57-80 100-70 41-174.5 41t-240.5-60-217-177-81-264.5zm453 699.5q0 24 59 67 61 43 94 43l6-2q-2 0-28-37l-33-82q-25-55-55-56-14 0-28.5 21.5T1391 1580zm159 108h2v-2zm88-108q0 24 60 67 61 43 94 43 2 0 6-2-2 0-29-37l-32-82q-25-56-56-56-14 0-28.5 21.5T1638 1580zm160 108h2v-2z" horiz-adv-x="1179" unicode="Ï"/><glyph d="M31 51q0 98 83 295t158 197q39 0 67-153.5T395 166q92 94 256 303-25 0-55 6-66 12-66 43 0 20 17.5 34.5t30 14.5 24.5 2h129l68 88q332 436 440 478 37 14 76 14t64.5-16.5 25.5-40.5q0-35-59-41-72-39-222-189-141-137-256-295 135 0 207 6 2-2 2-6 0-37-264-73Q639 263 434 92 549-78 795-78q27 0 79 4 569 53 807 494 96 176 96.5 348T1653 1077q-100 113-218 139.5t-241 26.5q-315 0-582-145-281-154-280-344 0-51 27.5-84t37.5-37h-12q-53 10-94 53-45 53-45 113 0 205 257 352t603 147q160 0 328-36.5t305-176.5q158-164 157-370 0-154-90-318-156-283-465-413-248-104-534.5-104.5T383 51Q203-88 119-88q-45 0-66.5 44T31 51zm73 8q0-63 25-110 88 39 213 162-59 98-74.5 154.5T246 414Q104 211 104 59zm293 574q2 0 4 2 0-4-1-4t-3 2z" horiz-adv-x="1886" unicode="Ð"/><glyph d="M4 391q0 319 438 672 111 88 288 147.5t321.5 59.5 204-54.5T1315 1065q0-233-283-662 63 80 207 203 510 428 877 563 18 8 41 9 78 0 98-88 10-35-98-146-256-262-434.5-573.5T1544-76q0-33 12.5-46t39-8T1707-88t112 43q10-4 10-10 0-31-107.5-86.5t-161-55.5-67.5 19q-37 51-37 129 0 176 189 506 121 207 372 557-272-25-704-430Q968 258 823 25q-49-76-49-99.5t19-31.5q0-4-34-26t-93.5-22-59.5 31q0 53 202 353t265 415q139 250 139 395 0 57-22 107-35 74-168 74-244 0-518-224-209-172-322-356Q80 467 80 330q0-197 182-201h17q242 0 366 170 49 68 49 115t-22 59q-2 2-2 8t12 6q53 0 53-69 0-43-41-117T545.5 161.5 301 96 84 176 4 391zm1632 1012q0 33 88 84 33 20 69 20t100.5-21.5T2000 1464t79 43q12 0 12-8 0-31-82-86-27-16-60.5-16t-100 27.5T1748 1452t-66.5-26.5-43.5-26.5q-2 2-2 4z" horiz-adv-x="1894" unicode="Ñ"/><glyph d="M49 245.5Q49 403 133 590q106 236 416 459 356 254 737 254 205 0 311.5-80t106.5-199q0-74-57-182 16-56 16-113 0-256-262-489-403-360-903-361-55 0-86 2-164 8-263.5 107.5T49 245.5zM160 207q0-270 272-285 29-2 57-2 403 0 768 326 262 233 283 444-106-117-369-278l-16-4q-2 0-2 2 0 8 55 55l115 94q147 129 215 211-14 115-103 191.5T1231 1073q-57 14-177 18.5t-120 8.5 4 8q94 31 181 31t200-27q215-51 301-209 20 49 20 109.5t-45 124.5q-88 123-311 123-309 0-583.5-191.5T272 586Q159 375 160 207zm1188 1416q0 26 20 26 25-1 250-185 8-6 8-15t-12-9-121 65.5-127 78.5-18 39z" horiz-adv-x="1605" unicode="Ò"/><glyph d="M49 245.5Q49 403 133 590q106 236 416 459 356 254 737 254 205 0 311.5-80t106.5-199q0-74-57-182 16-56 16-113 0-256-262-489-403-360-903-361-55 0-86 2-164 8-263.5 107.5T49 245.5zM160 207q0-270 272-285 29-2 57-2 403 0 768 326 262 233 283 444-106-117-369-278l-16-4q-2 0-2 2 0 8 55 55l115 94q147 129 215 211-14 115-103 191.5T1231 1073q-57 14-177 18.5t-120 8.5 4 8q94 31 181 31t200-27q215-51 301-209 20 49 20 109.5t-45 124.5q-88 123-311 123-309 0-583.5-191.5T272 586Q159 375 160 207zm1204 1241q0 10 8 16l215 166q23 18 35 19 18 0 18-25t-16-41q-18-14-124.5-79.5t-121-65.5-14.5 10z" horiz-adv-x="1605" unicode="Ó"/><glyph d="M49 245.5Q49 403 133 590q106 236 416 459 356 254 737 254 205 0 311.5-80t106.5-199q0-74-57-182 16-56 16-113 0-256-262-489-403-360-903-361-55 0-86 2-164 8-263.5 107.5T49 245.5zM160 207q0-270 272-285 29-2 57-2 403 0 768 326 262 233 283 444-106-117-369-278l-16-4q-2 0-2 2 0 8 55 55l115 94q147 129 215 211-14 115-103 191.5T1231 1073q-57 14-177 18.5t-120 8.5 4 8q94 31 181 31t200-27q215-51 301-209 20 49 20 109.5t-45 124.5q-88 123-311 123-309 0-583.5-191.5T272 586Q159 375 160 207zm1007 1206q0 8 23 27 223 137 319 219l15 6q25-2 123-106 86-98 86-122t-19-24q-23 0-89 57.5T1509 1581q-12-8-68.5-43t-128-82-134.5-51q-10 2-11 8z" horiz-adv-x="1605" unicode="Ô"/><glyph d="M49 245.5Q49 403 133 590q106 236 416 459 356 254 737 254 205 0 311.5-80t106.5-199q0-74-57-182 16-56 16-113 0-256-262-489-403-360-903-361-55 0-86 2-164 8-263.5 107.5T49 245.5zM160 207q0-270 272-285 29-2 57-2 403 0 768 326 262 233 283 444-106-117-369-278l-16-4q-2 0-2 2 0 8 55 55l115 94q147 129 215 211-14 115-103 191.5T1231 1073q-57 14-177 18.5t-120 8.5 4 8q94 31 181 31t200-27q215-51 301-209 20 49 20 109.5t-45 124.5q-88 123-311 123-309 0-583.5-191.5T272 586Q159 375 160 207zm1110 1196q0 33 88 84 33 20 68.5 20t100-21.5T1633 1464t79 43q12 0 12-8 0-31-82-86-27-16-60.5-16t-100 27.5-100 27.5-66.5-26.5-43-26.5q-2 2-2 4z" horiz-adv-x="1605" unicode="Õ"/><glyph d="M49 245.5Q49 403 133 590q106 236 416 459 356 254 737 254 205 0 311.5-80t106.5-199q0-74-57-182 16-56 16-113 0-256-262-489-403-360-903-361-55 0-86 2-164 8-263.5 107.5T49 245.5zM160 207q0-270 272-285 29-2 57-2 403 0 768 326 262 233 283 444-106-117-369-278l-16-4q-2 0-2 2 0 8 55 55l115 94q147 129 215 211-14 115-103 191.5T1231 1073q-57 14-177 18.5t-120 8.5 4 8q94 31 181 31t200-27q215-51 301-209 20 49 20 109.5t-45 124.5q-88 123-311 123-309 0-583.5-191.5T272 586Q159 375 160 207zm1102 1299.5q0 23.5 59 66.5 61 43 94 43 2 0 6-2-2 0-28-37l-33-82q-24-55-55-55-14 0-28.5 21.5t-14.5 45zm159 107.5h2v-2zm88-107.5q0 23.5 60 66.5 61 43 94 43l6-2q-2 0-29-37l-32-82q-25-55-56-55-14 0-28.5 21.5t-14.5 45zm160 107.5h2v-2z" horiz-adv-x="1605" unicode="Ö"/><glyph d="M43 166q10 20 105.5 110.5T268 383l-20 115q-12 47-30.5 69.5t-30 25.5-11.5 7q0 12 80 12l27 2q20 0 27-23.5T338 424q25 25 126 106.5T569 612q27 0 27-24 0-6-8-15L344 387q31-186 121-186 10 0 57 14 6 0 6-4 0-14-51-32.5T389 160t-62.5 41T276 346q-16-20-106-105T61.5 156 43 166z" horiz-adv-x="581" unicode="×"/><glyph d="M49 246.5Q49 403 133 590q106 236 416 459 356 254 737 254 47 0 68-3 110 130 132.5 130t36-13.5 13.5-28-18-36.5l-60-68q86-23 141-63 104-78 105-197 0-74-57-182 16-55 16-113 0-256-262-489-403-360-903-361h-45q-4-14-4-48t15-41 7-23q-14-20-43-21-35 0-35 49t8 88Q241-107 145-8.5t-96 255zM160 207q0-258 252-283 4 18 26 80 63 174 535 807 170 223 207 270-39 6-142.5 10.5T934 1100t4 8q94 31 162.5 31t118.5-9q20 29 56 73t44 54q-10 2-35 3-309 0-583.5-191.5T272 586Q159 375 160 207zM467-78h25q403 0 765 324 262 233 283 444-106-117-369-278l-16-4q-2 0-2 2 0 8 55 55l115 94q147 129 215 211-14 115-111 197-68 59-155 92-135-168-361-467Q544 105 467-78zm850 1190h2q215-51 301-209 20 49 20 109.5t-51 132.5-164 98q-14-16-108-131z" horiz-adv-x="1605" unicode="Ø"/><glyph d="M29 381q0 322 606 756 123 84 291 150.5t305 66.5q70 0 134.5-27t64.5-89-73-178-227.5-326-262-392T760 88q0-35 28-35 55 0 207 115 360 274 848 891 78 98 125 98 18 0 19-18 0-8-7-21 2-6 2-12 0-43-49-117l-241-342q-147-213-260-403.5T1327 20l37 13q102 57 178 133 27 20 33 20l4-4q0-18-55-78-143-125-205-124.5t-62 39T1367 260t351 559q-41-49-129-145-504-516-604-596Q836-39 707-39q-88 0-89 62 0 106 271.5 488T1219 981q125 193 124 262 0 35-26 43-49 20-115 21-225 0-575-240-229-160-380-374T96 340q0-100 82-115 33-6 66-6 104 0 215 68 55 33 139 108l37 13q-39-74-163-150t-255-76q-31 0-72 8.5T66.5 249 29 381zm1476 1111q0 26 21 26 31 0 250-185 8-6 8-12 0-12-12.5-12t-112.5 60.5-127 78.5-27 44z" horiz-adv-x="1640" unicode="Ù"/><glyph d="M29 381q0 322 606 756 123 84 291 150.5t305 66.5q70 0 134.5-27t64.5-89-73-178-227.5-326-262-392T760 88q0-35 28-35 55 0 207 115 360 274 848 891 78 98 125 98 18 0 19-18 0-8-7-21 2-6 2-12 0-43-49-117l-241-342q-147-213-260-403.5T1327 20l37 13q102 57 178 133 27 20 33 20l4-4q0-18-55-78-143-125-205-124.5t-62 39T1367 260t351 559q-41-49-129-145-504-516-604-596Q836-39 707-39q-88 0-89 62 0 106 271.5 488T1219 981q125 193 124 262 0 35-26 43-49 20-115 21-225 0-575-240-229-160-380-374T96 340q0-100 82-115 33-6 66-6 104 0 215 68 55 33 139 108l37 13q-39-74-163-150t-255-76q-31 0-72 8.5T66.5 249 29 381zm1593 899q0 6 6 12l215 166q20 18 36.5 18.5t16.5-23-20.5-43-123.5-82-116.5-62.5-13.5 14z" horiz-adv-x="1640" unicode="Ú"/><glyph d="M29 381q0 322 606 756 123 88 291 152.5t305 64.5q70 0 134.5-27t64.5-89-73-178-227.5-326-262-392T760 88q0-35 28-35 55 0 207 115 360 274 848 891 78 98 125 98 18 0 19-18 0-8-7-21 2-6 2-12 0-43-49-117l-241-342q-147-213-260-403.5T1327 20l37 13q102 57 178 133 27 20 33 20l4-4q0-18-55-78-143-125-205-124.5t-62 39T1367 260t351 559q-41-49-129-145-504-516-604-596Q836-39 707-39q-88 0-89 62 0 106 271.5 488T1219 981q125 193 124 262 0 35-26 43-49 20-115 21-225 0-575-240-229-160-380-374T96 340q0-100 82-115 33-6 66-6 104 0 215 68 55 33 139 108l37 13q-39-74-163-150t-255-76q-31 0-72 8.5T66.5 249 29 381zm1521 1020q0 6 21 24 156 94 203 136 61 51 73 51 31 0 117-95.5t89-106.5 3-15q0-20-16.5-20.5t-88 65T1835 1532q-12-8-68.5-43t-106-68-65.5-35q-45-12-45 15z" horiz-adv-x="1640" unicode="Û"/><glyph d="M29 381q0 322 606 756 123 88 291 152.5t305 64.5q70 0 134.5-27t64.5-89-73-178-227.5-326-262-392T760 88q0-35 28-35 55 0 207 115 360 274 848 891 78 98 125 98 18 0 19-18 0-8-7-21 2-6 2-12 0-43-49-117l-241-342q-147-213-260-403.5T1327 20l37 13q102 57 178 133 27 20 33 20l4-4q0-18-55-78-143-125-205-124.5t-62 39T1367 260t351 559q-41-49-129-145-504-516-604-596Q836-39 707-39q-88 0-89 62 0 106 271.5 488T1219 981q125 193 124 262 0 35-26 43-49 20-115 21-225 0-575-240-229-160-380-374T96 340q0-100 82-115 33-6 66-6 104 0 215 68 55 33 139 108l37 13q-39-74-163-150t-255-76q-31 0-72 8.5T66.5 249 29 381zm1532 998.5q0 23.5 59 66.5 61 43 94 43 2 0 6-2-2 0-28-37l-33-82q-24-55-55-55-14 0-28.5 21.5t-14.5 45zm159 107.5h2v-2q0 2-2 2zm88-107.5q0 23.5 60 66.5 61 43 94 43l6-2q-2 0-29-37l-32-82q-25-55-56-55-14 0-28.5 21.5t-14.5 45zm160 107.5h2v-2q0 2-2 2z" horiz-adv-x="1640" unicode="Ü"/><glyph d="M29 561q0 279 407 569 119 86 313.5 156t314.5 70 182.5-38 62.5-121-115-258-363-476q-51-59-94-154.5t-43-152 44-56.5 132 64q250 178 499 432t366 426q84 121 178 121 33 0 33-21 0-4-4-16-258-451-703-1196-131-215-279.5-322.5T688-520q-78 0-152.5 55T461-342q0 43 43 43 10 0 31-4 25-86 40-117 35-55 119-55 252 0 619 688l368 657q-395-422-560-586.5T895 82Q772 8 692 8 575 8 575 145q0 164 140 338 10 12 87 105.5T982 811t172 249 69 168-29 62q-59 31-135 31-217 0-600-262-160-109-254-252t-94-264 116-152q37-10 72-10 104 0 231 90 150 100 168 107-20-76-161-166-156-96-291-97-18 0-68.5 7.5t-99.5 75T29 561zm1511 786.5q0 10.5 8 16.5l215 166q23 18 35 18 18 0 18.5-24.5T1800 1483q-18-14-124.5-80t-121-66-14.5 10.5z" horiz-adv-x="1806" unicode="Ý"/><glyph d="M-109-377q0 102 150 332l709 1079q82 135 92 178 12 43-25 43l-76-14q-12 0-10 12 10 31 85 31t105.5-22.5 30.5-45-5-43-57-103.5-127-205-99-156q20 18 81 36 78 20 111 21 74 0 128-42t54-122-48-173-144-169Q701 147 520 147q-92 0-130 11.5T313 209Q-43-313-43-403q0-25 27-25l69 22q6 0 2-4-4-14-34.5-27.5T-27-451q-82 0-82 74zm447 621q43-39 156-39 158 0 270 88 170 135 170 338 0 78-92 78t-168-39q-29-14-90-76-213-301-246-350z" horiz-adv-x="337" unicode="Þ"/><glyph d="M-905-492q0 68 43 142l31 28q6 12 24 13l2-2q-55-70-55-139.5t51-111.5 149.5-42 178.5 63q170 129 324.5 356.5T94 254q319 692 450.5 899T838 1360q137 0 206.5-51.5T1114 1108q0-109-67.5-170T842 831q-57-20-89-34.5t-68-51-36-86.5q0-80 144-120 229-47 282-84 74-55 74-127 0-109-106.5-199T811-1 580-41q-10 0-97 14 14-8 77-33.5T638-90t15-8q0-8-20.5-8t-87 29.5T449-23q-88 12-125 48-29 23-50.5 63.5T252 167t25.5 70.5T342 270q35 0 41-59 8-59 17.5-92T420 52t35-56q45-10 90-10 205 0 399 155 92 74 92 153T932 399l-221 56q-66 18-107 61t-41 96q0 90 72 154.5T804 862t156.5 99.5T1020 1117t-46 141.5-125 54.5-166-108.5T510 922 330 539 126 120t-227.5-384-266-282.5T-672-655q-109 0-171 47t-62 116zM289 175q0-71 55-126 29-29 74-43-51 51-76 187-10 53-16 53-37 0-37-71z" horiz-adv-x="1189" unicode="ß"/><glyph d="M-18 133q0 150 208.5 357.5T573 698q68 0 91-47 6-16 10-27.5t6-11.5l29 6q23 0 43-19t20-28.5-127-197T518 113q0-6 2-13 10-47 45-47 106 0 389 353 6 8 14.5 8t8.5-15.5-19-40.5Q696 8 559 8q-18 0-35 6-90 35-90 136 0 35 8 69L313 96Q194-10 140-10T37 25q-55 41-55 108zm86-24q0-74 51-74 117 0 321 260 201 272 219 299-16 29-53 29-125 0-331.5-193.5T68 109zm397 844.5q0 21.5 15.5 21.5T586 906.5t99-79 9-14.5q0-12-10-12-14 0-95 49t-110 74q-14 8-14 29.5z" horiz-adv-x="843" unicode="à"/><glyph d="M-18 133q0 150 208.5 357.5T573 698q68 0 91-47 6-16 10-27.5t6-11.5l29 6q23 0 43-19t20-28.5-127-197T518 113q0-6 2-13 10-47 45-47 106 0 389 353 6 8 14.5 8t8.5-15.5-19-40.5Q696 8 559 8q-18 0-35 6-90 35-90 136 0 35 8 69L313 96Q194-10 140-10T37 25q-55 41-55 108zm86-24q0-74 51-74 117 0 321 260 201 272 219 299-16 29-53 29-125 0-331.5-193.5T68 109zm505 757q0 6 7 13l217 168q23 18 34 18 18 0 18.5-25T834 999q-18-14-127-79.5T585.5 854 573 866z" horiz-adv-x="843" unicode="á"/><glyph d="M-18 133q0 150 208.5 357.5T573 698q68 0 91-47 6-16 10-27.5t6-11.5l29 6q23 0 43-19t20-28.5-127-197T518 113q0-6 2-13 10-47 45-47 106 0 389 353 6 8 14.5 8t8.5-15.5-19-40.5Q696 8 559 8q-18 0-35 6-90 35-90 136 0 35 8 69L313 96Q194-10 140-10T37 25q-55 41-55 108zm86-24q0-74 51-74 117 0 321 260 201 272 219 299-16 29-53 29-125 0-331.5-193.5T68 109zm464.5 679.5Q532 801 602 858t88 62l8-2q47-53 146-125l6-13-6-8q-23 0-84.5 39T674 874q-117-98-133-98-8 0-8.5 12.5z" horiz-adv-x="843" unicode="â"/><glyph d="M-18 133q0 150 208.5 357.5T573 698q68 0 91-47 6-16 10-27.5t6-11.5l29 6q23 0 43-19t20-28.5-127-197T518 113q0-6 2-13 10-47 45-47 106 0 389 353 6 8 14.5 8t8.5-15.5-19-40.5Q696 8 559 8q-18 0-35 6-90 35-90 136 0 35 8 69L313 96Q194-10 140-10T37 25q-55 41-55 108zm86-24q0-74 51-74 117 0 321 260 201 272 219 299-16 29-53 29-125 0-331.5-193.5T68 109zm471 722q0 27 63 60 26 14 55 14l142-31q37 0 61 31 4 2 7 2t3-6q0-20-38.5-47T769 827t-73 19q-43 20-68.5 20T541 827q-2 2-2 4z" horiz-adv-x="843" unicode="ã"/><glyph d="M-18 133q0 150 208.5 357.5T573 698q68 0 91-47 6-16 10-27.5t6-11.5l29 6q23 0 43-19t20-28.5-127-197T518 113q0-6 2-13 10-47 45-47 106 0 389 353 6 8 14.5 8t8.5-15.5-19-40.5Q696 8 559 8q-18 0-35 6-90 35-90 136 0 35 8 69L313 96Q194-10 140-10T37 25q-55 41-55 108zm86-24q0-74 51-74 117 0 321 260 201 272 219 299-16 29-53 29-125 0-331.5-193.5T68 109zm473 753q0 27 51 61.5t64.5 34.5 15.5-2v-2l-23-28-28-66q-19-45-46-45-12 0-23 17.5T541 862zm200 0q0 27 51.5 61.5T857 958t15-2v2q2-2 2-4-12-16-24-28l-29-66q-18-45-43-45-12 0-24.5 17.5T741 862z" horiz-adv-x="843" unicode="ä"/><glyph d="M-18 137q0 150 196 342 217 217 389 219-10 20-10 54t22.5 83.5T637 895q35 66 104 66 37 0 62.5-32t25.5-87.5T778 728t-119-66q4-6 9-19 6-31 12-31l29 6q23 0 43-18t20-28.5-127-198T518 113q0-6 2-13 10-47 45-47 106 0 389 353 6 8 14.5 8t8.5-15.5-19-40.5Q696 8 559 8q-18 0-35 6-90 35-90 136 0 35 8 69L315 96Q194-10 140-10T37 25q-55 41-55 112zm86-28q0-74 51-74 119 0 323 260l217 299q-16 29-53 29-125 0-331.5-193.5T68 109zm565 632q0-41 31-41 47 0 81.5 48.5t34.5 112-45 63.5q-20 0-59-29l22-10q-2-6-33.5-54.5T633 741z" horiz-adv-x="843" unicode="å"/><glyph d="M27 49q0 86 84 213 115 166 225 166 57 0 86-41 53 47 108 47 43 0 43-51t-75.5-122T362 168q-12-41-12-72 0-68 62-67 119 0 245 145 16 16 23.5 16t7.5-6-2-10q-39-63-130-122.5T405.5-8 324 14q-14 29-35 60-8 41-8 70.5t2 50.5Q168-8 80-8 27-8 27 49zm57 29q0-35 27-35 55 0 137 137 61 98 98 191-4 2-16 2-72 0-159-108.5T84 78zm289 125q49 23 99 72t50 92q0 18-20 18-27 0-72-72.5T373 203z" horiz-adv-x="577" unicode="æ"/><glyph d="M-160-551q0 10 19 16 98 16 147 23 72 23 72 119 0 27-53.5 103.5T-29-164t26 96.5T68-2q-84 41-84 129 0 143 180 331.5T487 647q47 0 77-25.5t30-69.5-26.5-92-80-48-53.5 32q0 23 27.5 69t27.5 49-6 3q-57-6-156.5-81.5T190 356l-79-116q-20-33-29.5-78T72 94.5 97.5 43 170 14q102 0 253.5 120T657 362q10 12 24.5 12.5t14.5-8-10-20.5Q573 196 416.5 84.5T156-27q-29 0-37 4.5T109-18Q43-51 43-139q0-23 60.5-100T164-371q0-96-99.5-149T-141-573q-18 0-19 22z" horiz-adv-x="579" unicode="ç"/><glyph d="M-68 127q0 143 180.5 331.5T436 647q47 0 77-25.5t30-62.5q0-115-173-219T88 236q-16 0-29 4-31-55-30-117Q29 17 130 16.5T393 154q121 96 213 215 18 25 31.5 24.5T651 381t-16-35Q520 196 366.5 84.5T104-27q-23 0-41 7Q-68 17-68 127zM90 285q12-4 27-4 78 0 208 82.5T487 545q5 10 5 18 0 25-52.5 25T291 508Q162 402 90 285zm219.5 602.5q-.5 21.5 14 21.5t48.5-24.5T535 756q6-7 6-11 0-10-9-10-16 0-208 119-14 12-14.5 33.5z" horiz-adv-x="526" unicode="è"/><glyph d="M-68 127q0 143 180.5 331.5T436 647q47 0 77-25.5t30-62.5q0-115-173-219T88 236q-16 0-29 4-31-55-30-117Q29 17 130 16.5T393 154q121 96 213 215 18 25 31.5 24.5T651 381t-16-35Q520 196 366.5 84.5T104-27q-23 0-41 7Q-68 17-68 127zM90 285q12-4 27-4 78 0 208 82.5T487 545q5 10 5 18 0 25-52.5 25T291 508Q162 402 90 285zm363 481q0 6 6 12 102 78 215 168 23 16 35 17 20 0 20-26t-20-40q-20-18-126-80.5T465 754t-12 12z" horiz-adv-x="526" unicode="é"/><glyph d="M-68 127q0 143 180.5 331.5T436 647q47 0 77-25.5t30-62.5q0-115-173-219T88 236q-16 0-29 4-31-55-30-117Q29 17 130 16.5T393 154q121 96 213 215 18 25 31.5 24.5T651 381t-16-35Q520 196 366.5 84.5T104-27q-23 0-41 7Q-68 17-68 127zM90 285q12-4 27-4 78 0 208 82.5T487 545q5 10 5 18 0 25-52.5 25T291 508Q162 402 90 285zm260 448q0 12 69.5 69.5T508 864l8-4q47-51 146-125l6-10-6-10q-27 4-88.5 43T492 817q-119-96-130.5-96T350 733z" horiz-adv-x="526" unicode="ê"/><glyph d="M-68 127q0 143 180.5 331.5T436 647q47 0 77-25.5t30-62.5q0-115-173-219T88 236q-16 0-29 4-31-55-30-117Q29 17 130 16.5T393 154q121 96 213 215 18 25 31.5 24.5T651 381t-16-35Q520 196 366.5 84.5T104-27q-23 0-41 7Q-68 17-68 127zM90 285q12-4 27-4 78 0 208 82.5T487 545q5 10 5 18 0 25-52.5 25T291 508Q162 402 90 285zm295 472.5q0 20.5 49 53.5 49 37 76 37 4 0 6-2v-2q-12-16-24-29-16-45-31.5-79T420 702q-12 0-23.5 17.5t-11.5 38zm201 0q0 20.5 51 55.5t76 35q2 0 6-4l-25-29-28-67q-18-46-45-46-12 0-23.5 17.5t-11.5 38z" horiz-adv-x="526" unicode="ë"/><glyph d="M-31 113q0 111 121 306t195 197q20 0 45.5-16t25.5-33q-10-14-24.5-31.5t-30.5-38-45-58.5-55-72Q47 168 47 94t55-74q74 0 204 109t190 174q14 20 26 21 8 0 8-13 0-61-186-198.5T90-25Q-31-25-31 113zm234 770.5q0 19.5 15 19.5t100-64.5 100.5-79T434 737t-11-8-98.5 51.5T219 848q-16 16-16 35.5z" unicode="ì"/><glyph d="M-31 113q0 111 121 306t195 197q20 0 45.5-16t25.5-33q-10-14-24.5-31.5t-30.5-38-45-58.5-55-72Q47 168 47 94t55-74q74 0 204 109t190 174q14 20 26 21 8 0 8-13 0-61-186-198.5T90-25Q-31-25-31 113zm357 577q0 8 6 15l217 169q20 18 33 19 20 0 20-25t-16-41q-23-16-128.5-80.5T339 682t-13 8z" unicode="í"/><glyph d="M-31 113q0 111 121 306t195 197q20 0 45.5-16t25.5-33q-10-14-24.5-31.5t-30.5-38-45-58.5-55-72Q47 168 47 94t55-74q74 0 204 109t190 174q14 20 26 21 8 0 8-13 0-61-186-198.5T90-25Q-31-25-31 113zm250 608q0 12 69.5 69.5T377 852l6-2q39-43 145-127l7-10-5-8q-25 0-83 36.5T360 807q-119-98-130-98t-11 12z" unicode="î"/><glyph d="M-31 113q0 111 121 306t195 197q20 0 45.5-16t25.5-33q-10-14-24.5-31.5t-30.5-38-45-58.5-55-72Q47 168 47 94t55-74q74 0 204 109t190 174q14 20 26 21 8 0 8-13 0-61-186-198.5T90-25Q-31-25-31 113zm250 673.5q0 20.5 49 53.5 49 37 76 37 4 0 6-3v-2q-12-16-24-28-10-23-27-68-20-45-45-45-12 0-23.5 17.5t-11.5 38zm201 0q0 20.5 49 53.5 49 37 76 37 4 0 6-3v-2l-23-28-28-68q-18-45-45-45-12 0-23.5 17.5t-11.5 38z" unicode="ï"/><glyph d="M20 180q0 63 29 158 55 143 205 321 72 88 147.5 127t137 39T645 791q2 12 2 28 0 102-88 336-141-25-181-25t-57.5 7.5T309 1165q0 23 47 36t181 24q-25 59-77 150t-49 109.5 19 30 27.5 11.5 21.5-4q63-20 162-287 164 14 205 14 55 0 55-8-6-31-242-72 63-199 64-399 0-106-23.5-237.5T585 264 367 57Q281 8 201 8 21 8 20 180zm107-30q0-92 86-93 51 0 131 46.5T512 270q102 145 119 314 6 27 6 47 0 61-49 78l-19 4q-8 10-32 10-51 0-133-83T252 451Q127 261 127 150z" horiz-adv-x="776" unicode="ð"/><glyph d="M-72 182q0 10 50.5 60.5T169 470t161 177q55 0 55-43 0-12-6-24-184-256-221-387 477 477 579 477 10 2 19 2 57 0 57-51 0-10-4-21t-82-111Q512 235 512 121q0-66 29-66 47 0 144 81t169 167q16 16 24.5 16t8.5-11-48-75.5T696.5 82 545-4Q422-4 422 135q0 82 82 225l131 213Q496 471 387.5 349t-198-236.5T86-2Q55-2 37.5 23.5T20 70q0 59 125 303-23-35-165-172-25-25-38.5-25t-13.5 6zm488 609q0 33 88 83 33 20 68.5 20.5t100-21T779 852t79 43q2 2 6 2t4-10q0-31-80-86-27-16-60.5-16.5t-100 27.5-100 28-66.5-27-43-27q-2 2-2 5z" horiz-adv-x="825" unicode="ñ"/><glyph d="M-20 137q0 123 179 345.5T449 705q104 0 104-111 0-29-10-74 2-6 38.5-6T694 553q-2-35-162-100 3-9 3-19 0-72-138-239Q235-4 121-4H88Q35-4 4 51q-25 39-24 86zm96-2q0-78 49-78 88 0 223 160t135 229q-33 19-82 95-70 0-197.5-164T76 135zm270 816q0 20 15.5 20T468 900t100.5-80 9.5-16-10.5-7-97.5 51-108 67q-16 16-16 36z" horiz-adv-x="575" unicode="ò"/><glyph d="M-20 137q0 123 179 345.5T449 705q104 0 104-111 0-29-10-74 2-6 38.5-6T694 553q-2-35-162-100 3-9 3-19 0-72-138-239Q235-4 121-4H88Q35-4 4 51q-25 39-24 86zm96-2q0-78 49-78 88 0 223 160t135 229q-33 19-82 95-70 0-197.5-164T76 135zm446 672q0 6 6 12 102 78 215 168 23 16 35 17 20 0 20.5-26T778 938q-20-18-125.5-80.5t-118-62.5-12.5 12z" horiz-adv-x="575" unicode="ó"/><glyph d="M-20 137q0 123 179 345.5T449 705q104 0 104-111 0-29-10-74 2-6 38.5-6T694 553q-2-35-162-100 3-9 3-19 0-72-138-239Q235-4 121-4H88Q35-4 4 51q-25 39-24 86zm96-2q0-78 49-78 88 0 223 160t135 229q-33 19-82 95-70 0-197.5-164T76 135zm311 653.5q0 12.5 69.5 69.5t88.5 62l8-2q45-51 145-127l7-11-7-8q-23 0-84 38.5T528 874q-117-98-129-98t-12 12.5z" horiz-adv-x="575" unicode="ô"/><glyph d="M-20 137q0 123 179 345.5T449 705q104 0 104-111 0-29-10-74 2-6 38.5-6T694 553q-2-35-162-100 3-9 3-19 0-72-138-239Q235-4 121-4H88Q35-4 4 51q-25 39-24 86zm96-2q0-78 49-78 88 0 223 160t135 229q-33 19-82 95-70 0-197.5-164T76 135zm264 696q0 33 88 84 33 20 68.5 20.5t100.5-21T706 893t76 43q13 0 13-8 0-31-82-86-27-16-59.5-16.5t-96 26.5T456 879t-71-27q-45-37-45-21z" horiz-adv-x="575" unicode="õ"/><glyph d="M-20 137q0 123 179 345.5T449 705q104 0 104-111 0-29-10-74 2-6 38.5-6T694 553q-2-35-162-100 3-9 3-19 0-72-138-239Q235-4 121-4H88Q35-4 4 51q-25 39-24 86zm96-2q0-78 49-78 88 0 223 160t135 229q-33 19-82 95-70 0-197.5-164T76 135zm356 721q0 29 51.5 62.5T548 952t15-2v-2l-22-28-29-66q-18-45-45-45-12 0-23.5 17.5T432 856zm201 0q0 29 51 62.5t64.5 33.5 15.5-2v2q2-2 2-4-12-16-25-28l-28-66q-18-45-43-45-12 0-24.5 17.5T633 856z" horiz-adv-x="575" unicode="ö"/><glyph d="M39 481q0 20 17.5 34.5T88 530h31l51 2h260l213-2q117 0 168 7 2-4 2-9.5T799 512q-35-20-134.5-36.5t-180.5-30T355 432t-136 6Q39 450 39 481zm252-194q0 59 78 59 30 0 58-20.5t28-46-26-45-56.5-19.5-56 20.5T291 287zm94 409q0 59 78 60 31 0 58.5-20.5t27.5-46-25.5-45T467 625t-56.5 20.5T385 696z" horiz-adv-x="831" unicode="÷"/><glyph d="M-82-287q0 127 115 301-53 53-53 123 0 123 179 345.5T449 705q41 0 65-19 211 272 242 272 18 0 28.5-10t10.5-21.5-63.5-84T551 623l2-29q0-29-10-74 2-6 38.5-6T694 553q-2-35-162-100 2-8 3-19 0-72-138-239Q235-4 121-4H86Q-41-197-41-262q0-29 18-39 6-4-2-17.5T-57.5-332-82-287zM76 127q0-20 4-37 59 90 321 449v2q-70 0-197.5-164T76 127zm51-70q86 2 221 160.5T483 446q-20 10-41 37Q196 157 127 57z" horiz-adv-x="575" unicode="ø"/><glyph d="M-29 230.5Q-29 242-8 262l270 318q55 61 109.5 61t54.5-37q0-14-12-26-82-76-206-252T84 66q0-37 25-37 39 0 139 77l110 93q33 25 209 250 160 199 209 198 74 0 74-57 0-20-86-119-117-141-178.5-230T524 96.5 555 41q14 0 33 8 147 66 338 283 12 14 24.5 14t12.5-10q0-41-207-223Q622-2 573-12q-10-2-43.5-2T462 12.5 428 81t15.5 93 21.5 78L285 72Q179-22 95.5-22.5T4 82v12q0 84 100 228L4 231q-12-12-22.5-12T-29 230.5zm465 680q0 21.5 17 21.5 24 0 206-154 6-6 6.5-14t-9-8-96.5 53-105.5 66.5-18.5 35z" horiz-adv-x="870" unicode="ù"/><glyph d="M-29 230.5Q-29 242-8 262l270 318q55 61 109.5 61t54.5-37q0-14-12-26-82-76-206-252T84 66q0-37 25-37 39 0 139 77l110 93q33 25 209 250 160 199 209 198 74 0 74-57 0-20-86-119-117-141-178.5-230T524 96.5 555 41q14 0 33 8 147 66 338 283 12 14 24.5 14t12.5-10q0-41-207-223Q622-2 573-12q-10-2-43.5-2T462 12.5 428 81t15.5 93 21.5 78L285 72Q179-22 95.5-22.5T4 82v12q0 84 100 228L4 231q-12-12-22.5-12T-29 230.5zM541 758q0 10 6 16 63 45 217 166 23 18 35 18 18 0 18-24.5T801 893q-18-14-125-79.5T555 748t-14 10z" horiz-adv-x="870" unicode="ú"/><glyph d="M-29 230.5Q-29 242-8 262l270 318q55 61 109.5 61t54.5-37q0-14-12-26-82-76-206-252T84 66q0-37 25-37 39 0 139 77l110 93q33 25 209 250 160 199 209 198 74 0 74-57 0-20-86-119-117-141-178.5-230T524 96.5 555 41q14 0 33 8 147 66 338 283 12 14 24.5 14t12.5-10q0-41-207-223Q622-2 573-12q-10-2-43.5-2T462 12.5 428 81t15.5 93 21.5 78L285 72Q179-22 95.5-22.5T4 82v12q0 84 100 228L4 231q-12-12-22.5-12T-29 230.5zm539 560q0 12.5 69.5 70T668 922l8-2q47-53 145-125l6-13-6-8q-23 0-81 36t-89 67q-119-99-133-99-8 0-8 12.5z" horiz-adv-x="870" unicode="û"/><glyph d="M-29 230.5Q-29 242-8 262l270 318q55 61 109.5 61t54.5-37q0-14-12-26-82-76-206-252T84 66q0-37 25-37 39 0 139 77l110 93q33 25 209 250 160 199 209 198 74 0 74-57 0-20-86-119-117-141-178.5-230T524 96.5 555 41q14 0 33 8 147 66 338 283 12 14 24.5 14t12.5-10q0-41-207-223Q622-2 573-12q-10-2-43.5-2T462 12.5 428 81t15.5 93 21.5 78L285 72Q179-22 95.5-22.5T4 82v12q0 84 100 228L4 231q-12-12-22.5-12T-29 230.5zm547 591q0 18.5 50 54t77 35.5q2 0 4-2v2q2-2 2-4-12-16-24-28l-29-66q-18-45-43-45-12 0-24.5 17.5t-12.5 36zm203 0q0 18.5 49 54t64.5 35.5 17.5-2v-2q-12-16-25-28l-26-66q-20-45-45-45-12 0-23.5 17.5t-11.5 36z" horiz-adv-x="870" unicode="ü"/><glyph d="M-115-238q98-123 170-122 117 0 252 186 98 137 193 346l78 188-302-235Q137 16 53 16 8 16-18.5 47T-45 117q0 88 151.5 289.5t221 201.5 69.5-47q0-18-181-211.5T35 88q0-27 35-27 66 0 263 154t298 254q23 27 63 80 39 45 86 45t47-45q0-8-92-145.5T639 258q-63-123-195-358Q245-419 47-420q-66 0-115 56t-47 126zm678 934.5q0 10.5 8 16.5l215 166q20 18 37 18t17-24.5-17-41.5q-18-14-124.5-79.5t-121-65.5-14.5 10.5z" horiz-adv-x="757" unicode="ý"/><glyph d="M-162-465.5q0 19.5 4 31.5 35 131 135 293l609 903q82 135 92 178 12 43-25 43l-75-14q-12 0-11 12 10 31 85 31t105.5-22.5 30.5-45-5-43T706.5 767 569 561q20 18 82 37 78 20 111 20 74 0 128-41.5T944 463q0-166-189.5-314.5T426 0q-92 0-130 11.5T219 61q-326-477-325-561 0-25 26-24l70 22q6 0 2-4-4-14-35-27.5t-57.5-13.5-44 31-17.5 50.5zM244 96q43-39 155.5-39T676 185t164 298q0 78-92.5 78T580 522q-29-14-91-76Q276 145 244 96z" horiz-adv-x="555" unicode="þ"/><glyph d="M-115-238q98-123 170-122 117 0 252 186 98 137 193 346l78 188-302-235Q137 16 53 16 8 16-18.5 47T-45 117q0 88 151.5 289.5t221 201.5 69.5-47q0-18-181-211.5T35 88q0-27 35-27 66 0 263 154t298 254q23 27 63 80 39 45 86 45t47-45q0-8-92-145.5T639 258q-63-123-195-358Q245-419 47-420q-66 0-115 56t-47 126zM426 769q0 24 59 67 61 43 95 43 2 0 6-2-2 0-29-37l-33-82q-24-56-55-56-14 0-28.5 21.5T426 769zm160 108h2v-3q0 2-2 3zm88-108q0 24 59 67 61 43 94 43l7-2q-2 0-29-37l-33-82q-25-55-55-56-14 0-28.5 21.5T674 769zm160 108h2v-3z" horiz-adv-x="757" unicode="ÿ"/><glyph d="M49 245.5Q49 403 133 590q106 236 416 459 356 254 737 254 205 0 311.5-80t106.5-199q0-74-57-182 16-55 16-109.5T1649 610q147 94 350 160-68 78-68 166t43 147q84 115 252 189 201 88 402 88 117 0 187.5-38t70.5-117-58.5-133-122-54-63.5 31q0 18 27 18l41-6q41 0 74.5 44t33.5 91q0 70-80 102-51 20-96 20.5t-64-1.5q-174-10-344-123-197-129-196-291 0-59 41-110 131 41 250 41 201 0 200-76 0-16-12-37-49-76-178-76-84 0-171 30t-134 62q-264-78-437-256-47-88-122-170-41-82-41-155 0-115 95-186.5t279-71.5q51 0 107 6 326 35 518 209 162 143 162 301 0 125-121 125-145 0-334-156-47-39-79.5-98.5T2028 168t57-72q20-8 20-20 0-20-41-17-98 2-98 129t129 238q176 152 373 152 145 0 186-93 16-43 17-86 0-190-211-358-252-205-639-205-240 0-379 89t-139 233Q934-121 498-121q-55 0-86 2-164 8-263.5 107.5T49 245.5zM160 207q0-270 272-285 29-2 57-2 403 0 768 326 262 233 283 444-106-117-369-278l-16-4q-2 0-2 2 0 8 55 55l115 94q147 129 215 211-14 115-103 191.5T1231 1073q-57 14-177 18.5t-120 8.5 4 8q94 31 181 31t200-27q215-51 301-209 20 49 20 109.5t-45 124.5q-88 123-311 123-309 0-583.5-191.5T272 586Q159 375 160 207zm1954 553q86-70 201.5-70t115.5 64q0 29-102 29t-215-23z" horiz-adv-x="2711" unicode="Œ"/><glyph d="M-20 137q0 123 179 345.5T449 705q104 0 104-111 0-4 5-31.5t3-45-3-26-1-10.5q170 166 303 166 47 0 77-25.5t30-62.5q0-115-172-219T512 236q-16 0-29 4-31-55-30-117 0-106 101-106.5T817 154q121 96 213 215 18 25 31.5 24.5T1075 381t-16-35Q946 196 791.5 84.5T528-27q-23 0-41 7-131 37-131 147v20Q223-5 121-4H88Q35-4 4 51q-25 39-24 86zm96-2q0-78 49-78 88 0 225 162l49 62q14 27 60 92 25 43 24.5 63.5T483 465q0 80-53 80-12 0-29-4-70 0-197.5-164T76 135zm438 150q12-4 27-4 78 0 208 82.5T911 545q4 10 4 18 0 25-52 25t-148-80Q586 402 514 285z" horiz-adv-x="950" unicode="œ"/><glyph d="M29 561q0 279 407 569 119 86 313.5 156t314.5 70 182.5-38 62.5-121-115-258-363-476q-51-59-94-154.5t-43-152 44-56.5 132 64q250 178 499 432t366 426q84 121 178 121 33 0 33-21 0-4-4-16-258-451-703-1196-131-215-279.5-322.5T688-520q-78 0-152.5 55T461-342q0 43 43 43 10 0 31-4 25-86 40-117 35-55 119-55 252 0 619 688l368 657q-395-422-560-586.5T895 82Q772 8 692 8 575 8 575 145q0 164 140 338 10 12 87 105.5T982 811t172 249 69 168-29 62q-59 31-135 31-217 0-600-262-160-109-254-252t-94-264 116-152q37-10 72-10 104 0 231 90 150 100 168 107-20-76-161-166-156-96-291-97-18 0-68.5 7.5t-99.5 75T29 561zm1396 785.5q0 23.5 60 66.5 61 43 94 43 2 0 6-2-2 0-29-37l-32-82q-25-55-56-55-14 0-28.5 21.5t-14.5 45zm160 107.5h2v-2q0 2-2 2zm88-107.5q0 23.5 60 66.5 61 43 94 43l6-2q-2 0-29-37l-32-82q-25-55-56-55-14 0-28.5 21.5t-14.5 45zm160 107.5h2v-2q0 2-2 2z" horiz-adv-x="1806" unicode="Ÿ"/><glyph d="M164 762q0 6 20 24 156 94 203 136 61 51 74 51 31 0 121-99 8-8 48-54t40-65.5-16.5-19.5-88 65.5T449 893q-12-8-68.5-43t-106-67.5T209 748q-45-12-45 14z" horiz-adv-x="757" unicode="ˆ"/><glyph d="M59 901q0 33 88 84 33 20 69 20.5t100.5-21T423 963t79 43q12-1 12-9 0-31-82-86-27-16-60.5-16t-100 27.5T171 950t-66.5-26.5T61 897q-2 2-2 4z" horiz-adv-x="557" unicode="˜"/><glyph horiz-adv-x="845"/><glyph horiz-adv-x="1690"/><glyph horiz-adv-x="845"/><glyph horiz-adv-x="1690"/><glyph horiz-adv-x="563"/><glyph horiz-adv-x="422"/><glyph horiz-adv-x="281"/><glyph horiz-adv-x="281"/><glyph horiz-adv-x="211"/><glyph horiz-adv-x="338"/><glyph horiz-adv-x="93"/><glyph d="M39 481q0 20 17.5 34.5T86 530t25 2h104l199-2q119 0 170 7 2-2 2-7 0-31-162-59-88-12-165-25.5T160.5 432 89 441.5 39 481z" horiz-adv-x="608" unicode="‐"/><glyph d="M39 481q0 20 17.5 34.5T86 530t25 2h104l199-2q119 0 170 7 2-2 2-7 0-31-162-59-88-12-165-25.5T160.5 432 89 441.5 39 481z" horiz-adv-x="608" unicode="‑"/><glyph d="M39 481q0 20 17.5 34.5T86 530t25 2h104l199-2q119 0 170 7 2-2 2-7 0-31-162-59-88-12-165-25.5T160.5 432 89 441.5 39 481z" horiz-adv-x="608" unicode="‒"/><glyph d="M39 481q0 20 17.5 34.5T88 530h31l51 2h260l213-2q117 0 168 7 2-4 2-9.5T799 512q-35-20-134.5-36.5t-180.5-30T355 432t-136 6Q39 450 39 481z" horiz-adv-x="831" unicode="–"/><glyph d="M39 453q0 23 19.5 50T90 530h41l84 2h371l383-4q188 0 276 9 14-33-291-66-121-10-362-35-51-14-302-14T39 453z" horiz-adv-x="1239" unicode="—"/><glyph d="M29 694q0 88 66.5 157t89 69 22.5-5.5-44-54.5-44-80.5 27.5-55.5 27.5-36q0-61-61-61-29 0-56.5 20T29 694z" horiz-adv-x="258" unicode="‘"/><glyph d="M109 606q8 10 21 24.5t26 28.5q43 47 43 79t-28 56.5-28 36.5q0 61 60 62 31 0 58.5-19.5T289 825q0-88-66.5-156.5T125 600q-16 0-16 6z" horiz-adv-x="284" unicode="’"/><glyph d="M111 145q43 6 54 6.5t13-1.5v-5q0-18-16.5-119.5T139-86q-2-8-12-8-6 0-6 16 0 131-10 223z" horiz-adv-x="176" unicode="‚"/><glyph d="M29 694q0 88 66.5 157t89 69 22.5-5.5-44-54.5-44-80.5 27.5-55.5 27.5-36q0-61-61-61-29 0-56.5 20T29 694zm207 0q0 88 66.5 157t90 69 23.5-5.5-45-54.5-45-80.5 27.5-55.5 27.5-36q0-61-59-61-31 0-58.5 19T236 694z" horiz-adv-x="421" unicode="“"/><glyph d="M-10 606q8 10 21.5 24.5T37 659q43 47 43 79t-27.5 56.5T25 831q0 61 59 62 31 0 58.5-19.5T170 825q0-88-66.5-156.5T6 600q-16 0-16 6zm209-1q0 5 44 55.5t44 80-28 54-28 36.5q0 61 62 62 31 0 57.5-19.5T377 825q0-88-65.5-156.5t-89-68.5-23.5 5z" horiz-adv-x="421" unicode="”"/><glyph d="M111 145q43 6 54 6.5t13-1.5v-5q0-18-16.5-119.5T139-86q-2-8-12-8-6 0-6 16 0 131-10 223zm141 0q43 6 54 6.5t13-1.5v-5q0-18-16-119.5T281-86q-2-8-13-8-6 0-6 16 0 131-10 223z" horiz-adv-x="319" unicode="„"/><glyph d="M111 485.5Q111 668 241 798t313 130 313-130 130-313.5T867 171 555 41 240 170Q111 303 111 485.5z" horiz-adv-x="1099" unicode="•"/><glyph d="M233 70q0 59 78 59 31 0 58.5-20.5t27.5-46-26.5-45-57-19.5T258 19.5 233 70zm338 0q0 59 78 59 31 0 58.5-20.5t27.5-46-26.5-45-57-19.5T596 19.5 571 70zm330 0q0 59 78 59 31 0 58.5-20.5t27.5-46-26.5-45T981-2t-55.5 21.5T901 70z" horiz-adv-x="1138" unicode="…"/><glyph horiz-adv-x="338"/><glyph d="M174 518q0 14 102.5 160.5t131 180.5 45 34 16.5-12q0-31-203-314 201-256 201-278.5T449 266q-4 0-21 8-57 80-248 226-6 4-6 18z" horiz-adv-x="696" unicode="‹"/><glyph d="M174 276q0 31 203 314-201 256-201 278.5t19 22.5q4 0 20-8 57-80 248-226 6-2 6-17T366.5 478.5 235.5 298t-45-34-16.5 12z" horiz-adv-x="614" unicode="›"/><glyph horiz-adv-x="422"/><glyph d="M-137 481q0 20 17.5 34.5T-88 530h31l51 2h108q29 78 68 154-147 12-147 41 0 23 17 36t32 13h30l125 4q221 313 553 455 227 96 437 96 111 0 192-26 223-70 223-281 0-111-94-227-45-55-78-56-10 0-20 4-27 14-6 46 8 10 20 18 92 100 92 231t-98 195q-82 57-221 57-201 0-404-100-268-129-479-412l442-2q172 0 281 4 10-16-45-32.5T856 719l-301-37q-18-4-98-4t-178 2q-47-82-70-148 74 3 135 3l289-5q156 0 223 7 2-2 2-7 0-31-161.5-51T426 444.5 269 430t-89 2q-10-47-10-106 0-186 127-287.5T612-63q215 0 422 104 158 82 273 209 33 37 51 37 12 0 12-21.5t-22-44.5Q1239 106 1034 0 782-133 527-133T147 35Q63 146 63 297q0 66 15 137l-35 4q-180 12-180 43z" horiz-adv-x="1486" unicode="€"/><glyph d="M55 1255q14 27 252 44.5t310.5 17.5 72.5-17q0-27-146.5-41T383 1217q-37-70-81-212.5T242.5 813 188 678q-12-18-45.5-18.5T109 685t71.5 199T287 1135q25 70 24.5 87t-57.5 17l-148-10q-43 0-51 26zm465-573q0 10 78 207 80 197 92 235 2 35 11.5 103.5T750 1296q14 0 26-45 14-80 39-239 41-176 109-176 61 0 202 221 143 221 148 221 24 0 24-55 0-14-10-61.5t-16-84.5q-6-147-29-346-23-35-72-35-23 0-22 19 0 31 68 354-215-276-314-276-104 0-182 276-23-49-58.5-184t-60-174-53.5-39-29 10z" horiz-adv-x="1343" unicode="™"/><glyph d="M0 0v850h850V0H0z" horiz-adv-x="849" unicode="◼"/><glyph d="M-498-258q6 25 19 25 6 0 8-15 12-53 41-81.5t59-28.5q174 0 318 215Q29-20 170 299l111 266q-205 2-205 49 0 20 19.5 35t33.5 15l193-5q201 446 368 447 63 0 129-62 17-16 17-43 0-63-37-63-10 0-21 16-18 33-61 33-94 0-176-135-16-27-103-193h25q223 0 297 7 8-2 8-9 0-16-145-45-137-23-226-39-63-131-153-311Q60-82 0-166q-178-254-348-254-59 0-103.5 50.5T-498-258zm963 371q0 111 121 306t194 197q20 0 46-16t26-33q-10-14-24.5-31.5t-31-38-45-58.5-55.5-72Q542 168 542.5 93T594 18q43 0 117 48 172 106 272 233 37 47 50.5 47t13.5-16.5-47.5-65.5-75-77.5-37.5-38-38-35T807 78t-41-30.5-47.5-30T672-4q-44-19-103-19-104 0-104 136zm397 665q0 57 78 58 31 0 58.5-19.5T1026 770t-25.5-46-56.5-19-56.5 22.5T862 778z" horiz-adv-x="958" unicode="ﬁ"/><glyph d="M-498-258q6 25 19 25 6 0 8-15 12-53 41-81.5t59-28.5q174 0 318 215Q29-20 170 299l111 266q-205 2-205 49 0 20 19.5 35t33.5 15l193-5q201 446 368 447 63 0 129-62 16-16 17-43 0-63-37-63-10 0-21 16-18 33-61 33-94 0-176-135-16-27-103-193h25q217 0 272 5 221 356 320 356 20 0 41.5-15.5T1120 971q-47-63-181-243.5T753.5 468t-77-118-37.5-60.5-29-56.5q-35-70-35-131t68-61 174.5 71.5T1024 307q25 33 39 33t14-12-84-107Q788-4 651-4q-68 0-115 31.5T489 126t35 155q59 139 191 350v2q-51-14-140.5-28.5T397 573q-63-131-153-311Q60-82 0-166q-178-254-348-254-59 0-103.5 50.5T-498-258z" horiz-adv-x="1026" unicode="ﬂ"/></font>
</defs>
</svg>
