<svg xmlns="http://www.w3.org/2000/svg"><defs><font id="loraregular" horiz-adv-x="650"><font-face ascent="800" descent="-200"/><glyph d="M25 455v45h82q0 125 60.5 192.5T340 760q52 0 94.5-11t68.5-31 26-46q0-19-11-33t-32-14q-25-1-35 14.5T441 667q0 7 1 14t4 13q-17 13-41.5 20.5T348 722q-45 0-80-20t-55-61-20-104v-37h229q23 0 39.5 1.5t26.5 4 12 4.5h29V106q0-20-.5-35.5T525 38q16 1 31.5 1.5T588 41V0H384v30q31 0 43 15.5t14 43 2 63.5v248q0 16 1 30.5t3 34.5l-254-6 1-354q0-20-.5-35T190 38q16 1 31.5 1.5T253 41V0H50v30q31 0 43 15.5t14 43 2 63.5l-2 305z" horiz-adv-x="623" unicode="ﬁ"/><glyph d="M25 455v45h82v31q0 75 23 126t64.5 77 96.5 26q39 0 68-5t52.5-10.5T456 739q14 0 28 3.5t30 12.5h29V70.5L540 38q16 1 31.5 1.5T603 41V0H399v30q31 0 43 15.5t14 43 2 63.5v530q-21 13-48.5 21T356 714.5t-45 3.5q-45 0-71-16.5T203.5 653 193 576v-76h135v-39l-135-3 1-352q0-20-.5-35.5T190 38q16 1 31.5 1.5T253 41V0H49v30q31 0 43 15.5t14 43 2 63.5l-1 305z" horiz-adv-x="637" unicode="ﬂ"/><glyph horiz-adv-x="0"/><glyph horiz-adv-x="0"/><glyph horiz-adv-x="333"/><glyph horiz-adv-x="263"/><glyph horiz-adv-x="263"/><glyph horiz-adv-x="263"/><glyph horiz-adv-x="263"/><glyph d="M74 48q0 27 18 46t41 19q25 0 41.5-19T191 48 173 2.5 132-16 91.5 2.5 74 48zm1 595q-2 26 12.5 49.5T133 716q32 0 45.5-23.5T190 643l-39-413h-37z" horiz-adv-x="266" unicode="!"/><glyph d="M62 716h78l-9-225H70zm143 0h78l-9-225h-61z" horiz-adv-x="346" unicode="&quot;"/><glyph d="M33 178l16 60h164l55 231H99l16 60h167l44 187h66l-43-187h213l44 187h66l-43-187h167v-1l-15-59H615l-52-231h167l-16-60H550L506-16h-72l45 194H270L226-16h-72l45 194H33zm250 60h210l54 231H335z" horiz-adv-x="830" unicode="#"/><glyph d="M50 542q0 24 10 53t32 56.5 58.5 45.5 88.5 19v117h54l-1-117q29-3 56.5-12.5T403 674l-4 42h50V498h-37q-3 48-18 89t-48.5 66-92.5 25q-42 0-69-17t-40-44-13-57q0-38 21-66t55-50 73-43q38-20 75-41t68.5-47 50-61 18.5-82q0-46-21.5-87T406 15.5 297-16v-137h-52l-1 137q-34 2-72 14t-66 29l5-40H57v211h35q5-92 54.5-133.5T275 23q59 0 96 35t37 90q0 45-24.5 75.5T320 278t-83 46q-46 24-89 52t-70.5 67.5T50 542z" horiz-adv-x="529" unicode="$"/><glyph d="M36 522q0 47 21 91t61.5 73 98.5 30q62 2 103-25t61-70 20-89q0-51-25-96t-66.5-73-92.5-28q-59 0-99.5 27t-61 69.5T36 522zm86 17q0-24 4.5-52.5t15-53.5 29.5-41.5 49-16.5q37 0 57.5 22.5t29 55T315 516q0 25-4.5 53.5t-15.5 54-30 41.5-47 16-46.5-15-29.5-37.5-15.5-46.5-4.5-43zm1-521l564 698 45-40L165-17zm346 151q0 52 25 96.5t67 72 93 27.5q60 0 100-26.5t60.5-69.5 20.5-91q0-46-21-90.5T753 14t-99-30q-62-1-103 26t-61.5 70-20.5 89zm87 16q0-25 5-53.5t16.5-54T608 36t47-16 46.5 14.5 29 37 14.5 47 4 43.5q0 24-4.5 52.5t-15 53.5-29.5 41.5-49 16.5q-36 0-57-22.5t-29.5-55T556 185z" horiz-adv-x="870" unicode="%"/><glyph d="M36 180q0 65 42.5 115T193 376q-26 34-43 63.5t-25 59-8 60.5q1 72 53 114.5T302 716q51 0 88.5-18.5t58-50T469 576q0-37-16-71t-52-65.5-96-62.5q27-28 59.5-62t65.5-66.5 60-58.5q5 18 7.5 34.5T500 254q0 23-6.5 45.5t-23 38T424 354v33h175v-41l-83 4q16-13 23-34t8-49q1-19-3.5-48.5T527 157q11-10 23.5-21.5T577 112q45-40 77.5-59.5T703 33V0h-93q-9 0-40.5 18.5T486 83q-32-41-84.5-70T271-16q-44 0-86 10.5t-75.5 34-53.5 61T36 180zm100 15q0-55 21.5-90t55-52T283 34q63-2 104.5 20.5T454 111q-7 7-14 13.5T425 138q-67 66-118.5 117T219 347q-32-19-50-47t-25.5-56-7.5-49zm65 372q0-43 23.5-85t58.5-81q56 37 83 82.5t27 89.5q0 48-25 79.5T297 684q-41 0-68.5-30.5T201 567z" horiz-adv-x="695" unicode="&amp;"/><glyph d="M62 716h84l-9-225H71z" horiz-adv-x="208" unicode="'"/><glyph d="M36 239q0 83 21 162t55 148 74 123 77 88l25-23q-31-41-55.5-86.5t-42.5-94T160.5 456 143 349.5 137 239t6-109.5T160.5 26 190-71.5t42.5-91.5 55.5-85l-25-23q-37 34-77 86.5T112-65 57 79 36 239z" horiz-adv-x="305" unicode="("/><glyph d="M18-248q31 41 55.5 86.5t42.5 94T145.5 33 163 139.5t6 110.5-6 109.5T145.5 463 116 560.5 73.5 652 18 737l25 23q37-34 77-86.5T194 554t55-144 21-160-21-162-55-148-74-123-77-88z" horiz-adv-x="305" unicode=")"/><glyph d="M42 559q9 26 34.5 24.5T124 571q31-14 63.5-30t57.5-33q-9 29-14 65.5t-9 70.5q-2 16 0 32.5t11 28 27 11.5q19 0 27-11.5t9.5-28-.5-32.5q-4-34-9-70.5T273 508q26 17 58 32.5t63 30.5q15 7 32 10.5t31-1 19-21.5q9-27-11.5-40T419 500q-33-6-69-12t-67-8q24-19 49.5-44t48.5-50q11-11 19.5-26.5t8.5-31-15-26.5q-14-10-27.5-6T342 312.5 322 338q-16 29-33.5 63T260 463q-11-28-28.5-62T198 338q-8-13-19-25.5T154.5 296t-29.5 6q-14 11-14 26t8.5 30.5T138 386q23 25 48 50.5t50 43.5q-31 2-68 8t-69 12q-16 4-31.5 10.5T44 529t-2 30z" horiz-adv-x="520" unicode="*"/><glyph d="M42 340v50h446v-50H42zm198-203v446h50V137h-50z" horiz-adv-x="530" unicode="+"/><glyph d="M66 43q0 28 16.5 43t38.5 15q35 0 53-26.5T192 10q0-25-9.5-61t-26-70.5T118-179l-27 20q11 14 23 40t19.5 57.5T137 0q-7-3-13-4.5T112-6Q93-6 79.5 8T66 43z" horiz-adv-x="253" unicode=","/><glyph d="M67 285v70h355v-66z" horiz-adv-x="489" unicode="-"/><glyph d="M64 48q0 27 18 46t41 19q25 0 41.5-19T181 48 163 2.5 122-16 81.5 2.5 64 48z" horiz-adv-x="246" unicode="."/><glyph d="M21-235l584 995 65-41L79-271z" horiz-adv-x="690" unicode="/"/><glyph d="M56 347q0 63 14.5 128T116 594.5t80 88T315 716q73 0 121.5-33t77-86.5T554 479t12-127q0-62-14-127t-44-119.5-78.5-88T311-16q-76 0-126 32.5t-78 86T67.5 220 56 347zm103 21q0-42 4-89t14.5-92.5T206 104t45-59 66-22q43 0 71 27t44.5 72 23.5 99.5 7 109.5q0 61-7 122t-24 112-46 82-73 31q-43 0-72.5-27T193 579t-26-100-8-111z" horiz-adv-x="621" unicode="0"/><glyph d="M18 571l195 145h34l1-607q0-19-.5-37T245 40l42 2 42 2V0H74v33q35 2 53.5 16t26 39 7.5 59l-3 472-120-77z" horiz-adv-x="364" unicode="1"/><glyph d="M46 0q0 53 16.5 94t44.5 75.5 63.5 67T243 305q65 62 94 115t29 102q0 38-10.5 73.5T318 654t-75 23q-41 0-73-20.5T127 606q10-10 14-21.5t4-22.5q0-9-4.5-20T125 523t-29-8q-22 1-34 17t-12 38q0 21 13 46.5t39.5 48 65.5 37 91 14.5q40 0 77.5-9.5T404 676t47.5-55.5T469 535q0-25-10.5-54t-34-62.5-60.5-71-91-81.5q-68-56-111.5-105.5T111 76l177-5q49-1 86.5 0t59 15.5T455 140h30L479 0H46z" horiz-adv-x="537" unicode="2"/><glyph d="M44 120q0 23 12 38.5T90 175q18 1 28.5-6.5T133 150t4-20q0-10-3-20t-8-20q10-34 45.5-49T248 26q71 0 113.5 39T404 178q0 44-14 83.5T338 326t-111 23q-8 0-17-.5t-20-1.5v45h41q53 0 83 24t43 57 13 61q0 41-10.5 73.5t-36.5 51-72 18.5q-45 0-77-23.5T134 605q9-10 12.5-20t3.5-21q0-8-4.5-18.5T131 528t-27-7q-21 0-32 15t-11 36q0 28 22 61.5t67.5 58T265 716q54 0 100-17t74-55.5T467 542q0-31-15.5-62.5t-51-58.5-97.5-46q95-10 149.5-61T507 185q0-68-35.5-112.5T378.5 6 255-16q-72 0-119 21.5T66.5 59 44 120z" horiz-adv-x="557" unicode="3"/><glyph d="M12 193v49l362 474h33V253l101-1v-59H407v-84q0-20-.5-38T403 38q20 1 39 1.5t38 1.5V0H229v33h7q34 3 51 19t23 43 6 64v34H12zm66 65l238-3v319h-2z" horiz-adv-x="542" unicode="4"/><glyph d="M52 120q0 23 12 38.5T98 175q18 1 28.5-6.5T141 150t4-20q0-10-3-20t-8-19q4-24 25-39.5T207.5 29t50.5-6q49 2 79 26.5t44.5 62.5 14.5 80q0 28-4.5 62t-20 64.5T325 369t-84 20q-17 0-41.5-4t-49-12-41.5-19l-28 26-2 320h259q57 0 78.5 15.5T438 765h27l-6-132-334-7V406q24 10 62.5 19t82.5 9q62 0 105.5-19.5t71-52 40.5-72 13-80.5q0-74-34.5-124.5T375 9.5 254-16q-64 0-109 21.5T76 59t-24 61z" horiz-adv-x="545" unicode="5"/><glyph d="M56 329q0 36 6.5 85.5t23.5 102 47.5 98T212 688t116 28q60 0 99-21.5t58.5-51T505 589q0-21-10.5-35.5T462 537q-25-1-35 14t-10 28q0 10 3 21t9 21q-5 18-31.5 38T330 679q-46 0-77.5-24t-51-63-30.5-83.5-15.5-85.5-5.5-70q17 22 41 41t56 31 71 12q60 0 100.5-20.5t65-53.5 35-72.5T529 213q0-62-30.5-114.5T415 15 295-16q-89 0-141.5 42t-75 119.5T56 329zm95-47q3-48 11.5-94t25-83T231 45.5 297 23q47 0 76 23.5t42 62 13 82.5q0 28-5 62.5t-18.5 66-39.5 52-68 20.5q-31 0-61-15.5T183.5 336 151 282z" horiz-adv-x="578" unicode="6"/><glyph d="M22 552v148h419v-68q-36-75-62.5-143T331 352.5 291 209 250 45q-6-24-18.5-43T195-16q-19 2-27 14t-8 30q0 22 11.5 57t27.5 74.5 29 72.5q19 47 45 114t57.5 141.5T395 631l-264-1q-40-1-62.5-19T46 552H22z" horiz-adv-x="461" unicode="7"/><glyph d="M59 150q0 45 22 82.5t56.5 68T211 355q-76 46-107 91.5T73 535q0 47 18.5 81.5T141 673t68.5 32.5T285 716q51 0 95.5-18.5t72-54.5 27.5-88q0-39-18.5-72t-49-58.5T345 380q45-26 83-59.5t61-72.5 23-82q0-63-33-103.5T392 3 276-16q-35 0-73 8.5T132.5 20t-53 51T59 150zm84 18q-4-64 33.5-103.5T278 24q65-1 100.5 32t35.5 91q0 52-36.5 101.5T249 337q-55-40-79.5-86T143 168zm23 389q0-55 41.5-95.5T310 400q44 30 67.5 68t24.5 75q2 65-30 99t-85 35q-39 1-66-16.5t-41-45-14-58.5z" horiz-adv-x="562" unicode="8"/><glyph d="M48 485q0 65 29 117.5t82 83T284 716q71 0 116.5-27t71.5-75.5T508.5 500 519 359q0-44-5.5-94.5t-21-100-44.5-90T372 9 257-16q-65 0-105.5 19.5T93 52t-18 55q0 22 11 37t33 16q24 1 34.5-14.5T164 117q0-10-3.5-20.5T150 76q7-22 30.5-38T252 22q46 0 77 22t50 58.5 29 80 13.5 86.5 3.5 77q-25-34-67-59t-101-25q-60 0-100.5 20.5t-64 53.5-34 72T48 485zm99 22q0-28 5-62.5t18.5-66T210 327t68-20q32 0 61.5 15.5T392 363t32 54q-3 47-11 93t-24.5 84-43.5 61-68 23q-43 0-72-24.5T161.5 590 147 507z" horiz-adv-x="578" unicode="9"/><glyph d="M67 48q0 27 18 46t41 19q25 0 41.5-19T184 48 166 2.5 125-16 84.5 2.5 67 48zm0 403q0 27 18 46t41 19q25 0 41.5-19t16.5-46-18-45.5-41-18.5-40.5 18.5T67 451z" horiz-adv-x="250" unicode=":"/><glyph d="M70 43q0 28 16.5 43t38.5 15q35 0 53-26.5T196 10q0-25-9.5-61t-26-70.5T122-179l-27 20q11 14 23 40t19.5 57.5T141 0q-7-3-13-4.5T116-6Q97-6 83.5 8T70 43zm0 408q0 27 18 46t41 19q25 0 41.5-19t16.5-46-18-45.5-41-18.5-40.5 18.5T70 451z" horiz-adv-x="263" unicode=";"/><glyph d="M34 279v67l445 198v-62L102 316l377-167V85z" horiz-adv-x="530" unicode="&lt;"/><glyph d="M42 265v50h446v-50H42zm0 150v50h446v-50H42z" horiz-adv-x="530" unicode="="/><glyph d="M42 85v62l377 166L42 480v64l445-194v-67z" horiz-adv-x="530" unicode="&gt;"/><glyph d="M33 577q0 29 24.5 61.5t69.5 55T235 716q78 0 122.5-26t63-66 16.5-82q-3-41-26.5-74.5T354 406t-65-52-54-45.5-22-41.5q0-12 9.5-22.5T255 234q8 0 18 1.5t19 5.5l12-35q-16-9-38-13.5t-40-4.5q-29 0-54.5 15T146 255q0 22 13 41t34.5 38 44.5 39q38 32 70 72.5t34 98.5q1 37-10 67t-38 48-74 18q-28 0-52.5-11T128 638.5 110 606q5-8 8.5-18t3.5-21q0-8-5-18.5T102 531t-26-7q-22 2-32.5 16.5T33 577zM178 43q0 24 17 41.5t37 17.5q23 0 38.5-17.5T286 43q0-25-15.5-42T232-16q-20 0-37 15.5T178 43z" horiz-adv-x="474" unicode="?"/><glyph d="M50 257q0 63 21 127.5t63.5 120 108 91T398 636q89 5 155.5-21t111-73 67-105.5T754 318q0-79-23-130t-57-79-69.5-37.5T544 66q-34 6-51 23.5t-21.5 42-1 53.5 8.5 58q-31-91-69-132t-85-41q-42 0-74 33t-32 106q0 55 15 104t45 87 74 60 101 22q23 0 53-3t55-10q-4-34-8.5-69t-8.5-68-7.5-63-5.5-55q-2-26-.5-50.5t10-42T568 100q21-4 41 6t36.5 33.5T672 198t11 79q3 121-36 192.5T540.5 571 390 594q-62-5-110.5-33.5t-82.5-74-52-103T127 263q0-81 24-140t65-97.5 93-57T417-52q35-1 76.5 5T577-20.5 654 41l24-25q-48-55-114.5-82T418-95q-92-2-161 25.5T142 7 73 120.5 50 257zm239-39q0-50 14-80t39-30q27 0 53.5 32t48 83T478 332.5 491 443q-12 5-27.5 7t-34.5 2q-35 0-61.5-21.5t-44-56-26-76T289 218z" horiz-adv-x="796" unicode="@"/><glyph d="M-6 0v33q30 0 46 16t26.5 44T91 158l206 561h24l223-569q8-21 18-54 8-28 9-48 0-4-1-8l34 2 34 2V0H409v33q38 1 50 17 10 13 10 29 0 4-1 9-3 22-10 40l-35 94-260-6-35-107q-7-24-12.5-38T103 40q20 1 39.5 2t38.5 2V0H-6zm184 259h231l-71 191q-11 31-22.5 61.5T293 573h-2q-10-28-20.5-56T249 460z" horiz-adv-x="626" unicode="A"/><glyph d="M55 0v33q38 1 52 17.5t15.5 45T124 161v420q0 27 1 46.5t2 32.5l-36-2-36-2v44q55 1 110.5 1.5t115.5.5q115 0 181-41 64-40 64-125v-5q0-32-18.5-64t-55-56.5T361 376v-2q110 0 166-50.5T583 196q0-61-31-105t-84-67.5T347 0H55zm153 40q16-1 38.5-1.5t42-.5H314q77 0 124.5 38.5T486 190q0 61-24 95t-63 48-85 14q-30 0-54.5-.5T211 344V118q0-27-.5-46T208 40zm3 343l73 2q57 1 90 23 34 23 48 57 14 32 13 66-1 57-25 87-24 28-57.5 38T286 666t-49-9-21-30-5-58V383z" horiz-adv-x="622" unicode="B"/><glyph d="M46 339q0 71 21.5 138T132 598t108.5 86T393 716q56 0 106-15t96-46l-5 54h54V477h-36q-10 94-65.5 146T400 675q-53 0-99.5-22.5T219 588t-55-101-20-133q0-94 36-166t97-112 135-40q65 0 128 29.5T643 151l26-21q-43-59-93-91T476.5-4.5 386-16q-75 0-137.5 27t-108 75.5-70 113T46 339z" horiz-adv-x="699" unicode="C"/><glyph d="M55 0v33q38 2 52 17.5t15.5 43T124 156v432q0 20 1 38.5t2 33.5l-36-2-36-2v44l236 1q90 0 165-21t129.5-64.5 84-110T699 349q0-69-24-132t-72-111.5-119.5-77T318 0H55zm153 40q27-1 49.5-1.5t38-.5H315q65 0 117.5 24t90 66.5 58 100T601 353q0 95-34.5 164.5T461 625.5 280 664q-37 0-51.5-15t-16-42-1.5-63V118q0-27-.5-46T208 40z" horiz-adv-x="745" unicode="D"/><glyph d="M55 0v33q38 2 52 17.5t15.5 43T124 156v432q0 20 1 38.5t2 33.5l-36-2-36-2v44h481l5-175h-33q0 59-18 89-18 32-48 42-28 10-62 9h-7l-86-2q-37-1-53-14t-19.5-38.5T211 544V384l188-1-7 86h44V259h-33q0 44-12 63t-38 23q-17 3-42 3-12 0-27-1l-73-3V115q0-27-.5-46T208 37l191 3q44 1 76 14.5t50 47.5 18 93h34L571 0H55z" horiz-adv-x="622" unicode="E"/><glyph d="M55 0v33q38 2 52 17.5t15.5 43T124 156v432q0 20 1 38.5t2 33.5l-36-2-36-2v44h464l5-175h-33q0 59-19 89-19 32-50 42-28 10-62 9h-7l-73-2q-37-1-51-17.5T213 602t-2-62V368l174-1-7 87h44V243h-32q0 45-12.5 64T339 330q-17 3-42 3-12 0-26-1l-60-3V119q0-27-.5-46.5T208 40q17 1 34 1.5t34 1.5 34 1V0H55z" horiz-adv-x="548" unicode="F"/><glyph d="M47 335q0 71 21.5 138.5t65 122.5 109 87.5T395 716q36 0 73-6.5t71.5-19T602 661l-4 48h55V480h-36q-4 63-33.5 106.5T507 653t-105 23q-53 0-99.5-23.5t-82-66T165 486t-20-128q0-94 34-168t94.5-116T413 32q27 0 56.5 5t59 16.5T584 82v219q-17-1-35-2t-35-2v44h226v-33q-28 0-43-14.5t-21-35-7-40-1-29.5V36h-27q-16 0-44-6t-64-20Q502-2 461-9t-74-7q-100 0-177 42T90 147 47 335z" horiz-adv-x="761" unicode="G"/><glyph d="M55 0v33q38 2 52 17.5t15.5 43T124 156v432q0 20 1 38.5t2 33.5l-36-2-36-2v44h225v-33q-37-1-51.5-17t-16-43-1.5-63V378h358v210q0 20 1 38.5t2 33.5l-36-2-36-2v44h225v-33q-37-1-51.5-17t-16-43-1.5-63V119q0-27-.5-46.5T653 40l36 2 36 2V0H500v33q38 2 52 17.5t15.5 43T569 156v182l-358-4V119q0-27-.5-46.5T208 40l36 2 36 2V0H55z" horiz-adv-x="780" unicode="H"/><glyph d="M55 0v33q38 2 52 17.5t15.5 43T124 156v432q0 20 1 38.5t2 33.5l-36-2-36-2v44h225v-33q-37-1-51.5-17t-16-43-1.5-63V119q0-27-.5-46.5T208 40l36 2 36 2V0H55z" horiz-adv-x="335" unicode="I"/><glyph d="M-2 55q0 20 10.5 35.5T41 107h6q20 0 29-13 9-16 9-31 0-4-1-10.5T81 41q6-10 19-13.5t20-2.5q30 1 44.5 27t14.5 87v521q-25-1-50.5-2T77 656v44h266v-33q-33 0-49.5-13t-22-35.5T266 568V244q0-141-38-200.5T104-16q-28 0-52 8.5T13 17-2 55z" horiz-adv-x="373" unicode="J"/><glyph d="M55 0v33q38 2 52 17.5t15.5 43T124 156v432q0 20 1 38.5t2 33.5l-36-2-36-2v44h225v-33q-37-1-51.5-17t-16-43-1.5-63V380h75l125 197q13 20 32 44t39 40q-15-1-30.5-1t-30.5-1v41h215v-33q-42-3-75-14t-63-38.5-64-82.5l-98-156q29-17 47-39.5t36-45.5l112-149q38-50 62.5-73.5t44-29.5 40.5-6V0H556q-10 0-26.5 14T494 50.5 455 98L335 260q-19 25-38 47.5T260 341l-49-1V119q0-27-.5-46.5T208 40l36 2 36 2V0H55z" horiz-adv-x="683" unicode="K"/><glyph d="M55 0v33q38 2 52 17.5t15.5 43T124 156v432q0 20 1 38.5t2 33.5l-36-2-36-2v44h225v-33q-37-1-51.5-17t-16-43-1.5-63V115q0-27-.5-46T208 37l187 3q63 1 95.5 40T523 207h34L551 0H55z" horiz-adv-x="578" unicode="L"/><glyph d="M44 0v33q31 1 45.5 13.5T108 80t5 45l19 456q1 20 1.5 40t1.5 39q-18-1-36-1.5T63 657v43h153l172-397q13-30 25.5-60t26-60 26.5-61h2q11 27 26 64.5t25 64.5q44 110 91.5 220.5T704 700h148v-33h-4q-22 1-37-9-16-10-23-35-5-19-5-48v-17l26-455q2-17 2-33V41q18 1 36.5 1.5T884 44V0H660v33q31 1 46 15 14 14 18 40 2 17 3 38 0 12-1 26l-20 330-2 32-2 32-2 32q-3-7-6.5-15t-6.5-17L462-10h-30q-44 100-89 199.5T255 391q-14 32-27.5 64.5t-26 65.5-25.5 66q0-11-.5-22t-.5-22q-1-36-2.5-86.5t-3.5-108-3-115-2-108.5q-1-22-1.5-44T160 40q19 1 37.5 2t37.5 2V0H44z" horiz-adv-x="918" unicode="M"/><glyph d="M57 0v33q31 0 44.5 13.5t17.5 32 4 33.5l1 481v67q-16-1-33-2l-34-2v44h119l375-502q13-17 25.5-34t25.5-34h1l1 458q0 20 1 38.5t2 33.5l-36-2-36-2v44h184v-33q-37-1-51-17t-15-43-1-63l-2-560h-48L203 520q-9 12-17.5 23.5T168 567h-1l3-428V89l-2-49 36 2 36 2V0H57z" horiz-adv-x="762" unicode="N"/><glyph d="M46 350q0 63 21 127.5T131.5 596t109 87T394 716q92 0 159-33t110.5-87.5 65-118.5T750 350q0-62-21-126.5t-64.5-119T556 17 402-16q-95 0-163 32t-110.5 85.5T66 220 46 350zm98 18q0-55 15.5-115T207 141t81-84 116-32q62 0 108 26.5t76.5 71 46 99T650 331q0 62-17 123t-50 111-81.5 80.5T391 676t-108.5-27-77-71.5-46-99T144 368z" horiz-adv-x="794" unicode="O"/><glyph d="M55 0v33q38 2 52 17.5t15.5 43T124 156v432q0 20 1 38.5t2 33.5l-36-2-36-2v44q53 1 109 1.5t114 .5q97 0 163-22t101-65 38-107v-10q0-34-12-72-14-42-50-79.5T416 286t-169-23h-15l-21 1V119q0-27-.5-46.5T208 40q16 1 31 2t30.5 1.5T300 45V0H55zm156 305q19-2 32.5-2.5t32.5-.5q57 0 104 22.5t75 64.5 28 100q0 47-15 80.5t-42.5 54-65.5 30-84 9.5q-35 0-48.5-15t-15-41.5T211 544V305z" horiz-adv-x="606" unicode="P"/><glyph d="M46 350q0 63 21 127.5T131.5 596t109 87T394 716q92 0 159-33t110.5-87.5 65-118.5T750 350q0-55-16.5-111.5t-49.5-107-83-87T483-7q25 0 46.5-4.5t44.5-18T626-71q35-32 59-54t41-35 31-19 29-6v-33h-32q-36 0-62.5 2.5t-51 14T585-162q-45 41-75.5 74T453-35.5 395-16q-93 2-159.5 34.5T127 104 65.5 221.5 46 350zm98 18q0-55 15.5-115T207 141t81-84 116-32q62 0 108 26.5t76.5 71 46 99T650 331q0 62-17 123t-50 111-81.5 80.5T391 676t-108.5-27-77-71.5-46-99T144 368z" horiz-adv-x="796" unicode="Q"/><glyph d="M55 0v33q38 2 52 17.5t15.5 43T124 156v432q0 20 1 38.5t2 33.5l-36-2-36-2v44q55 1 113 2h39q38 0 77-1 97-1 156.5-22.5t87.5-61T556 517q0-37-14-75-16-40-56.5-72T369 322q20-14 35-36t34-51l68-107q17-27 33-48.5t37-34T628 33V0H502q-29 26-48.5 52T413 111l-67 107q-13 21-29.5 48.5T279 313q-16-1-33.5-1t-34.5 1V119q0-27-.5-46.5T208 40q12 1 24 1.5t24 1.5 24 1V0H55zm156 352q17-1 31-2h31q55 2 96.5 18t65.5 51 24 92q0 38-10.5 66.5T416 625t-56 28.5-80 9.5q-37 0-51.5-15t-16-41.5T211 544V352z" horiz-adv-x="628" unicode="R"/><glyph d="M58 205h39q5-88 61-133.5T293 26q39 0 72 14.5T417.5 83t19.5 68q0 45-24 75t-62 52-81 42q-38 17-75 36t-67.5 43.5-49 58.5T60 540q0 26 9 56t31.5 57.5 62 45T263 716q38 0 85.5-10.5T437 665l-4 43h51V488h-36q-3 48-23 91t-58 70-97 27q-62 0-95-35t-33-82q0-42 24-70.5t62.5-50T310 397q38-17 76-36.5t69-44.5 49.5-59.5T523 174q0-55-27.5-98T416 8.5 289-16q-45 0-93 13t-85 38l5-43H64z" horiz-adv-x="567" unicode="S"/><glyph d="M22 489l6 211h583l6-211h-38q-1 59-12 98t-39 59q-26 19-74 18h-90l-1-545q0-27-.5-46.5T360 40q21 1 41.5 2t41.5 2V0H208v33q38 2 51.5 18t15 43.5T276 156l1 507-103-1q-63 0-89-42T59 489H22z" horiz-adv-x="640" unicode="T"/><glyph d="M31 657v43h224v-33q-33 0-47.5-14T190 620.5t-3-32.5V336q0-56 7.5-108.5T223 133t62.5-67T394 41q72 0 117.5 34t67 94T601 307l3 281q0 20 1 38.5t2 33.5q-18-1-35.5-2t-35.5-2v44h186v-33q-38-1-52.5-17t-16-43-1.5-63l-2-232q0-65-14-124T590.5 83t-83-72.5T381-16q-80 0-134.5 21t-87 65T113 181 99 341v203q0 26 1.5 61.5T103 660q-18-1-36-1.5T31 657z" horiz-adv-x="752" unicode="U"/><glyph d="M-4 656v44h232l-1-34q-50-2-60-30-3-9-3-21 0-23 13-57 24-59 46-114t49-119q24-56 46.5-107.5T353 132h2q11 35 22.5 67t27.5 76q30 84 50.5 142t35.5 99 25 70q9 26 16 44t13 30l-38-2-39-2v44h203v-33q-44-2-67.5-23T561 569q-2-5-5-13.5T546 528t-20-55.5-35.5-98.5-57-156T350-10h-28L95 522q-22 51-31 82.5T52 658q-14-1-28-1t-28-1z" horiz-adv-x="653" unicode="V"/><glyph d="M7 656v44h243v-33q-58-3-70-26-5-10-4-26 0-22 9-57 17-66 37-119t39-114q14-45 28.5-83t29.5-85h2q5 17 10.5 36t11.5 37 11 33.5 8 25.5q28 89 55.5 172.5t48.5 147 29 93.5h32q9-33 26-84t36-107 35.5-106 26.5-80q14-45 29.5-89t28.5-91h3q9 29 19.5 62t21.5 67q26 74 42.5 124t27 83 18 57.5T856 586q6 17 13.5 36.5T887 659q-20-1-40-1.5t-40-1.5v44h203v-33q-34-4-53.5-15T922 611t-36-92q-46-136-89.5-267.5T706-10h-30L524 424q-9 26-17.5 51T489 525q-8-25-16.5-50T456 425L313-10h-29L105 522q-17 53-27 83.5T63 658q-14-1-28-1t-28-1z" horiz-adv-x="995" unicode="W"/><glyph d="M9 656v44h259v-33l-44-2q-36-1-44-13-4-6-3-13 1-8 5-18 8-18 19-37 18-30 51.5-77.5T325 405l96 139q26 36 49.5 69t39.5 47l-42-2-42-2v44h197v-33q-32-4-60-26t-52-52.5-45-60.5L353 368q36-48 70.5-93.5t62.5-82 43-57.5q17-23 34.5-46.5T598 42q14 1 29 1t29 1V0H411v33h6q34 1 45 11 9 8 9 19 1 3-1 9-4 18-17 34-23 31-62 80.5T306 300q-25-36-49.5-72.5T207 153q-18-27-37.5-56T125 39q21 2 41.5 3t41.5 2V0H12v33q48 10 75.5 40.5T149 153l130 186q-69 97-108 151.5T110 576q-19 29-28.5 46T64 658q-13-1-27-1t-28-1z" horiz-adv-x="649" unicode="X"/><glyph d="M-6 656v44h258v-33q-46 0-64-14-14-11-14-29v-10q5-24 25-56l80-126q9-14 19-29t20.5-30.5T341 340h2q11 22 22 42.5t21 39.5l85 161q5 10 12.5 23.5t16.5 28 19 24.5q-19-1-39-1.5t-40-1.5v44h204v-33q-49-3-80.5-34T497 538q-34-64-65.5-123T371 300q0-18-.5-48t-.5-60.5V119q0-27-.5-46.5T367 40q21 1 41.5 2t41.5 2V0H215v33q38 2 51.5 18t15 43.5T283 156l1 114-174 275q-25 40-37.5 67T56 658q-16-1-31-1t-31-1z" horiz-adv-x="634" unicode="Y"/><glyph d="M43 0v46q56 79 143.5 204.5T398 573q14 23 29.5 45.5T462 663l-255-4q-59-2-88.5-41T89 493H55l6 207h496v-35L198 120q-22-32-37-50.5T130 37l243 4q66 1 110.5 40.5T528 205h34L556 0H43z" horiz-adv-x="610" unicode="Z"/><glyph d="M79-255l1 1010h265v-60l-190-3-5-884 197-3v-60H79z" horiz-adv-x="359" unicode="["/><glyph d="M21 719l591-990 58 36L86 760z" horiz-adv-x="690" unicode="\"/><glyph d="M12 695v60h268l-1-1010H14v60l190 3 5 884z" horiz-adv-x="359" unicode="]"/><glyph d="M60 441l308 275h89l306-279h-88L409 681 142 441H60z" horiz-adv-x="823" unicode="^"/><glyph d="M57-50l615-4v-57H57v61z" horiz-adv-x="729" unicode="_"/><glyph d="M46.5 719.5Q44 734 49 744t9 13q3 2 12.5 6t23.5.5 29-25.5l84-135-28-23L67 686q-18 19-20.5 33.5z" horiz-adv-x="252" unicode="`"/><glyph d="M34 103q0 46 28.5 79.5T136 238q46 22 100 32 49 10 94 9h9v62q0 35-6 66t-26 51-64 21h-4q-27 0-55-11-30-12-45-41 8-8 10.5-18.5T152 389q0-11-10-27-9-15-32-15h-3q-21 0-32 14.5T64 396q0 34 25.5 61t70.5 43 102 16q84 0 124-44 39-43 39-136v-80q0-38-.5-75t-.5-75q0-16-1-32t-3-36q18 1 35.5 2t35.5 2V0H348q-3 17-4 30t-3 27q-34-34-73.5-53.5T184-16q-76 0-113 34.5T34 103zm120-43q22-18 53-19 41 0 71.5 15.5T339 100q-1 11-1 24v27q0 5 .5 32t.5 62q-34-1-71.5-8.5T198 214q-30-16-50-40-19-23-19-56 0-38 25-58z" horiz-adv-x="516" unicode="a"/><glyph d="M8 686v42q44 0 68.5 4t37 10 19.5 13h29V457q28 28 66.5 43.5T313 516q64 0 115.5-31t81.5-88 30-135q0-85-37-147.5T407 18 280-16q-34 0-74.5 12.5T133 45L109 0H74l2 625q0 16 .5 30.5T79 690q-18-1-35.5-2T8 686zm154-529q0-53 17-81.5T223 36t57-11q48 0 83 27t54.5 74.5T437 237q0 68-17 119.5t-51 81-86 29.5q-33 0-65.5-15.5T162 410V157z" horiz-adv-x="582" unicode="b"/><glyph d="M41 241q0 52 19 101t53.5 88.5T196 493t106 23q56 0 97.5-17t64.5-45 23-61q0-22-12-37.5T440 340h-3q-23 0-33 16t-10 29q0 10 3 20.5t12 19.5q-8 24-28 35.5t-41.5 15T304 479q-68 0-114.5-54.5T143 266q0-67 21.5-119T225 65.5 315 36q47 0 90 25t67 61l26-20q-26-42-62.5-68t-75-38T288-16q-67 0-123.5 30.5t-90 88T41 241z" horiz-adv-x="532" unicode="c"/><glyph d="M42 236q0 82 33 145t91.5 99T299 516q33 0 65.5-8.5T416 488v137q0 16 .5 30.5T419 690q-18-1-35.5-2t-35.5-2v42q44 0 68 4t36.5 10 19.5 13h29V106q0-16-1-32t-3-36q18 1 35.5 2t35.5 2V0H425q-3 15-4.5 27.5T418 52q-28-31-69-49.5T258-16q-61 0-110 30.5T70.5 102 42 236zm103 9q2-61 19.5-109t50-75.5T294 33q33 0 66.5 19T416 99q-1 12-1 25.5V154l1 288q-24 18-52.5 26.5T305 477q-50 0-87-29t-56-81q-17-47-17-109v-13z" horiz-adv-x="598" unicode="d"/><glyph d="M42 249q0 70 31.5 131t88.5 98.5T294 516q42 0 78.5-13.5t64.5-41 44-69 16-97.5l-352-6q0-76 16.5-133.5t53.5-89T310 35q31 0 63.5 11T434 76t45 42l24-20q-27-42-65-67T360-5t-74-11q-69 0-124.5 32.5t-87.5 92T42 249zm106 82h255q0 36-10.5 69.5t-34.5 55-63 21.5q-58 0-96.5-34.5T148 331z" horiz-adv-x="542" unicode="e"/><glyph d="M25 455v45h82v21q0 111 40.5 175T287 760q22 0 46.5-7.5t42.5-24 18-42.5q0-19-10.5-32T353 641h-3q-22 0-30 15-10 15-10 26 0 6 1 12t4 13q-7 9-19.5 13t-23.5 4q-31 0-48-18t-24-45-7-56V500h135v-39l-135-3 1-352q0-20-.5-35.5T190 38q16 1 31.5 1.5T253 41V0H49v30q31 0 43 15.5t14 43 2 63.5l-1 305z" horiz-adv-x="338" unicode="f"/><glyph d="M35-136q0 31 14.5 54.5t36 40.5T127-16Q95-5 76.5 13.5T58 63q0 35 28 65.5t72 37.5q-46 22-73.5 61T57 318q0 60 31 104.5t79.5 69T268 516q33 0 66-9.5t61-27.5q10 28 28.5 50t42.5 34.5 50 12.5 39.5-13.5T569 526q0-7-4-17t-13.5-17-25.5-7q-17 0-28 10t-14 25q-25-4-39-23.5T426 454q24-22 38.5-53t14.5-66q0-56-29.5-100T372 166.5 268 142q-19 0-33 2.5t-34 2.5q-37 0-60-18-18-14-18-32 0-5 2-11 8-24 49-30.5T284 46q77-3 132-18t84.5-46.5T530-104q0-40-21.5-71.5t-57-52.5-79-32-87.5-11q-90 0-145 20t-80 51-25 64zm79 12q0-49 46.5-78.5T284-232q86 0 134 32t48 75q0 37-25 56.5t-68 27-99 8.5q-27 1-53 2.5T171-25q-27-18-42-44t-15-55zm39 464q0-48 14-84.5t40.5-57T271 178t61.5 18 37 49 12.5 70q0 44-13 82t-38.5 61-64.5 23q-54 0-83.5-40.5T153 340z" horiz-adv-x="553" unicode="g"/><glyph d="M26 686v42q44 0 68.5 4t37 10 19.5 13h29V450q22 19 49.5 33.5t57 23.5 57.5 9q87 0 125.5-54.5T509 292l1-186V70.5L506 38q16 1 31.5 1.5T569 41V0H365v30q31 0 43 15.5t14 43 2 63.5v140q0 86-28 129-27 42-83 42h-3q-37-1-72.5-18T180 401V106q0-20-1-35.5T175 38q16 1 31.5 1.5T238 41V0H34v30q31 0 43 15.5t14.5 43T94 152v473q0 16 .5 30.5T97 690q-18-1-35.5-2T26 686z" horiz-adv-x="599" unicode="h"/><glyph d="M36 441v42q44 0 68 4t36.5 10 19.5 13h29V106q0-20-.5-35.5T185 38q16 1 31.5 1.5T248 41V0H44v30q31 0 43 15.5t14 43 2 63.5v228q0 16 1 30.5t3 34.5q-18-1-35.5-2T36 441zm52 227q0 25 16.5 42.5T142 728q23 0 38.5-17.5T196 668t-16.5-42-38.5-17q-21 0-37 17t-16 42z" horiz-adv-x="281" unicode="i"/><glyph d="M-88-215q0 18 11.5 32.5T-45-168h3q23 0 32-14 9-16 9-28v-4.5l-1-4.5q14-6 26-6 29 0 44 21t20 53 5 65l2 466q0 16 .5 30.5T98 445q-18-1-35.5-2T27 441v42q44 0 68.5 4t37 10 19.5 13h29V-3q0-93-25-152.5T88-243t-97-28q-41 0-60 17t-19 39zM80 668q0 25 16.5 42.5T134 728q23 0 38.5-17.5T188 668t-16.5-42-38.5-17q-21 0-37 17t-16 42z" horiz-adv-x="212" unicode="j"/><glyph d="M26 686v42q44 0 68 4t36.5 10 19.5 13h29V282h40l122 128q17 17 31 30.5t28 22.5l-68-3v40h182v-30q-34-3-63.5-21.5t-54-41.5-42.5-42l-78-82q20-9 34-23t28-31l71-91q5-6 17.5-23t30-37 37-34T530 30V0h-91q-28 0-53 29t-53 65q-26 36-46.5 65.5t-37 51.5-29.5 34l-41-2V106q0-20-.5-35.5T175 38q16 1 32 1.5t32 1.5V0H35v30q31 0 42.5 15.5t13.5 43 2 63.5l1 473q0 16 .5 30.5T97 690q-18-1-35.5-2T26 686z" horiz-adv-x="537" unicode="k"/><glyph d="M25 686v42q44 0 68.5 4t37 10 19.5 13h29l1-649q0-20-1-35.5T175 38q16 1 31.5 1.5T238 41V0H34v30q31 0 43 15.5t14 43 2 63.5v473q0 16 .5 30.5T96 690q-18-1-35.5-2T25 686z" horiz-adv-x="272" unicode="l"/><glyph d="M36 441v42q44 0 66.5 4t33.5 10 18 13h29q2-10 2.5-23t1.5-30q30 26 69 42.5t78 16.5q50 0 84-18t53-49q34 28 78.5 47.5T637 516q87 0 128-52 39-50 39-161v-11l-1-186q0-20-.5-35.5T799 38q16 1 31.5 1.5T862 41V0H658v30q31 0 43 15.5t14 43 2 63.5v140q1 86-27 129-27 42-84 42h-3q-31 0-62-14t-54-35q5-16 7.5-34.5T497 341q-1-58-1-117t-1-118q0-20-.5-35.5T491 38q16 1 31.5 1.5T554 41V0H350v30q31 0 42.5 15.5t14 43T409 152l1 140v6q0 81-25 124t-82 43h-3q-31 0-61-13.5T188 417q0-12 1-25.5t0-28.5V106q0-20-.5-35.5T185 38q16 1 31.5 1.5T248 41V0H44v30q31 0 43 15.5t14 43 2 63.5v228q0 16 .5 32t3.5 33q-18-1-35.5-2T36 441z" horiz-adv-x="894" unicode="m"/><glyph d="M37 441v42q44 0 66.5 4t33.5 10 18 13h29q1-7 1.5-16t1.5-20 1-25q22 19 48.5 34t56 24 58.5 9q87 0 127-54.5T518 292V106q0-20-.5-35.5T514 38q16 1 31.5 1.5T577 41V0H373v30q31 0 43 15.5t14 43 2 63.5v140q0 86-28 130-27 43-84 43h-3q-36-1-70.5-19T189 400q1-8 1-18v-21l-1-255q0-20-.5-35.5T185 38q16 1 31.5 1.5T248 41V0H44v30q31 0 43 15.5t14 43 2 63.5l1 228q0 16 .5 32t3.5 33q-18-1-35.5-2T37 441z" horiz-adv-x="607" unicode="n"/><glyph d="M41 238q0 79 33 142t90 99.5T292 516q70 0 127-33.5t91-90.5 34-130q0-77-33.5-140.5T420 21 292-16q-70 0-127 32.5t-90.5 90T41 238zm102 29q0-62 17-117.5T212 59t88-35 84 30 44.5 78T442 233q0 45-8.5 88.5t-26.5 79-46.5 56.5-68.5 21q-52 0-85-30t-48.5-78T143 267z" horiz-adv-x="585" unicode="o"/><glyph d="M29 441v42q44 0 66.5 4t33 10 17.5 13h30q1-10 2-23.5t2-30.5q30 27 71.5 43.5T335 516q58 0 108-30t81-85.5T555 268q0-85-35.5-149T426 19.5 300-16q-35 0-64.5 8.5T180 17v-166q0-20-.5-35.5T176-217q16 1 31.5 1.5T239-214v-41H35v30q31 0 43 15.5t14 43 2 63.5l2 483q0 16 .5 32t3.5 33q-18-1-35.5-2T29 441zM181 63q25-19 54.5-29T298 24q48 0 82.5 29.5t53 81T452 252q0 54-15.5 103.5t-49 80.5-88.5 31q-34 0-65.5-16.5T181 411q0-4 .5-11.5t.5-26v-55l-.5-98.5-.5-157z" horiz-adv-x="597" unicode="p"/><glyph d="M42 239q0 84 34.5 146t93 96.5T299 516q42 0 76.5-11t59.5-11q11 0 20.5 3.5T473 510h28l1-659q0-20-.5-35.5T498-217q16 1 31.5 1.5T561-214v-41H357v30q31 0 43 15.5t14 43 2 63.5V47Q390 17 352 .5T266-16q-62 0-113 31.5t-81 89T42 239zm103 24q0-64 18.5-116t54-83T302 33q33 0 63.5 18T416 97v262q0 40-11 66.5t-36 40-68 13.5q-48 0-83-27t-54-75.5T145 263z" horiz-adv-x="576" unicode="q"/><glyph d="M36 442v41h31q43 0 59.5 8.5T154 510h29q2-16 3-39.5t2-59.5q15 25 41 49t58.5 40 68.5 16q28 0 49-15t21-48q0-8-5-19.5t-16-20-29-8.5q-22 1-35 17-11 13-11 31 0 4 1 8h-3q-22 0-48-13-26-14-49.5-38.5T189 352l1-246q0-20-1-35.5T186 38q16 1 31.5 1.5T249 41V0H44v30q31 0 43 15.5t14 43 2 63.5v228q0 16 .5 32t3.5 33q-18-1-35.5-1.5T36 442z" horiz-adv-x="433" unicode="r"/><glyph d="M52 165h31q2-41 23-73.5T160 41t71-18q26 0 51 8.5t42 26 17 44.5q0 28-16.5 46.5T281 181t-58 26q-30 12-60 25t-55.5 31T67 307t-15 64q0 21 8 46t27 47.5 52 37 84 14.5q27 0 60-9t64-34l-2 38h42V336h-32q-2 35-16 67.5t-41 54-70 21.5q-46 0-72-23t-26-53q0-31 19.5-51.5T200 316t66-29q38-16 74-35t59-47.5 23-73.5q0-50-25.5-83t-65-48.5T249-16q-50 0-89 13.5T96 28l4-35H58z" horiz-adv-x="463" unicode="s"/><glyph d="M21 457v43q26 1 53 19.5t48.5 50.5 29.5 70h34V500h168v-39l-168-2-2-278q0-45 7.5-76.5T216 57t44-16q28 0 52.5 16t43.5 44l27-22q-22-33-43.5-52T298-1.5t-37-12-29-2.5q-23 0-47 6.5T140.5 16 108 71.5 96 168l2 290z" horiz-adv-x="387" unicode="t"/><glyph d="M26 442v41h31q43 0 62.5 8.5T150 510h29V205q1-87 25-129t80-41h3q38 1 72.5 23.5T415 112v257q0 24 1 41.5t4 34.5q-18-1-36-1.5t-36-1.5v41h31q43 0 62.5 8.5T472 510h29l-1-378q0-16-1-45t-3-49l36 2 36 2V0H425q-3 17-4.5 32T418 60q-31-31-75-53.5T255-16q-54 0-90.5 20t-55 68T91 202v178q0 16 .5 32t3.5 33q-17-1-34.5-1.5T26 442z" horiz-adv-x="597" unicode="u"/><glyph d="M6 459v41h184v-30q-30 0-38-16-5-9-5-21 0-9 2-19 6-26 18-55l77-176q8-17 15.5-35.5T274 109h1q5 15 11.5 32t11.5 33l80 219q8 24 17 42t13 27l-64-3v41h158v-30q-22 0-37-15t-28.5-45-31.5-75L274-3h-40L91 323q-16 38-25 65t-12.5 45-4.5 29z" horiz-adv-x="505" unicode="v"/><glyph d="M6 459v41h212v-30q-46 0-50-30-1-6 0-14 0-26 12-64l46-140q8-24 16-48.5t16-48.5q9 27 18.5 54.5T295 235l89 265h41l101-291q8-22 16-45l16-46q8 22 15.5 43.5T588 205l66 190q7 20 14 38t16 29l-58-3v41h174v-30q-26-1-42.5-7T730 447t-18-24-13-32L555-3h-40l-95 273q-6 18-12 35.5l-12 35-12 34.5q-6-17-12-34.5l-12-35-12-35.5L254-3h-38L85 381q-7 21-12.5 36T64 443t-5 19z" horiz-adv-x="801" unicode="w"/><glyph d="M22 459v41h206v-30q-44 0-50-20-1-3-1-6 0-21 32-65l58-79 91 110q15 18 25 30.5t20 22.5l-69-4v41h164v-30q-27-8-46-20.5t-37.5-33T369 363l-77-92 138-171q11-15 22-29t22-33l45 3V0H326v30q24 0 34 12 4 4 4 9 0 11-14 28L245 209 161 94q-15-20-23-30t-23-26l77 3V0H24v30q31 8 49 26.5t46 54.5l100 130q-14 19-34 45.5t-37.5 51T120 374q-24 32-35 53t-16 34z" horiz-adv-x="530" unicode="x"/><glyph d="M4 459v41h207v-30h-4q-42-3-46-32-1-3-1-7 0-28 24-79l117-251q23 64 44 126.5T387 352q8 22 16.5 45.5t17 42T436 463l-69-4v41h157v-30q-37-14-55.5-46.5T431 340L306-9q-30-84-55-142.5t-55-89-75-30.5q-31 0-53 15t-22 46q0 18 12 33t31 15h3q22 0 30-15 8-16 8-28v-6.5l-1-7.5q3-2 11-2 12 0 26 10t25 29q13 22 30.5 66T261-11L105 323q-26 56-37.5 89T52 461z" horiz-adv-x="528" unicode="y"/><glyph d="M40 0v41l279 359q16 20 31.5 39.5T376 465l-188-3q-37 0-57.5-19.5t-29.5-51T86 321H55l12 179h392v-32L177 97q-13-16-23-28t-29-28l193-3q42 0 66 19t36 52 18 73h29L455 0H40z" horiz-adv-x="511" unicode="z"/><glyph d="M7 237v52h23q56 0 76 23t20 74q0 39-5 81.5t-5 86.5q0 71 16 116.5t55 67.5 107 22h28v-34q-51 2-79-14t-39-51.5-11-92.5q0-22 3.5-53.5T203 452t3-55q0-41-16-68.5t-41.5-43T94 264v-2q29-5 54.5-21.5t41.5-45 16-70.5q0-23-3-61t-6.5-75-3.5-60q0-57 11-96t39-58 79-18v-28h-28q-68 0-107 24t-55 72-16 118q0 29 2.5 64t5 69 2.5 60q0 51-20 76t-76 25H7z" horiz-adv-x="334" unicode="{"/><glyph d="M79 760h75l-4-1031H82z" horiz-adv-x="231" unicode="|"/><glyph d="M12-243v-28h28q68 0 107 24t55 72 16 118q0 29-2.5 64t-5 69-2.5 60q0 51 20 76t76 25h23v52h-23q-56 0-76 23t-20 74q0 39 5 81.5t5 86.5q0 71-16 116.5T147 738 40 760H12v-34q51 2 79-14t39-51.5 11-92.5q0-22-3.5-53.5T131 452t-3-55q0-41 16-68.5t41.5-43T240 264v-2q-29-5-54.5-21.5t-41.5-45-16-70.5q0-23 3-61t6.5-75 3.5-60q0-57-11-96t-39-58-79-18z" horiz-adv-x="334" unicode="}"/><glyph d="M43 258v63q32 26 59.5 39.5T170 374q39 0 63.5-10.5T277 339t37.5-26 45.5-14q36-3 69 10.5t58 36.5v-63q-20-22-49.5-37T368 231q-37 0-62.5 11.5t-46 26-42 26T166 306q-41 0-68.5-14T43 258z" horiz-adv-x="530" unicode="~"/><glyph d="M63 452q0 27 18 45.5t41 18.5 40.5-18.5T180 452t-18-46-41-19q-25 0-41.5 19T63 452zm1-595l39 413h37l39-413q2-26-12.5-49.5T121-216q-32 0-45.5 23.5T64-143z" horiz-adv-x="243" unicode="¡"/><glyph d="M36 241q0 62 26.5 121t75 101T250 516v106h65l-1-106q77-4 122.5-40t45.5-82q0-22-12-37.5T436 341q-26-1-36.5 15.5T389 386q0 10 3.5 20.5T404 426q-8 24-28 35.5t-41.5 15T299 480q-68 0-114.5-55T138 266q0-67 21.5-119T220 65t90-30q47 0 90 25.5t67 61.5l26-20q-35-55-86.5-84T308-16l-1-118h-58v118q-60 8-108.5 40.5T64 112 36 241z" horiz-adv-x="531" unicode="¢"/><glyph d="M47 21q0 27 24.5 51.5T134 108q11 17 18.5 40t7.5 51q0 32-5 59t-13 54H63v48h66q-7 29-12.5 62t-5.5 75q0 67 24 116t65.5 76 95.5 27q59 0 93-19.5t48.5-46.5 14.5-50q0-18-10-30.5T412 556q-15 0-23.5 6.5t-12.5 16-4 16.5q0 6 2.5 15.5T385 629q-6 20-26 34.5T304 678q-37 0-62.5-20T203 606t-13-69q0-51 8.5-93.5T214 360h152v-48H223q6-44 5.5-74.5t-11.5-58-40-62.5q12 2 25.5 3t26.5 1q43 0 80-15t67.5-30T429 61t36.5 15.5T482 124h32q-2-60-27.5-100T412-16q-31 0-60.5 14.5t-58 33.5T235 65.5 171 80h-8l-8-1q-5-38-25.5-66.5T84-16Q67-16 57-4.5T47 21z" horiz-adv-x="548" unicode="£"/><glyph d="M61 72l59 67q-36 50-36 115 0 32 10 63t29 57l-62 70 41 33 54-68q22 18 50 28.5t62 10.5q35 0 63-10.5t50-28.5l54 68 40-33-62-70q20-26 29.5-57t9.5-63q0-65-36-115l59-67-40-32-51 65q-22-18-51.5-28T268 67t-64 10-51 27l-51-64zm109 199q0-24 4.5-52.5t15-54 29.5-42 49-16.5 49 16.5 29.5 42 15 54T366 271q0 19-5 43t-16 46.5-30 37.5-47 15-47-15-30-37.5-16-46.5-5-43z" horiz-adv-x="535" unicode="¤"/><glyph d="M28 656v44h258v-33q-46 0-64-14t-13.5-38.5T233 558l83-132q11-16 18.5-27.5t17-24T377 340q5 9 9.5 18t9 17.5l9 17 9 17L422 426l83 157q5 10 12.5 23.5t17 28T553 659q-19-1-39-1.5t-40-1.5v44h204v-33q-49-3-80.5-34T531 538L413 315h121v-43l-130-1-1-63 131-1v-43l-131-1q1-38 1-60t-.5-36-2.5-27q21 1 41.5 2t41.5 2V0H249v33q31 1 45.5 12T313 83.5t4 79.5l-128-1v47l128-1v63l-128-1v47l99-1-144 229q-25 40-37.5 67T90 658q-16-1-31-1t-31-1z" horiz-adv-x="705" unicode="¥"/><glyph d="M84 101h75l-4-372H87zm0 659h75l-4-375H87z" horiz-adv-x="243" unicode="¦"/><glyph d="M38 304q0 42 23.5 86.5T126 470q-19 22-29.5 49.5T84 582q-1 26 8.5 56.5T124 697t58.5 45.5T272 760q54 0 94-18.5t62.5-47T451 636q0-19-10.5-32.5T410 589q-16 0-25 7t-13 17-4 17q0 6 2.5 17t9.5 17q-10 25-38 41.5T276 722q-46 0-73-18t-38.5-43.5T153 613q0-31 17.5-56t47-46 65-41 70.5-42q38-23 70.5-51.5T476 311t20-86q0-43-23.5-87.5T408 58q19-22 30-49t11-62q0-24-9.5-54t-31-57.5-58-45.5-89.5-18q-58 0-98 19.5t-60 49T83-100q0 19 11.5 35T125-49q16 1 25.5-6T164-72.5t4-21.5q0-5-3-14.5t-8-16.5q2-25 31.5-44.5T257-189q46 0 73 17t38.5 41.5T380-84q0 31-17 55t-45 44.5T256 56t-69 41q-38 24-72.5 52.5t-55.5 66T38 304zm77 37q0-43 18.5-74.5t49-55T249 168t72-40.5T386 81q17 22 25.5 50.5T420 188q0 43-18.5 74T353 316.5 286.5 360 214 401t-65 46q-17-22-25.5-50.5T115 341z" horiz-adv-x="533" unicode="§"/><glyph d="M60 670q0 25 15.5 42.5T110 730q22 0 36-17.5t14-42.5-15-42-35-17-35 17-15 42zm167 0q0 25 15.5 42.5T277 730q22 0 36-17.5t14-42.5-15-42-35-17-35 17-15 42z" horiz-adv-x="387" unicode="¨"/><glyph d="M44 348q0 83 29.5 155.5t82.5 128 125.5 87T440 750q87 0 159.5-31.5t125-87 81.5-128T835 348q0-82-30.5-154t-85-127T593-19 438-50q-89 0-161.5 29.5T152 62.5 72 189 44 348zm67 0q0-69 22.5-131.5T199 105t104-77T441 0q75 0 135 28t103.5 77T746 216.5 769 348t-23.5 132.5T678 594t-105 78.5T438 701q-73 0-133.5-28.5T201 594t-66.5-113.5T111 348zm91-2q0 44 15.5 89t46.5 82 77 59.5T447 599q37 0 71-11t60-30l-4 36h50V426h-40q-8 65-44.5 92T451 545q-38 0-73.5-21T319 461.5 296 358q0-55 22.5-99t62.5-69 92-25q33 0 74.5 20t69.5 54l30-35q-29-40-65.5-62.5t-72.5-31-65-8.5q-69 0-123.5 32.5t-86.5 88T202 346z" horiz-adv-x="877" unicode="©"/><glyph d="M54 455q0 30 18 51.5t47.5 35.5 63.5 20.5 67 6.5v35q0 20-3.5 37.5t-16 29T190 683q-19 1-38-10t-26-28q5-5 7-11t2-14q0-9-7.5-20.5T102 589q-15 0-23.5 10.5T70 624q0 23 17 44t46.5 34.5T200 716q54 0 83.5-28.5T312 597q0-28-.5-56t-.5-56q0-33 7.5-46.5T339 425q4 0 8.5 2.5t9.5 6.5l11-19q-8-12-27-22.5T304 382q-26 0-38 13.5T250 425q-18-20-42-32.5T152 380q-49 0-73.5 21.5T54 455zm71 6q2-19 14.5-27.5T160 423q23-3 46 7t42 29q0 12 .5 33.5T250 538q-31 0-60.5-8t-48-25-16.5-44z" horiz-adv-x="409" unicode="ª"/><glyph d="M32 273L306-7l31 31-197 253v2l195 238-32 31L32 277v-4zm213-2L443 77l32 29-121 163v2l119 164-32 29-196-190v-3z" horiz-adv-x="530" unicode="«"/><glyph d="M36 282v62l446-2V157h-52l-3 127z" horiz-adv-x="530" unicode="¬"/><glyph d="M67 285v70h355v-66z" horiz-adv-x="293" unicode="­"/><glyph d="M44 348q0 83 29 156t82 128.5T280.5 719 440 750q88 0 160.5-31t125-86.5 81-128.5T835 348t-30.5-155-85-126.5T593-19 438-50q-89 0-161.5 29.5T152 62 72 188 44 348zm68 0q0-69 22.5-131.5t65-111T303 29 441 1q75 0 135.5 28T680 105.5t66 111T769 348q0 70-23.5 133.5t-67.5 113-104.5 78T438 701q-74 0-134-28.5t-103-78-66-113T112 348zm139-212v34q37 1 42.5 23t5.5 57v261q0 14 .5 26t1.5 22l-50-5v42q25 1 58.5 2t67.5 2 59 0q97-2 141-41t44-91q0-22-11-48.5t-37-50-73-36.5q8-4 18.5-14t23.5-28q38-56 59.5-83t35.5-34.5 28-7.5v-34h-87q-15 4-33 25t-42 55q-14 20-27.5 40T450 290l-22 33q-10-1-28.5-1t-26.5 1v-98q0-17-.5-29.5T371 174l48 2 2-40H251zm122 229q13-1 25-1.5t25 .5q24 1 52 11t48 31.5 20 58.5q0 33-18 54t-46 31-59 7q-37-4-42-26t-5-58V365z" horiz-adv-x="878" unicode="®"/><glyph d="M45 640v60h265v-56z" horiz-adv-x="355" unicode="¯"/><glyph d="M47 561q0 43 21.5 78t57.5 56 78 21q47 0 81.5-21t53.5-56 19-78-21.5-79-57-57-78.5-21q-47 0-81.5 21T66 482t-19 79zm63 0q0-42 25.5-73.5T203 456q41 0 66.5 31.5T295 561q0 41-25.5 73.5T202 667q-41 0-66.5-32.5T110 561z" horiz-adv-x="405" unicode="°"/><glyph d="M42 0v50h446V0H42zm0 340v50h446v-50H42zm198-203v446h50V137h-50z" horiz-adv-x="530" unicode="±"/><glyph d="M61 306q0 42 16.5 74t43 59.5T178 492q42 35 53 65t11 51q0 32-16.5 52T179 680q-25 0-41.5-12T117 640q5-4 7-10t2-13q0-8-6.5-19T96 588q-13 0-20.5 9.5T68 620q0 20 14 42t42 38 68 16q31 0 58.5-11.5t44.5-35 17-60.5q0-19-8-41t-33-49.5-76-64.5q-34-25-53.5-47.5T116 362l84-2h50.5l33.5 8.5 12 31.5h25l-4-94H61z" horiz-adv-x="385" unicode="²"/><glyph d="M54 395q0 14 8 25t22 11q18 1 25-10t7-22q0-5-2-11t-6-11q3-19 22.5-28.5T172 339q39 0 58.5 26.5T250 423q0 17-6 37t-24 35-53 15h-11l-16-1v32h11q39 0 56.5 13.5t22 31T234 613q0 25-13.5 48.5T169 683q-24-1-38.5-13T113 643q5-4 7-10t2-12q0-8-6.5-19T92 592q-13 0-20.5 10T64 625q0 18 13.5 39.5t40 36.5 65.5 15q51 0 82.5-26.5T297 619q0-25-21-51.5T213 530q52-5 78-35.5t26-71.5q0-50-38.5-84.5T172 305q-58 2-88 30.5T54 395z" horiz-adv-x="370" unicode="³"/><glyph d="M45 603l84 135q15 22 29 25.5t24-.5 12-6q4-3 9-13t2.5-24.5T185 686L73 580z" horiz-adv-x="252" unicode="´"/><glyph d="M94-173l1 673h84V236q0-57 8.5-102.5t32-72T286 35q37 0 69 21t51 50v394h85l-1-359q0-34 5.5-54.5T511 57t24-9q9 0 19 3.5T577 65l11-15q-13-18-39.5-37T487-6q-37 0-54 19t-22 43q-28-29-70-50.5T256-16q-37 0-65 22t-48 59l-2-1q8-80 16.5-126t16-71 12.5-40 5-33q0-19-11-36.5T146-260q-28 0-40 23.5T94-173z" horiz-adv-x="614" unicode="µ"/><glyph d="M33 555q0 48 20.5 80t53.5 48.5 68 16.5h227l-2-955h-70l2 914-87-3-3-911h-70l2 664q-33 3-65.5 17.5t-54 45.5T33 555z" horiz-adv-x="501" unicode="¶"/><glyph d="M67 328q0 27 18 46t41 19q25 0 41.5-19t16.5-46-18-45.5-41-18.5-40.5 18.5T67 328z" horiz-adv-x="250" unicode="·"/><glyph d="M45-208q26 5 47.5 12t38 16.5T156-158t9 27q0 20-13.5 26t-31.5 2.5T88-116l-34 16L83 8h56l-27-82q14 8 32.5 12.5T180-57q31 0 49-18t18-48-20.5-51-52-34.5-64.5-21T51-241z" horiz-adv-x="292" unicode="¸"/><glyph d="M45 635l111 81h25l1-344v-21l-2-18q13 1 25.5 1t25.5 1v-34H76v28q31 0 40 21.5t9 52.5v241l-64-37z" horiz-adv-x="283" unicode="¹"/><glyph d="M48 541q0 50 21.5 89.5T128 693t84 23q46 0 82-21t57-57.5 21-84.5q1-50-20-89.5T294 402t-85-22q-45 0-81.5 20.5t-58 57T48 541zm73 18q0-39 10.5-72t31.5-52.5 54-18.5q41 1 63 36.5t22 85.5q0 37-9.5 70.5t-30 54.5-54.5 20q-42-2-64.5-37.5T121 559z" horiz-adv-x="419" unicode="º"/><glyph d="M55 106l121 163v2L57 435l32 29 196-190v-3L87 77zm138-82l197 253v2L195 517l32 31 271-271v-4L224-7z" horiz-adv-x="530" unicode="»"/><glyph d="M45 635l111 81h25l1-344v-21l-2-18q13 1 25.5 1t25.5 1v-34H76v28q31 0 40 21.5t9 52.5v241l-64-37zm82-625l467 706 44-31L165-16zm306 95v30l199 276h26l1-269 56-1v-36h-56V32q11 1 21 1t20 1V0H553v29q31 1 40 19.5t9 46.5v10H433zm47 40l122-2v171z" horiz-adv-x="757" unicode="¼"/><glyph d="M45 635l111 81h25l1-344v-21l-2-18q13 1 25.5 1t25.5 1v-34H76v28q31 0 40 21.5t9 52.5v241l-64-37zm82-625l467 706 44-31L165-16zm357-9q0 42 16.5 74t43 59.5T601 187q42 35 53 65t11 51q0 32-16.5 52T602 375q-25 0-41.5-12T540 335q5-4 7-10t2-13q0-8-6.5-19T519 283q-13 0-20.5 9.5T491 315q0 20 14 42t42 38 68 16q31 0 58.5-11.5t44.5-35 17-60.5q0-19-8-41t-33-49.5-76-64.5q-34-25-53.5-47.5T539 57l84-2h50.5l33.5 8.5L719 95h25l-4-94H484z" horiz-adv-x="785" unicode="½"/><glyph d="M54 395q0 14 8 25t22 11q18 1 25-10t7-22q0-5-2-11t-6-11q3-19 22.5-28.5T172 339q39 0 58.5 26.5T250 423q0 17-6 37t-24 35-53 15h-11l-16-1v32h11q39 0 56.5 13.5t22 31T234 613q0 25-13.5 48.5T169 683q-24-1-38.5-13T113 643q5-4 7-10t2-12q0-8-6.5-19T92 592q-13 0-20.5 10T64 625q0 18 13.5 39.5t40 36.5 65.5 15q51 0 82.5-26.5T297 619q0-25-21-51.5T213 530q52-5 78-35.5t26-71.5q0-50-38.5-84.5T172 305q-58 2-88 30.5T54 395zM166 10l467 706 44-31L204-16zm306 95v30l199 276h26l1-269 56-1v-36h-56V32q11 1 21 1t20 1V0H592v29q31 1 40 19.5t9 46.5v10H472zm47 40l122-2v171z" horiz-adv-x="796" unicode="¾"/><glyph d="M33-42q3 41 26.5 74.5T116 94t65 52 54 45.5 22 41.5q0 12-9.5 22.5T215 266q-8 0-18-1.5t-19-5.5l-12 35q16 9 38 13.5t40 4.5q29 0 54.5-15t25.5-52q0-22-13-41t-34.5-38-44.5-39q-38-32-70-72.5T128-44q-1-37 10-67t38-48 74-18q28 0 52.5 11t39.5 27.5 18 32.5q-5 8-8.5 18T348-67q0 8 5 18.5T368-31t26 7q22-2 32.5-16.5T437-77q0-29-24.5-61.5t-69.5-55T235-216q-78 0-122.5 26t-63 66T33-42zm151 499q0 25 15.5 42t38.5 17q20 0 37-15.5t17-43.5q0-24-17-41.5T238 398q-23 0-38.5 17.5T184 457z" horiz-adv-x="467" unicode="¿"/><glyph d="M-6 0v33q30 0 46 16t26.5 44T91 158l206 561h24l223-569q8-21 18-54t8-56l34 2 34 2V0H409v33q38 1 50 17t9 38-10 40l-35 94-260-6-35-107q-7-24-12.5-38T103 40q20 1 39.5 2t38.5 2V0H-6zm174.5 899.5Q171 910 174 914q2 3 10.5 8.5t23 4.5 33.5-18l126-120-22-29-145 89q-22 14-28 27t-3.5 23.5zM178 259h231l-71 191q-11 31-22.5 61.5T293 573h-2q-10-28-20.5-56T249 460z" horiz-adv-x="626" unicode="À"/><glyph d="M-6 0v33q30 0 46 16t26.5 44T91 158l206 561h24l223-569q8-21 18-54t8-56l34 2 34 2V0H409v33q38 1 50 17t9 38-10 40l-35 94-260-6-35-107q-7-24-12.5-38T103 40q20 1 39.5 2t38.5 2V0H-6zm184 259h231l-71 191q-11 31-22.5 61.5T293 573h-2q-10-28-20.5-56T249 460zm73 530l22-29 145 89q22 14 28 27t3.5 23.5T444 914q-2 3-10.5 8.5t-23 4.5-33.5-18z" horiz-adv-x="626" unicode="Á"/><glyph d="M-6 0v33q30 0 46 16t26.5 44T91 158l206 561h24l223-569q8-21 18-54t8-56l34 2 34 2V0H409v33q38 1 50 17t9 38-10 40l-35 94-260-6-35-107q-7-24-12.5-38T103 40q20 1 39.5 2t38.5 2V0H-6zm164 789l155 142h2l147-141-23-30-129 84-127-84zm20-530h231l-71 191q-11 31-22.5 61.5T293 573h-2q-10-28-20.5-56T249 460z" horiz-adv-x="626" unicode="Â"/><glyph d="M-6 0v33q30 0 46 16t26.5 44T91 158l206 561h24l223-569q8-21 18-54t8-56l34 2 34 2V0H409v33q38 1 50 17t9 38-10 40l-35 94-260-6-35-107q-7-24-12.5-38T103 40q20 1 39.5 2t38.5 2V0H-6zm122 807q17 44 49.5 73t63.5 30q30 1 51-9.5t38-24.5 34-25 37-11q27 0 46.5 19.5T470 905l32-16q-14-41-33.5-65.5T427 788t-44-11q-29 0-51 10.5t-40 25-34 25-34 10.5q-22 0-38.5-16T150 788zm62-548h231l-71 191q-11 31-22.5 61.5T293 573h-2q-10-28-20.5-56T249 460z" horiz-adv-x="626" unicode="Ã"/><glyph d="M-6 0v33q30 0 46 16t26.5 44T91 158l206 561h24l223-569q8-21 18-54t8-56l34 2 34 2V0H409v33q38 1 50 17t9 38-10 40l-35 94-260-6-35-107q-7-24-12.5-38T103 40q20 1 39.5 2t38.5 2V0H-6zm171 839q0 27 16.5 45.5T220 903q23 0 38.5-18.5T274 839q0-26-16.5-44.5T219 776t-38 18.5-16 44.5zm13-580h231l-71 191q-11 31-22.5 61.5T293 573h-2q-10-28-20.5-56T249 460zm167 580q0 27 16.5 45.5T400 903q23 0 38-18.5t15-45.5q0-26-16-44.5T399 776t-38 18.5-16 44.5z" horiz-adv-x="626" unicode="Ä"/><glyph d="M-6 0v33q30 0 46 16t26.5 44T91 158l206 561h24l223-569q8-21 18-54t8-56l34 2 34 2V0H409v33q38 1 50 17t9 38-10 40l-35 94-260-6-35-107q-7-24-12.5-38T103 40q20 1 39.5 2t38.5 2V0H-6zm184 259h231l-71 191q-11 31-22.5 61.5T293 573h-2q-10-28-20.5-56T249 460zm17 561q-1 35 15.5 61t43 40.5T308 936q27 0 53-11t43.5-34 18.5-59-15.5-62.5-43-40.5-54.5-14-54 11-42.5 34.5T195 820zm58 10q0-37 16.5-59t44.5-21q20 1 35.5 19t15.5 49q0 43-17 64.5T305 902q-23-1-37.5-20.5T253 830z" horiz-adv-x="626" unicode="Å"/><glyph d="M-21 0v33q27 0 47 14.5t36 36T91 125l361 535-90-4v44h501l5-175h-33q0 59-18 89.5t-48.5 41T700 665l-86-2q-37-1-53-14t-19.5-38.5T538 544V384l188-1-7 86h44V259h-33q0 44-12 63t-38 23-69 2l-73-3V118q0-27-.5-46T535 40l197-3q43 0 73.5 15t47.5 50 17 93h34L898 0H382v36q28 2 42.5 10T445 73.5t6 56.5v91l-243-5-49-73q-17-25-34.5-51T90 40l76 4V0H-21zm257 259h215v323z" horiz-adv-x="949" unicode="Æ"/><glyph d="M46 339q0 71 21.5 138T132 598t108.5 86T393 716q56 0 106-15t96-46l-5 54h54V477h-36q-10 94-65.5 146T400 675q-53 0-99.5-22.5T219 588t-55-101-20-133q0-94 36-166t97-112 135-40q65 0 128 29.5T643 151l26-21q-43-59-93-91T476.5-4.5 386-16q-75 0-137.5 27t-108 75.5-70 113T46 339zm282-561q26 5 48 12.5t38.5 18 26 23T450-141q0 21-12.5 27.5T407-110t-33-13l-36 17L367 8h58l-27-85q14 9 33.5 12.5T463-61q38 0 57.5-20.5T540-132t-22-52.5-55.5-38-68-24.5-60.5-13z" horiz-adv-x="699" unicode="Ç"/><glyph d="M55 0v33q38 2 52 17.5t15.5 43T124 156v432q0 20 1 38.5t2 33.5l-36-2-36-2v44h481l5-175h-33q0 59-18 89.5t-48.5 41T373 665l-86-2q-37-1-53-14t-19.5-38.5T211 544V384l188-1-7 86h44V259h-33q0 44-12 63t-38 23-69 2l-73-3V115q0-27-.5-46T208 37l191 3q44 1 76 14.5t50 47.5 18 93h34L571 0H55zm131.5 899.5Q189 910 192 914q2 3 10.5 8.5t23 4.5 33.5-18l126-120-22-29-145 89q-22 14-28 27t-3.5 23.5z" horiz-adv-x="622" unicode="È"/><glyph d="M55 0v33q38 2 52 17.5t15.5 43T124 156v432q0 20 1 38.5t2 33.5l-36-2-36-2v44h481l5-175h-33q0 59-18 89.5t-48.5 41T373 665l-86-2q-37-1-53-14t-19.5-38.5T211 544V384l188-1-7 86h44V259h-33q0 44-12 63t-38 23-69 2l-73-3V115q0-27-.5-46T208 37l191 3q44 1 76 14.5t50 47.5 18 93h34L571 0H55zm215 789l22-29 145 89q22 14 28 27t3.5 23.5T463 914q-2 3-10.5 8.5t-23 4.5-33.5-18z" horiz-adv-x="622" unicode="É"/><glyph d="M55 0v33q38 2 52 17.5t15.5 43T124 156v432q0 20 1 38.5t2 33.5l-36-2-36-2v44h481l5-175h-33q0 59-18 89.5t-48.5 41T373 665l-86-2q-37-1-53-14t-19.5-38.5T211 544V384l188-1-7 86h44V259h-33q0 44-12 63t-38 23-69 2l-73-3V115q0-27-.5-46T208 37l191 3q44 1 76 14.5t50 47.5 18 93h34L571 0H55zm121 789l155 142h2l147-141-23-30-129 84-127-84z" horiz-adv-x="622" unicode="Ê"/><glyph d="M55 0v33q38 2 52 17.5t15.5 43T124 156v432q0 20 1 38.5t2 33.5l-36-2-36-2v44h481l5-175h-33q0 59-18 89.5t-48.5 41T373 665l-86-2q-37-1-53-14t-19.5-38.5T211 544V384l188-1-7 86h44V259h-33q0 44-12 63t-38 23-69 2l-73-3V115q0-27-.5-46T208 37l191 3q44 1 76 14.5t50 47.5 18 93h34L571 0H55zm128 839q0 27 16.5 45.5T238 903q23 0 38.5-18.5T292 839q0-26-16.5-44.5T237 776t-38 18.5-16 44.5zm180 0q0 27 16.5 45.5T418 903q23 0 38-18.5t15-45.5q0-26-16-44.5T417 776t-38 18.5-16 44.5z" horiz-adv-x="622" unicode="Ë"/><glyph d="M30.5 899.5Q33 910 36 914q2 3 10.5 8.5t23 4.5 33.5-18l126-120-22-29-145 89q-22 14-28 27t-3.5 23.5zM55 0v33q38 2 52 17.5t15.5 43T124 156v432q0 20 1 38.5t2 33.5l-36-2-36-2v44h225v-33q-37-1-51.5-17t-16-43-1.5-63V119q0-27-.5-46.5T208 40l36 2 36 2V0H55z" horiz-adv-x="335" unicode="Ì"/><glyph d="M55 0v33q38 2 52 17.5t15.5 43T124 156v432q0 20 1 38.5t2 33.5l-36-2-36-2v44h225v-33q-37-1-51.5-17t-16-43-1.5-63V119q0-27-.5-46.5T208 40l36 2 36 2V0H55zm59 789l22-29 145 89q22 14 28 27t3.5 23.5T307 914q-2 3-10.5 8.5t-23 4.5-33.5-18z" horiz-adv-x="335" unicode="Í"/><glyph d="M20 789l155 142h2l147-141-23-30-129 84-127-84zM55 0v33q38 2 52 17.5t15.5 43T124 156v432q0 20 1 38.5t2 33.5l-36-2-36-2v44h225v-33q-37-1-51.5-17t-16-43-1.5-63V119q0-27-.5-46.5T208 40l36 2 36 2V0H55z" horiz-adv-x="335" unicode="Î"/><glyph d="M27 839q0 27 16.5 45.5T82 903q23 0 38.5-18.5T136 839q0-26-16.5-44.5T81 776t-38 18.5T27 839zM55 0v33q38 2 52 17.5t15.5 43T124 156v432q0 20 1 38.5t2 33.5l-36-2-36-2v44h225v-33q-37-1-51.5-17t-16-43-1.5-63V119q0-27-.5-46.5T208 40l36 2 36 2V0H55zm152 839q0 27 16.5 45.5T262 903q23 0 38-18.5t15-45.5q0-26-16-44.5T261 776t-38 18.5-16 44.5z" horiz-adv-x="335" unicode="Ï"/><glyph d="M19 335v42h374v-42H19zM56 0v33q38 2 52 17.5t15.5 43T125 156v432q0 20 1 38.5t2 33.5l-36-2-36-2v44l236 1q90 0 165-21t129.5-64.5 84-110T700 349q0-69-24-132t-72-111.5-119.5-77T319 0H56zm153 40q27-1 49.5-1.5t38-.5H316q65 0 117.5 24t90 66.5 58 100T602 353q0 95-34.5 164.5T462 625.5 281 664q-37 0-51.5-15t-16-42-1.5-63V118q0-27-.5-46T209 40z" horiz-adv-x="746" unicode="Ð"/><glyph d="M57 0v33q31 0 44.5 13.5t17.5 32 4 33.5l1 481v67q-16-1-33-2l-34-2v44h119l375-502q13-17 25.5-34t25.5-34h1l1 458q0 20 1 38.5t2 33.5l-36-2-36-2v44h184v-33q-37-1-51-17t-15-43-1-63l-2-560h-48L203 520q-9 12-17.5 23.5T168 567h-1l3-428V89l-2-49 36 2 36 2V0H57zm145 807q17 44 49.5 73t63.5 30q30 1 51-9.5t38-24.5 34-25 37-11q27 0 46.5 19.5T556 905l32-16q-14-41-33.5-65.5T513 788t-44-11q-29 0-51 10.5t-40 25-34 25-34 10.5q-22 0-38.5-16T236 788z" horiz-adv-x="762" unicode="Ñ"/><glyph d="M46 350q0 63 21 127.5T131.5 596t109 87T394 716q92 0 159-33t110.5-87.5 65-118.5T750 350q0-62-21-126.5t-64.5-119T556 17 402-16q-95 0-163 32t-110.5 85.5T66 220 46 350zm98 18q0-55 15.5-115T207 141t81-84 116-32q62 0 108 26.5t76.5 71 46 99T650 331q0 62-17 123t-50 111-81.5 80.5T391 676t-108.5-27-77-71.5-46-99T144 368zm104.5 531.5Q251 910 254 914q2 3 10.5 8.5t23 4.5 33.5-18l126-120-22-29-145 89q-22 14-28 27t-3.5 23.5z" horiz-adv-x="794" unicode="Ò"/><glyph d="M46 350q0 63 21 127.5T131.5 596t109 87T394 716q92 0 159-33t110.5-87.5 65-118.5T750 350q0-62-21-126.5t-64.5-119T556 17 402-16q-95 0-163 32t-110.5 85.5T66 220 46 350zm98 18q0-55 15.5-115T207 141t81-84 116-32q62 0 108 26.5t76.5 71 46 99T650 331q0 62-17 123t-50 111-81.5 80.5T391 676t-108.5-27-77-71.5-46-99T144 368zm188 421l22-29 145 89q22 14 28 27t3.5 23.5T525 914q-2 3-10.5 8.5t-23 4.5-33.5-18z" horiz-adv-x="794" unicode="Ó"/><glyph d="M46 350q0 63 21 127.5T131.5 596t109 87T394 716q92 0 159-33t110.5-87.5 65-118.5T750 350q0-62-21-126.5t-64.5-119T556 17 402-16q-95 0-163 32t-110.5 85.5T66 220 46 350zm98 18q0-55 15.5-115T207 141t81-84 116-32q62 0 108 26.5t76.5 71 46 99T650 331q0 62-17 123t-50 111-81.5 80.5T391 676t-108.5-27-77-71.5-46-99T144 368zm94 421l155 142h2l147-141-23-30-129 84-127-84z" horiz-adv-x="794" unicode="Ô"/><glyph d="M46 350q0 63 21 127.5T131.5 596t109 87T394 716q92 0 159-33t110.5-87.5 65-118.5T750 350q0-62-21-126.5t-64.5-119T556 17 402-16q-95 0-163 32t-110.5 85.5T66 220 46 350zm98 18q0-55 15.5-115T207 141t81-84 116-32q62 0 108 26.5t76.5 71 46 99T650 331q0 62-17 123t-50 111-81.5 80.5T391 676t-108.5-27-77-71.5-46-99T144 368zm52 439q17 44 49.5 73t63.5 30q30 1 51-9.5t38-24.5 34-25 37-11q27 0 46.5 19.5T550 905l32-16q-14-41-33.5-65.5T507 788t-44-11q-29 0-51 10.5t-40 25-34 25-34 10.5q-22 0-38.5-16T230 788z" horiz-adv-x="794" unicode="Õ"/><glyph d="M46 350q0 63 21 127.5T131.5 596t109 87T394 716q92 0 159-33t110.5-87.5 65-118.5T750 350q0-62-21-126.5t-64.5-119T556 17 402-16q-95 0-163 32t-110.5 85.5T66 220 46 350zm98 18q0-55 15.5-115T207 141t81-84 116-32q62 0 108 26.5t76.5 71 46 99T650 331q0 62-17 123t-50 111-81.5 80.5T391 676t-108.5-27-77-71.5-46-99T144 368zm101 471q0 27 16.5 45.5T300 903q23 0 38.5-18.5T354 839q0-26-16.5-44.5T299 776t-38 18.5-16 44.5zm180 0q0 27 16.5 45.5T480 903q23 0 38-18.5t15-45.5q0-26-16-44.5T479 776t-38 18.5-16 44.5z" horiz-adv-x="794" unicode="Ö"/><glyph d="M90 219l316 316 34-34-316-316zm3 285l36 35 315-315-35-36z" horiz-adv-x="530" unicode="×"/><glyph d="M45 350q0 63 21 127.5T130.5 596t109 87T393 716q92 0 159-33t110.5-87.5 65-118.5T749 350q0-62-21-126.5t-64.5-119T555 17 401-16q-95 0-163 32t-110.5 85.5T65 220 45 350zm98 18q0-55 15.5-115T206 141t81-84 116-32q62 0 108 26.5t76.5 71 46 99T649 331q0 62-17 123t-50 111-81.5 80.5T390 676t-108.5-27-77-71.5-46-99T143 368zm2-418l466 805 54-34L193-80z" horiz-adv-x="794" unicode="Ø"/><glyph d="M31 657v43h224v-33q-33 0-47.5-14T190 620.5t-3-32.5V336q0-56 7.5-108.5T223 133t62.5-67T394 41q72 0 117.5 34t67 94T601 307l3 281q0 20 1 38.5t2 33.5q-18-1-35.5-2t-35.5-2v44h186v-33q-38-1-52.5-17t-16-43-1.5-63l-2-232q0-65-14-124T590.5 83t-83-72.5T381-16q-80 0-134.5 21t-87 65T113 181 99 341v203q0 26 1.5 61.5T103 660q-18-1-36-1.5T31 657zm216.5 242.5Q250 910 253 914q2 3 10.5 8.5t23 4.5 33.5-18l126-120-22-29-145 89q-22 14-28 27t-3.5 23.5z" horiz-adv-x="752" unicode="Ù"/><glyph d="M31 657v43h224v-33q-33 0-47.5-14T190 620.5t-3-32.5V336q0-56 7.5-108.5T223 133t62.5-67T394 41q72 0 117.5 34t67 94T601 307l3 281q0 20 1 38.5t2 33.5q-18-1-35.5-2t-35.5-2v44h186v-33q-38-1-52.5-17t-16-43-1.5-63l-2-232q0-65-14-124T590.5 83t-83-72.5T381-16q-80 0-134.5 21t-87 65T113 181 99 341v203q0 26 1.5 61.5T103 660q-18-1-36-1.5T31 657zm300 132l22-29 145 89q22 14 28 27t3.5 23.5T524 914q-2 3-10.5 8.5t-23 4.5-33.5-18z" horiz-adv-x="752" unicode="Ú"/><glyph d="M31 657v43h224v-33q-33 0-47.5-14T190 620.5t-3-32.5V336q0-56 7.5-108.5T223 133t62.5-67T394 41q72 0 117.5 34t67 94T601 307l3 281q0 20 1 38.5t2 33.5q-18-1-35.5-2t-35.5-2v44h186v-33q-38-1-52.5-17t-16-43-1.5-63l-2-232q0-65-14-124T590.5 83t-83-72.5T381-16q-80 0-134.5 21t-87 65T113 181 99 341v203q0 26 1.5 61.5T103 660q-18-1-36-1.5T31 657zm206 132l155 142h2l147-141-23-30-129 84-127-84z" horiz-adv-x="752" unicode="Û"/><glyph d="M31 657v43h224v-33q-33 0-47.5-14T190 620.5t-3-32.5V336q0-56 7.5-108.5T223 133t62.5-67T394 41q72 0 117.5 34t67 94T601 307l3 281q0 20 1 38.5t2 33.5q-18-1-35.5-2t-35.5-2v44h186v-33q-38-1-52.5-17t-16-43-1.5-63l-2-232q0-65-14-124T590.5 83t-83-72.5T381-16q-80 0-134.5 21t-87 65T113 181 99 341v203q0 26 1.5 61.5T103 660q-18-1-36-1.5T31 657zm213 182q0 27 16.5 45.5T299 903q23 0 38.5-18.5T353 839q0-26-16.5-44.5T298 776t-38 18.5-16 44.5zm180 0q0 27 16.5 45.5T479 903q23 0 38-18.5t15-45.5q0-26-16-44.5T478 776t-38 18.5-16 44.5z" horiz-adv-x="752" unicode="Ü"/><glyph d="M-6 656v44h258v-33q-46 0-64-14t-13.5-38.5T199 558l80-126q9-14 19-29t20.5-30.5T341 340h2q11 22 22 42.5t21 39.5l85 161q5 10 12.5 23.5t16.5 28 19 24.5q-19-1-39-1.5t-40-1.5v44h204v-33q-49-3-80.5-34T497 538q-34-64-65.5-123T371 300q0-18-.5-48t-.5-60.5V119q0-27-.5-46.5T367 40q21 1 41.5 2t41.5 2V0H215v33q38 2 51.5 18t15 43.5T283 156l1 114-174 275q-25 40-37.5 67T56 658q-16-1-31-1t-31-1zm280 133l22-29 145 89q22 14 28 27t3.5 23.5T467 914q-2 3-10.5 8.5t-23 4.5-33.5-18z" horiz-adv-x="634" unicode="Ý"/><glyph d="M55 0v33q38 2 52 17.5t15.5 43T124 156v432q0 20 1 38.5t2 33.5l-36-2-36-2v44h225v-33q-46-1-57.5-25.5T211 578l54 1q97 0 163.5-20t102-61.5T570 392q3-39-10.5-79.5t-50.5-75T406 182t-169-21h-26q0-53-.5-80T208 40l36 2 36 2V0H55zm156 203q18-3 32.5-3.5t32.5.5q101 2 149 52.5T473 377q0 40-13 70.5T421.5 499t-63 31.5T271 541q-18 0-32-.5t-28-1.5V203z" horiz-adv-x="596" unicode="Þ"/><glyph d="M25 455v45h82q0 75 27 133.5t80.5 92.5T348 760q43 0 79-11t64.5-31 48.5-48.5 30.5-63T581 532q0-13-1.5-26.5T576 478q-22 2-53.5 2.5t-62-5-50.5-22-20-50.5q0-27 16.5-47.5t43-36.5 56.5-31q35-18 69-38t56-48 22-70q0-50-21.5-83T572 0t-89-16q-22 0-55.5 8T368 16l3-24h-42l-6 172h31q4-62 36.5-101.5T481 23q34 0 61 20.5t27 60.5q0 39-32.5 62.5T462 210q-35 17-70 37t-58 49.5-23 74.5q0 68 47 107.5T493 516q1 72-14.5 113T439 689t-49.5 23.5T344 717q-63-1-95.5-36t-44-93.5T193 458l1-352q0-20-.5-35.5T190 38q16 1 31.5 1.5T253 41V0H49v30q31 0 43 15.5t14 43 2 63.5l-1 305z" horiz-adv-x="681" unicode="ß"/><glyph d="M34 103q0 46 28.5 79.5t74 55 99 32T339 279v62q0 35-6 66t-26 51-64 21q-29 1-59.5-11T139 427q8-8 10.5-18.5T152 389q0-12-10-27.5T107 347q-21 0-32 14.5T64 396q0 34 25.5 61t70.5 43 102 16q84 0 124-44.5T425 331v-74.5l-.5-75-.5-75.5q0-16-1-32t-3-36q18 1 35.5 2t35.5 2V0H348q-3 17-4 30t-3 27q-34-34-73.5-53.5T184-16q-76 0-113 34.5T34 103zm95 12q2-37 24.5-55.5T207 41q41 0 71.5 15.5T339 100q-1 11-1 24v27q0 5 .5 32t.5 62q-34-1-71.5-8.5t-69-22.5-51-39.5T129 115zm42.5 637.5Q169 767 174 777t9 13q3 2 12.5 6t23.5.5 29-25.5l84-135-28-23-112 106q-18 19-20.5 33.5z" horiz-adv-x="516" unicode="à"/><glyph d="M34 103q0 46 28.5 79.5t74 55 99 32T339 279v62q0 35-6 66t-26 51-64 21q-29 1-59.5-11T139 427q8-8 10.5-18.5T152 389q0-12-10-27.5T107 347q-21 0-32 14.5T64 396q0 34 25.5 61t70.5 43 102 16q84 0 124-44.5T425 331v-74.5l-.5-75-.5-75.5q0-16-1-32t-3-36q18 1 35.5 2t35.5 2V0H348q-3 17-4 30t-3 27q-34-34-73.5-53.5T184-16q-76 0-113 34.5T34 103zm95 12q2-37 24.5-55.5T207 41q41 0 71.5 15.5T339 100q-1 11-1 24v27q0 5 .5 32t.5 62q-34-1-71.5-8.5t-69-22.5-51-39.5T129 115zm41 521l84 135q15 22 29 25.5t24-.5 12-6q4-3 9-13t2.5-24.5T310 719L198 613z" horiz-adv-x="516" unicode="á"/><glyph d="M34 103q0 46 28.5 79.5t74 55 99 32T339 279v62q0 35-6 66t-26 51-64 21q-29 1-59.5-11T139 427q8-8 10.5-18.5T152 389q0-12-10-27.5T107 347q-21 0-32 14.5T64 396q0 34 25.5 61t70.5 43 102 16q84 0 124-44.5T425 331v-74.5l-.5-75-.5-75.5q0-16-1-32t-3-36q18 1 35.5 2t35.5 2V0H348q-3 17-4 30t-3 27q-34-34-73.5-53.5T184-16q-76 0-113 34.5T34 103zm62 549l159 159h2l149-163-27-32-127 109h-2L121 623zm33-537q2-37 24.5-55.5T207 41q41 0 71.5 15.5T339 100q-1 11-1 24v27q0 5 .5 32t.5 62q-34-1-71.5-8.5t-69-22.5-51-39.5T129 115z" horiz-adv-x="516" unicode="â"/><glyph d="M34 103q0 46 28.5 79.5t74 55 99 32T339 279v62q0 35-6 66t-26 51-64 21q-29 1-59.5-11T139 427q8-8 10.5-18.5T152 389q0-12-10-27.5T107 347q-21 0-32 14.5T64 396q0 34 25.5 61t70.5 43 102 16q84 0 124-44.5T425 331v-74.5l-.5-75-.5-75.5q0-16-1-32t-3-36q18 1 35.5 2t35.5 2V0H348q-3 17-4 30t-3 27q-34-34-73.5-53.5T184-16q-76 0-113 34.5T34 103zm49 571q13 35 43.5 60t58.5 26q32 1 53-12.5t39-27 40-13.5 41.5 13 31.5 35l29-15q-16-49-46-72t-56-23q-31 0-53.5 13.5t-40.5 27-37 13.5q-18 0-38.5-9.5T113 657zm46-559q2-37 24.5-55.5T207 41q41 0 71.5 15.5T339 100q-1 11-1 24v27q0 5 .5 32t.5 62q-34-1-71.5-8.5t-69-22.5-51-39.5T129 115z" horiz-adv-x="516" unicode="ã"/><glyph d="M34 103q0 46 28.5 79.5t74 55 99 32T339 279v62q0 35-6 66t-26 51-64 21q-29 1-59.5-11T139 427q8-8 10.5-18.5T152 389q0-12-10-27.5T107 347q-21 0-32 14.5T64 396q0 34 25.5 61t70.5 43 102 16q84 0 124-44.5T425 331v-74.5l-.5-75-.5-75.5q0-16-1-32t-3-36q18 1 35.5 2t35.5 2V0H348q-3 17-4 30t-3 27q-34-34-73.5-53.5T184-16q-76 0-113 34.5T34 103zm84 600q0 25 15.5 42.5T168 763q22 0 36-17.5t14-42.5-15-42-35-17-35 17-15 42zm11-588q2-37 24.5-55.5T207 41q41 0 71.5 15.5T339 100q-1 11-1 24v27q0 5 .5 32t.5 62q-34-1-71.5-8.5t-69-22.5-51-39.5T129 115zm156 588q0 25 15.5 42.5T335 763q22 0 36-17.5t14-42.5-15-42-35-17-35 17-15 42z" horiz-adv-x="516" unicode="ä"/><glyph d="M34 103q0 46 28.5 79.5t74 55 99 32T339 279v62q0 35-6 66t-26 51-64 21q-29 1-59.5-11T139 427q8-8 10.5-18.5T152 389q0-12-10-27.5T107 347q-21 0-32 14.5T64 396q0 34 25.5 61t70.5 43 102 16q84 0 124-44.5T425 331v-74.5l-.5-75-.5-75.5q0-16-1-32t-3-36q18 1 35.5 2t35.5 2V0H348q-3 17-4 30t-3 27q-34-34-73.5-53.5T184-16q-76 0-113 34.5T34 103zm95 12q2-37 24.5-55.5T207 41q41 0 71.5 15.5T339 100q-1 11-1 24v27q0 5 .5 32t.5 62q-34-1-71.5-8.5t-69-22.5-51-39.5T129 115zm24 579q-1 30 13 52.5t37 35 47 12.5 46-9.5 37-29.5 16-51-13.5-53.5-37-35T252 603t-46.5 9.5-37 30T153 694zm53 9q0-29 13-49.5t36-19.5q18 1 29.5 17t11.5 42q0 32-12 51.5T250 763q-19-1-31.5-17.5T206 703z" horiz-adv-x="516" unicode="å"/><glyph d="M34 100q0 46 28 79.5t73 55 98 31.5 103 9v61q0 36-6 68.5T303.5 458 237 479q-33 0-60.5-16T138 420q7-6 10-16.5t3-16.5q0-11-9.5-27T108 345q-19 0-30.5 13T66 393q0 30 22.5 58.5T153 498t99 18q50 0 85-23t53-63q28 38 69 62t94 24q51 0 90.5-22t63-70.5T730 295l-305-6q-6-82 12.5-138.5t54-86T573 35q47 0 80 24t58 59l25-20q-27-42-57.5-67t-63-36T549-16q-58 0-104 22.5T371 79q-39-52-88-73.5T180-16q-68 0-107 33t-39 83zm95 12q2-37 24-53t46-18q45-3 81 15t65 51q-1 14-3.5 38t-4 50.5T335 241q-34-1-70.5-8.5T197 210t-50-39-18-59zm303 219h208q0 36-6.5 69.5t-26 55T549 477t-63-20-36.5-53-17.5-73z" horiz-adv-x="777" unicode="æ"/><glyph d="M41 241q0 52 19 101t53.5 88.5T196 493t106 23q56 0 97.5-17t64.5-45 23-61q0-22-12-37.5T440 340q-25-1-35.5 15.5T394 385q0 10 3 20.5t12 19.5q-8 24-28 35.5t-41.5 15T304 479q-68 0-114.5-54.5T143 266q0-67 21.5-119T225 65.5 315 36q47 0 90 25t67 61l26-20q-26-42-62.5-68t-75-38T288-16q-67 0-123.5 30.5t-90 88T41 241zm200-449q26 5 47.5 12t38 16.5T352-158t9 27q0 20-13.5 26t-31.5 2.5-32-13.5l-34 16L279 8h56l-27-82q14 8 32.5 12.5T376-57q31 0 49-18t18-48-20.5-51-52-34.5-64.5-21-59-11.5z" horiz-adv-x="532" unicode="ç"/><glyph d="M42 249q0 70 31.5 131t88.5 98.5T294 516q42 0 78.5-13.5t64.5-41 44-69 16-97.5l-352-6q0-76 16.5-133.5t53.5-89T310 35q31 0 63.5 11T434 76t45 42l24-20q-27-42-65-67T360-5t-74-11q-69 0-124.5 32.5t-87.5 92T42 249zm106 82h255q0 36-10.5 69.5t-34.5 55-63 21.5q-58 0-96.5-34.5T148 331zm52.5 388.5Q198 734 203 744t9 13q3 2 12.5 6t23.5.5 29-25.5l84-135-28-23-112 106q-18 19-20.5 33.5z" horiz-adv-x="542" unicode="è"/><glyph d="M42 249q0 70 31.5 131t88.5 98.5T294 516q42 0 78.5-13.5t64.5-41 44-69 16-97.5l-352-6q0-76 16.5-133.5t53.5-89T310 35q31 0 63.5 11T434 76t45 42l24-20q-27-42-65-67T360-5t-74-11q-69 0-124.5 32.5t-87.5 92T42 249zm106 82h255q0 36-10.5 69.5t-34.5 55-63 21.5q-58 0-96.5-34.5T148 331zm51 272l84 135q15 22 29 25.5t24-.5 12-6q4-3 9-13t2.5-24.5T339 686L227 580z" horiz-adv-x="542" unicode="é"/><glyph d="M42 249q0 70 31.5 131t88.5 98.5T294 516q42 0 78.5-13.5t64.5-41 44-69 16-97.5l-352-6q0-76 16.5-133.5t53.5-89T310 35q31 0 63.5 11T434 76t45 42l24-20q-27-42-65-67T360-5t-74-11q-69 0-124.5 32.5t-87.5 92T42 249zm83 370l159 159h2l149-163-27-32-127 109h-2L150 590zm23-288h255q0 36-10.5 69.5t-34.5 55-63 21.5q-58 0-96.5-34.5T148 331z" horiz-adv-x="542" unicode="ê"/><glyph d="M42 249q0 70 31.5 131t88.5 98.5T294 516q42 0 78.5-13.5t64.5-41 44-69 16-97.5l-352-6q0-76 16.5-133.5t53.5-89T310 35q31 0 63.5 11T434 76t45 42l24-20q-27-42-65-67T360-5t-74-11q-69 0-124.5 32.5t-87.5 92T42 249zm105 421q0 25 15.5 42.5T197 730q22 0 36-17.5t14-42.5-15-42-35-17-35 17-15 42zm1-339h255q0 36-10.5 69.5t-34.5 55-63 21.5q-58 0-96.5-34.5T148 331zm166 339q0 25 15.5 42.5T364 730q22 0 36-17.5t14-42.5-15-42-35-17-35 17-15 42z" horiz-adv-x="542" unicode="ë"/><glyph d="M36 441v42q44 0 68 4t36.5 10 19.5 13h29V106q0-20-.5-35.5T185 38q16 1 31.5 1.5T248 41V0H44v30q31 0 43 15.5t14 43 2 63.5v228q0 16 1 30.5t3 34.5q-18-1-35.5-2T36 441zm25.5 278.5Q59 734 64 744t9 13q3 2 12.5 6t23.5.5 29-25.5l84-135-28-23L82 686q-18 19-20.5 33.5z" horiz-adv-x="281" unicode="ì"/><glyph d="M36 441v42q44 0 68 4t36.5 10 19.5 13h29V106q0-20-.5-35.5T185 38q16 1 31.5 1.5T248 41V0H44v30q31 0 43 15.5t14 43 2 63.5v228q0 16 1 30.5t3 34.5q-18-1-35.5-2T36 441zm24 162l84 135q15 22 29 25.5t24-.5 12-6q4-3 9-13t2.5-24.5T200 686L88 580z" horiz-adv-x="281" unicode="í"/><glyph d="M5 619l135 159h2l127-163-28-28-103 96h-2L36 590zm31-178v42q44 0 68 4t36.5 10 19.5 13h29V106q0-20-.5-35.5T185 38q16 1 31.5 1.5T248 41V0H44v30q31 0 43 15.5t14 43 2 63.5v228q0 16 1 30.5t3 34.5q-18-1-35.5-2T36 441z" horiz-adv-x="281" unicode="î"/><glyph d="M8 670q0 25 15.5 42.5T58 730q22 0 36-17.5t14-42.5-15-42-35-17-35 17-15 42zm28-229v42q44 0 68 4t36.5 10 19.5 13h29V106q0-20-.5-35.5T185 38q16 1 31.5 1.5T248 41V0H44v30q31 0 43 15.5t14 43 2 63.5v228q0 16 1 30.5t3 34.5q-18-1-35.5-2T36 441zm139 229q0 25 15.5 42.5T225 730q22 0 36-17.5t14-42.5-15-42-35-17-35 17-15 42z" horiz-adv-x="281" unicode="ï"/><glyph d="M43 222q0 53 14.5 101.5t42 87 67.5 61 90 24.5q38 2 80-13t66-53h2q-10 40-31 84t-53.5 85-77.5 70l-61-77-36 30 58 69q-22 11-47.5 18t-53.5 9l4 42q36-2 68-10t62-21l54 64 29-27-44-56q72-40 122-107.5T475 450t27-178q1-79-24.5-144.5T398 23 259-16q-60 0-109 28.5t-78 82T43 222zm100 21q0-106 38-162.5T275 24q37 0 68 23t50.5 68.5T413 229q0 35-6 73.5T386 375t-40 56-63 24q-45 2-76-27t-47.5-78T143 243z" horiz-adv-x="559" unicode="ð"/><glyph d="M37 441v42q44 0 66.5 4t33.5 10 18 13h29q1-7 1.5-16t1.5-20 1-25q22 19 48.5 34t56 24 58.5 9q87 0 127-54.5T518 292V106q0-20-.5-35.5T514 38q16 1 31.5 1.5T577 41V0H373v30q31 0 43 15.5t14 43 2 63.5v140q-1 86-28.5 130T317 465q-36-1-70.5-19T189 400q1-8 1-18v-21l-1-255q0-20-.5-35.5T185 38q16 1 31.5 1.5T248 41V0H44v30q31 0 43 15.5t14 43 2 63.5l1 228q0 16 .5 32t3.5 33q-18-1-35.5-2T37 441zm114 200q13 35 43.5 60t58.5 26q32 1 53-12.5t39-27 40-13.5 41.5 13 31.5 35l29-15q-16-49-46-72t-56-23q-31 0-53.5 13.5t-40.5 27-37 13.5q-18 0-38.5-9.5T181 624z" horiz-adv-x="607" unicode="ñ"/><glyph d="M41 238q0 79 33 142t90 99.5T292 516q70 0 127-33.5t91-90.5 34-130q0-77-33.5-140.5T420 21 292-16q-70 0-127 32.5t-90.5 90T41 238zm102 29q0-62 17-117.5T212 59t88-35 84 30 44.5 78T442 233q0 45-8.5 88.5t-26.5 79-46.5 56.5-68.5 21q-52 0-85-30t-48.5-78T143 267zm69.5 452.5Q210 734 215 744t9 13q3 2 12.5 6t23.5.5 29-25.5l84-135-28-23-112 106q-18 19-20.5 33.5z" horiz-adv-x="585" unicode="ò"/><glyph d="M41 238q0 79 33 142t90 99.5T292 516q70 0 127-33.5t91-90.5 34-130q0-77-33.5-140.5T420 21 292-16q-70 0-127 32.5t-90.5 90T41 238zm102 29q0-62 17-117.5T212 59t88-35 84 30 44.5 78T442 233q0 45-8.5 88.5t-26.5 79-46.5 56.5-68.5 21q-52 0-85-30t-48.5-78T143 267zm68 336l84 135q15 22 29 25.5t24-.5 12-6q4-3 9-13t2.5-24.5T351 686L239 580z" horiz-adv-x="585" unicode="ó"/><glyph d="M41 238q0 79 33 142t90 99.5T292 516q70 0 127-33.5t91-90.5 34-130q0-77-33.5-140.5T420 21 292-16q-70 0-127 32.5t-90.5 90T41 238zm96 381l159 159h2l149-163-27-32-127 109h-2L162 590zm6-352q0-62 17-117.5T212 59t88-35 84 30 44.5 78T442 233q0 45-8.5 88.5t-26.5 79-46.5 56.5-68.5 21q-52 0-85-30t-48.5-78T143 267z" horiz-adv-x="585" unicode="ô"/><glyph d="M41 238q0 79 33 142t90 99.5T292 516q70 0 127-33.5t91-90.5 34-130q0-77-33.5-140.5T420 21 292-16q-70 0-127 32.5t-90.5 90T41 238zm83 403q13 35 43.5 60t58.5 26q32 1 53-12.5t39-27 40-13.5 41.5 13 31.5 35l29-15q-16-49-46-72t-56-23q-31 0-53.5 13.5t-40.5 27-37 13.5q-18 0-38.5-9.5T154 624zm19-374q0-62 17-117.5T212 59t88-35 84 30 44.5 78T442 233q0 45-8.5 88.5t-26.5 79-46.5 56.5-68.5 21q-52 0-85-30t-48.5-78T143 267z" horiz-adv-x="585" unicode="õ"/><glyph d="M41 238q0 79 33 142t90 99.5T292 516q70 0 127-33.5t91-90.5 34-130q0-77-33.5-140.5T420 21 292-16q-70 0-127 32.5t-90.5 90T41 238zm102 29q0-62 17-117.5T212 59t88-35 84 30 44.5 78T442 233q0 45-8.5 88.5t-26.5 79-46.5 56.5-68.5 21q-52 0-85-30t-48.5-78T143 267zm16 403q0 25 15.5 42.5T209 730q22 0 36-17.5t14-42.5-15-42-35-17-35 17-15 42zm167 0q0 25 15.5 42.5T376 730q22 0 36-17.5t14-42.5-15-42-35-17-35 17-15 42z" horiz-adv-x="585" unicode="ö"/><glyph d="M42 340v50h446v-50H42zm164-146q0 27 18 46t41 19q25 0 41.5-19t16.5-46-18-45.5-41-18.5-40.5 18.5T206 194zm0 332q0 27 18 46t41 19q25 0 41.5-19t16.5-46-18-45.5-41-18.5-40.5 18.5T206 526z" horiz-adv-x="530" unicode="÷"/><glyph d="M41 238q0 79 33 142t90 99.5T292 516q70 0 127-33.5t91-90.5 34-130q0-77-33.5-140.5T420 21 292-16q-70 0-127 32.5t-90.5 90T41 238zM80-48l386 613 47-31L117-75zm63 315q0-62 17-117.5T212 59t88-35 84 30 44.5 78T442 233q0 45-8.5 88.5t-26.5 79-46.5 56.5-68.5 21q-52 0-85-30t-48.5-78T143 267z" horiz-adv-x="585" unicode="ø"/><glyph d="M26 442v41h31q43 0 62.5 8.5T150 510h29V205q0-86 24.5-128.5T287 35q38 1 72.5 23.5T415 112v257q0 24 1 41.5t4 34.5q-18-1-36-1.5t-36-1.5v41h31q43 0 62.5 8.5T472 510h29l-1-378q0-16-1-45t-3-49l36 2 36 2V0H425q-3 17-4.5 32T418 60q-31-31-75-53.5T255-16q-54 0-90.5 20t-55 68T91 202v178q0 16 .5 32t3.5 33q-17-1-34.5-1.5T26 442zm190.5 277.5Q214 734 219 744t9 13q3 2 12.5 6t23.5.5 29-25.5l84-135-28-23-112 106q-18 19-20.5 33.5z" horiz-adv-x="597" unicode="ù"/><glyph d="M26 442v41h31q43 0 62.5 8.5T150 510h29V205q0-86 24.5-128.5T287 35q38 1 72.5 23.5T415 112v257q0 24 1 41.5t4 34.5q-18-1-36-1.5t-36-1.5v41h31q43 0 62.5 8.5T472 510h29l-1-378q0-16-1-45t-3-49l36 2 36 2V0H425q-3 17-4.5 32T418 60q-31-31-75-53.5T255-16q-54 0-90.5 20t-55 68T91 202v178q0 16 .5 32t3.5 33q-17-1-34.5-1.5T26 442zm189 161l84 135q15 22 29 25.5t24-.5 12-6q4-3 9-13t2.5-24.5T355 686L243 580z" horiz-adv-x="597" unicode="ú"/><glyph d="M26 442v41h31q43 0 62.5 8.5T150 510h29V205q0-86 24.5-128.5T287 35q38 1 72.5 23.5T415 112v257q0 24 1 41.5t4 34.5q-18-1-36-1.5t-36-1.5v41h31q43 0 62.5 8.5T472 510h29l-1-378q0-16-1-45t-3-49l36 2 36 2V0H425q-3 17-4.5 32T418 60q-31-31-75-53.5T255-16q-54 0-90.5 20t-55 68T91 202v178q0 16 .5 32t3.5 33q-17-1-34.5-1.5T26 442zm115 177l159 159h2l149-163-27-32-127 109h-2L166 590z" horiz-adv-x="597" unicode="û"/><glyph d="M26 442v41h31q43 0 62.5 8.5T150 510h29V205q0-86 24.5-128.5T287 35q38 1 72.5 23.5T415 112v257q0 24 1 41.5t4 34.5q-18-1-36-1.5t-36-1.5v41h31q43 0 62.5 8.5T472 510h29l-1-378q0-16-1-45t-3-49l36 2 36 2V0H425q-3 17-4.5 32T418 60q-31-31-75-53.5T255-16q-54 0-90.5 20t-55 68T91 202v178q0 16 .5 32t3.5 33q-17-1-34.5-1.5T26 442zm137 228q0 25 15.5 42.5T213 730q22 0 36-17.5t14-42.5-15-42-35-17-35 17-15 42zm167 0q0 25 15.5 42.5T380 730q22 0 36-17.5t14-42.5-15-42-35-17-35 17-15 42z" horiz-adv-x="597" unicode="ü"/><glyph d="M4 459v41h207v-30h-4q-42-3-46-31.5t23-86.5l117-251q23 64 44 126.5T387 352q8 22 16.5 45.5t17 42T436 463l-69-4v41h157v-30q-37-14-55.5-46.5T431 340L306-9q-30-84-55-142.5t-55-89-75-30.5q-31 0-53 15t-22 46q0 18 12 33t31 15q24 1 32.5-15t8.5-28v-6.5l-1-7.5q3-2 11-2 12 0 26 10t25 29q13 22 30.5 66T261-11L105 323q-26 56-37.5 89T52 461zm202 144l84 135q15 22 29 25.5t24-.5 12-6q4-3 9-13t2.5-24.5T346 686L234 580z" horiz-adv-x="528" unicode="ý"/><glyph d="M9 686v42q44 0 68 4t36 10 19 13h29l-1-293q31 25 70 39.5t81 14.5q61 0 111.5-30.5t81-87T534 264q0-85-35-148t-92.5-97.5T279-16q-35 0-64.5 7.5T160 15v-164q0-20-.5-35.5T156-217q16 1 31.5 1.5T219-214v-41H15v30q31 0 43 15.5t14 43 2 63.5l2 728q0 16 .5 32t3.5 33q-18-1-35.5-2T9 686zM160 62q25-19 54.5-28.5T277 24q48 0 82.5 29t53 79.5T431 249q0 54-16 104t-49.5 82-88.5 32q-34 0-64.5-14T160 416V62z" horiz-adv-x="577" unicode="þ"/><glyph d="M4 459v41h207v-30h-4q-42-3-46-31.5t23-86.5l117-251q23 64 44 126.5T387 352q8 22 16.5 45.5t17 42T436 463l-69-4v41h157v-30q-37-14-55.5-46.5T431 340L306-9q-30-84-55-142.5t-55-89-75-30.5q-31 0-53 15t-22 46q0 18 12 33t31 15q24 1 32.5-15t8.5-28v-6.5l-1-7.5q3-2 11-2 12 0 26 10t25 29q13 22 30.5 66T261-11L105 323q-26 56-37.5 89T52 461zm150 211q0 25 15.5 42.5T204 730q22 0 36-17.5t14-42.5-15-42-35-17-35 17-15 42zm167 0q0 25 15.5 42.5T371 730q22 0 36-17.5t14-42.5-15-42-35-17-35 17-15 42z" horiz-adv-x="528" unicode="ÿ"/><glyph d="M36 441v42q44 0 68 4t36.5 10 19.5 13h29V106q0-20-.5-35.5T185 38q16 1 31.5 1.5T248 41V0H44v30q31 0 43 15.5t14 43 2 63.5v228q0 16 1 30.5t3 34.5q-18-1-35.5-2T36 441z" horiz-adv-x="281" unicode="ı"/><glyph d="M46 329q0 71 21 138.5t64 123T240 680t157 36q29 0 63-4.5t64-11.5h412l5-175h-33q0 59-18 89.5t-48.5 41T773 665l-86-2q-37-1-53-14t-19.5-38.5T611 544V383h190q-2 22-4 43t-4 43h45V259h-33q0 44-12 63t-38 23-69 2l-75-4V121q0-27-.5-46T608 43l192-6q44-1 76 13.5t49.5 50T943 195h34L971 0H524q-40-8-75-12t-64-4q-105 0-181 45T87 152 46 329zm98 15q1-94 35.5-164.5t95-109T414 32q52 0 110 16v603q-28 13-61.5 18t-62.5 5q-53 0-100-22.5T218 586t-55-104-19-138z" horiz-adv-x="1022" unicode="Œ"/><glyph d="M41 238q0 79 29.5 142t82.5 99.5T277 516q60 0 105.5-27.5T459 410h1q29 45 76 75.5T643 516q42 0 76.5-13.5t60-41.5 39.5-69.5 14-97.5l-326-6q0-76 15-133t49.5-88.5T662 35q47 0 89.5 24t67.5 59l25-20q-27-42-62.5-67T709-5t-71-11q-58 0-107.5 26T453 86h-1q-29-46-73.5-74T277-16q-70 0-123 32.5t-83 90T41 238zm102 29q0-62 14-117.5T202 59t82-35q41 0 67 20t39.5 52.5T409 169t5 79q-2 47-10.5 88.5T379 410t-41 50-60 18q-50 0-79.5-30T156 370t-13-103zm367 63h229q-1 38-10.5 71.5t-31 54.5-59.5 21q-54 2-85.5-36.5T510 330z" horiz-adv-x="883" unicode="œ"/><glyph d="M-6 656v44h258v-33q-46 0-64-14t-13.5-38.5T199 558l80-126q9-14 19-29t20.5-30.5T341 340h2q11 22 22 42.5t21 39.5l85 161q5 10 12.5 23.5t16.5 28 19 24.5q-19-1-39-1.5t-40-1.5v44h204v-33q-49-3-80.5-34T497 538q-34-64-65.5-123T371 300q0-18-.5-48t-.5-60.5V119q0-27-.5-46.5T367 40q21 1 41.5 2t41.5 2V0H215v33q38 2 51.5 18t15 43.5T283 156l1 114-174 275q-25 40-37.5 67T56 658q-16-1-31-1t-31-1zm193 183q0 27 16.5 45.5T242 903q23 0 38.5-18.5T296 839q0-26-16.5-44.5T241 776t-38 18.5-16 44.5zm180 0q0 27 16.5 45.5T422 903q23 0 38-18.5t15-45.5q0-26-16-44.5T421 776t-38 18.5-16 44.5z" horiz-adv-x="634" unicode="Ÿ"/><glyph d="M-88-215q0 18 11.5 32.5T-45-168q25 1 34.5-14.5T-1-210v-4.5l-1-4.5q14-6 26-6 29 0 44 21t20 53 5 65l2 466q0 16 .5 30.5T98 445q-18-1-35.5-2T27 441v42q44 0 68.5 4t37 10 19.5 13h29V-3q0-93-25-152.5T88-243t-97-28q-41 0-60 17t-19 39z" horiz-adv-x="212" unicode="ȷ"/><glyph d="M45 619l159 159h2l149-163-27-32-127 109h-2L70 590z" horiz-adv-x="400" unicode="ˆ"/><glyph d="M35 641q13 35 43.5 60t58.5 26q32 1 53-12.5t39-27 40-13.5 41.5 13 31.5 35l29-15q-16-49-46-72t-56-23q-31 0-53.5 13.5t-40.5 27-37 13.5q-18 0-38.5-9.5T65 624z" horiz-adv-x="406" unicode="˜"/><glyph horiz-adv-x="468"/><glyph horiz-adv-x="936"/><glyph horiz-adv-x="468"/><glyph horiz-adv-x="936"/><glyph horiz-adv-x="312"/><glyph horiz-adv-x="234"/><glyph horiz-adv-x="156"/><glyph horiz-adv-x="156"/><glyph horiz-adv-x="117"/><glyph horiz-adv-x="187"/><glyph horiz-adv-x="52"/><glyph d="M67 285v70h355v-66z" horiz-adv-x="489" unicode="‐"/><glyph d="M67 285v70h355v-66z" horiz-adv-x="489" unicode="‑"/><glyph d="M67 285v70h355v-66z" horiz-adv-x="489" unicode="‒"/><glyph d="M66 285v70h455v-66z" horiz-adv-x="590" unicode="–"/><glyph d="M66 285v70h705v-66z" horiz-adv-x="841" unicode="—"/><glyph d="M46 571q0 25 9.5 61t26 70.5T120 760l27-20q-11-14-23-40t-19.5-57.5T101 581q7 3 13 4.5t12 1.5q19 0 32.5-14t13.5-35q0-28-16.5-43T117 480q-35 0-53 26.5T46 571z" horiz-adv-x="224" unicode="‘"/><glyph d="M25 702q0 28 16.5 43T80 760q35 0 53-26.5t18-64.5q0-25-9.5-61t-26-70.5T77 480l-27 20q11 14 23 40t19.5 57.5T96 659q-7-3-13-4.5T71 653q-19 0-32.5 14T25 702z" horiz-adv-x="174" unicode="’"/><glyph d="M66 43q0 28 16.5 43t38.5 15q35 0 53-26.5T192 10q0-25-9.5-61t-26-70.5T118-179l-27 20q11 14 23 40t19.5 57.5T137 0q-7-3-13-4.5T112-6Q93-6 79.5 8T66 43z" horiz-adv-x="253" unicode="‚"/><glyph d="M46 571q0 25 9.5 61t26 70.5T120 760l27-20q-11-14-23-40t-19.5-57.5T101 581q7 3 13 4.5t12 1.5q19 0 32.5-14t13.5-35q0-28-16.5-43T117 480q-35 0-53 26.5T46 571zm176 0q0 25 9.5 61t26 70.5T296 760l27-20q-11-14-23-40t-19.5-57.5T277 581q7 3 13 4.5t12 1.5q19 0 32.5-14t13.5-35q0-28-16.5-43T293 480q-35 0-53 26.5T222 571z" horiz-adv-x="400" unicode="“"/><glyph d="M25 702q0 28 16.5 43T80 760q35 0 53-26.5t18-64.5q0-25-9.5-61t-26-70.5T77 480l-27 20q11 14 23 40t19.5 57.5T96 659q-7-3-13-4.5T71 653q-19 0-32.5 14T25 702zm176 0q0 28 16.5 43t38.5 15q35 0 53-26.5t18-64.5q0-25-9.5-61t-26-70.5T253 480l-27 20q11 14 23 40t19.5 57.5T272 659q-7-3-13-4.5t-12-1.5q-19 0-32.5 14T201 702z" horiz-adv-x="349" unicode="”"/><glyph d="M66 43q0 28 16.5 43t38.5 15q35 0 53-26.5T192 10q0-25-9.5-61t-26-70.5T118-179l-27 20q11 14 23 40t19.5 57.5T137 0q-7-3-13-4.5T112-6Q93-6 79.5 8T66 43zm176 0q0 28 16.5 43t38.5 15q35 0 53-26.5T368 10q0-25-9.5-61t-26-70.5T294-179l-27 20q11 14 23 40t19.5 57.5T313 0q-7-3-13-4.5T288-6q-19 0-32.5 14T242 43z" horiz-adv-x="429" unicode="„"/><glyph d="M50 374q0 42 20 75.5t54.5 53T200 522q42 0 76-19.5t54.5-53T351 374q0-41-20.5-75T276 245.5 200 226q-41 0-75.5 19.5T70 299t-20 75z" horiz-adv-x="401" unicode="•"/><glyph d="M64 48q0 27 18 46t41 19q25 0 41.5-19T181 48 163 2.5 122-16 81.5 2.5 64 48zm270 0q0 27 18 46t41 19q25 0 41.5-19T451 48 433 2.5 392-16 351.5 2.5 334 48zm270 0q0 27 18 46t41 19q25 0 41.5-19T721 48 703 2.5 662-16 621.5 2.5 604 48z" horiz-adv-x="786" unicode="…"/><glyph horiz-adv-x="187"/><glyph d="M31 274L305-7l31 32-197 253v2l195 237-32 32L31 278v-4z" horiz-adv-x="383" unicode="‹"/><glyph d="M46 25l197 253v2L48 517l32 32 271-271v-4L77-7z" horiz-adv-x="383" unicode="›"/><glyph horiz-adv-x="234"/><glyph d="M41 410v30l199 276h26l1-269 56-1v-36h-56v-73q11 1 21 1t20 1v-34H161v29q31 1 40 19.5t9 46.5v10H41zm47 40l122-2v171z" horiz-adv-x="403" unicode="⁴"/><glyph d="M35 248l14 60h78q-1 21-1 43t2 43H35l14 60h91q19 71 60 130.5T304.5 680 452 716q54 0 98.5-14t87.5-43l1 49h54l-20-202h-36q-7 48-27 86t-56.5 60-94.5 22q-54 0-101.5-25.5T276 574t-49-120l336-2-27-56-317-1q-1-21-1-44t1-44l276-1-28-56-238-1q24-97 89-153.5T471 39q65 0 123 27.5t98 83.5l26-21q-43-59-90.5-90.5T533-4.5 445-16q-84 0-148.5 34T191 112t-57 137z" horiz-adv-x="760" unicode="€"/><glyph d="M57 0v33q31 0 44.5 13.5t17.5 32 4 33.5l1 481v67q-16-1-33-2l-34-2v44h119l375-502q13-17 25.5-34t25.5-34h1l1 458q0 20 1 38.5t2 33.5l-36-2-36-2v44h184v-33q-37-1-51-17t-15-43-1-63l-2-560h-48L203 520q-9 12-17.5 23.5T168 567h-1l3-428V89l-2-49 36 2 36 2V0H57zm689 235v70h355v-66zm9 306q0 50 21.5 89.5T835 693t84 23q46 0 82-21t57-57.5 21-84.5q1-50-20-89.5t-58-61.5-85-22q-45 0-81.5 20.5t-58 57T755 541zm73 18q0-39 10.5-72t31.5-52.5 54-18.5q41 1 63 36.5t22 85.5q0 37-9.5 70.5t-30 54.5-54.5 20q-42-2-64.5-37.5T828 559z" horiz-adv-x="1158" unicode="№"/><glyph d="M63 568l3 132h363l4-132h-30q-1 49-16 72.5T328 663h-44V356l-1-19 46 2v-36H166v28q29 0 37.5 17.5T212 393v269h-64q-30-1-42.5-25T93 568H63zm387-263v28q30 1 39.5 20t10.5 50q4 91 6.5 142.5t3.5 76 1.5 31.5.5 10l-43-3v40h129l89-214q10-24 21-51.5t24-56.5q6 12 12 25t11 26 9 23l101 248h117v-33q-29-1-36-20t-6-51l15-210q1-11 1.5-25t-.5-24l49 2v-35H840v28q27 3 38 18.5t8 54.5l-9 134q-1 12-1.5 24t-1.5 23.5-2 23.5L745 299h-47L586 554q-5 12-10 24.5t-9.5 26T557 631q-1-8-1-17.5t-1-17.5l-8-218q-1-13-2-23.5t-3-18.5l49 3v-34H450z" horiz-adv-x="1068" unicode="™"/><glyph d="M70 347q0 63 14.5 128T130 594.5t80 88T329 716q73 0 121.5-33t77-86.5T568 479t12-127q0-62-14-127t-44-119.5-78.5-88T325-16q-76 0-126 32.5t-78 86T81.5 220 70 347zm103 21q0-42 4-89t14.5-92.5T220 104t45-59 66-22q43 0 71 27t44.5 72 23.5 99.5 7 109.5q0 61-7 122t-24 112-46 82-73 31q-43 0-72.5-27T207 579t-26-100-8-111z"/><glyph d="M137 542l228 174h34l1-607q0-19-.5-37T397 40l134 4V0H166v33q59 2 90.5 16t44 39 12.5 59l-3 472-153-106z"/><glyph d="M106 0q0 53 16.5 94t44.5 75.5 63.5 67T303 305q71 62 103.5 115T439 522q0 38-12.5 73.5t-42 58.5-81.5 23q-41 0-73-20.5T187 606q10-10 14-21.5t4-22.5q0-9-4.5-20T185 523t-29-8q-22 1-34 17t-12 38q0 21 13 46.5t39.5 48 65.5 37 91 14.5q42 0 81-9.5t70.5-30.5 50-55.5T539 535q0-25-11-54t-35.5-62.5-64-71T333 266q-68-56-111.5-105.5T171 76l187-5q49-1 86.5 0t59 15.5T525 140h30L549 0H106z"/><glyph d="M94 120q0 23 12 38.5t34 16.5q18 1 28.5-6.5T183 150t4-20q0-10-3-20t-8-20q10-34 45.5-49T298 26q71 0 113.5 39T454 178q0 44-14 83.5T388 326t-111 23q-8 0-17-.5t-20-1.5v45h41q53 0 83 24t43 57 13 61q0 41-10.5 73.5t-36.5 51-72 18.5q-45 0-77-23.5T184 605q9-10 12.5-20t3.5-21q0-8-4.5-18.5T181 528t-27-7q-21 0-32 15t-11 36q0 28 22 61.5t67.5 58T315 716q54 0 100-17t74-55.5T517 542q0-31-15.5-62.5t-51-58.5-97.5-46q95-10 149.5-61T557 185q0-68-35.5-112.5T428.5 6 305-16q-72 0-119 21.5T116.5 59 94 120z"/><glyph d="M57 193v49l394 474h32V253l110-1v-59H483v-84q0-22-.5-39.5T479 38q22 1 42 1.5t42 1.5V0H295v36h7q36 0 55 13.5t26 41 7 68.5v34H57zm68 65l265-3-1 319h-2z"/><glyph d="M101 120q0 23 12 38.5t34 16.5q18 1 28.5-6.5T190 150t4-20q0-10-3-20t-8-19q4-24 25-39.5T256.5 29t50.5-6q49 2 79 26.5t44.5 62.5 14.5 80q0 28-4.5 62t-20 64.5T374 369t-84 20q-17 0-41.5-4t-49-12-41.5-19l-28 26-2 320h259q57 0 78.5 15.5T487 765h27l-6-132-334-7V406q24 10 62.5 19t82.5 9q62 0 105.5-19.5t71-52 40.5-72 13-80.5q0-74-34.5-124.5T424 9.5 303-16q-64 0-109 21.5T125 59t-24 61z"/><glyph d="M89 329q0 36 6.5 85.5t23.5 102 47.5 98T245 688t116 28q60 0 99-21.5t58.5-51T538 589q0-21-10.5-35.5T495 537q-25-1-35 14t-10 28q0 10 3 21t9 21q-5 18-31.5 38T363 679q-46 0-77.5-24t-51-63-30.5-83.5-15.5-85.5-5.5-70q17 22 41 41t56 31 71 12q60 0 100.5-20.5t65-53.5 35-72.5T562 213q0-62-30.5-114.5T448 15 328-16q-89 0-141.5 42t-75 119.5T89 329zm95-47q3-48 11.5-94t25-83T264 45.5 330 23q47 0 76 23.5t42 62 13 82.5q0 28-5 62.5t-18.5 66-39.5 52-68 20.5q-31 0-61-15.5T216.5 336 184 282z"/><glyph d="M116 552v148h419v-68q-36-75-62.5-143T425 352.5 385 209 344 45q-6-24-18.5-43T289-16q-19 2-27 14t-8 30q0 22 11.5 57t27.5 74.5 29 72.5q19 47 45 114t57.5 141.5T489 631l-264-1q-40-1-62.5-19T140 552h-24z"/><glyph d="M99 150q0 45 22 82.5t56.5 68T251 355q-76 46-107 91.5T113 535q0 47 18.5 81.5T181 673t68.5 32.5T325 716q51 0 95.5-18.5t72-54.5 27.5-88q0-39-18.5-72t-49-58.5T385 380q45-26 83-59.5t61-72.5 23-82q0-63-33-103.5T432 3 316-16q-35 0-73 8.5T172.5 20t-53 51T99 150zm84 18q-4-64 33.5-103.5T318 24q65-1 100.5 32t35.5 91q0 52-36.5 101.5T289 337q-55-40-79.5-86T183 168zm23 389q0-55 41.5-95.5T350 400q44 30 67.5 68t24.5 75q2 65-30 99t-85 35q-39 1-66-16.5t-41-45-14-58.5z"/><glyph d="M90 485q0 65 29 117.5t82 83T326 716q71 0 116.5-27t71.5-75.5T550.5 500 561 359q0-44-5.5-94.5t-21-100-44.5-90T414 9 299-16q-65 0-105.5 19.5T135 52t-18 55q0 22 11 37t33 16q24 1 34.5-14.5T206 117q0-10-3.5-20.5T192 76q7-22 30.5-38T294 22q46 0 77 22t50 58.5 29 80 13.5 86.5 3.5 77q-25-34-67-59t-101-25q-60 0-100.5 20.5t-64 53.5-34 72T90 485zm99 22q0-28 5-62.5t18.5-66T252 327t68-20q32 0 61.5 15.5T434 363t32 54q-3 47-11 93t-24.5 84-43.5 61-68 23q-43 0-72-24.5T203.5 590 189 507z"/><glyph d="M67 158q0 27 18 46t41 19q25 0 41.5-19t16.5-46-18-45.5T125 94t-40.5 18.5T67 158zm0 403q0 27 18 46t41 19q25 0 41.5-19t16.5-46-18-45.5-41-18.5-40.5 18.5T67 561z" horiz-adv-x="250"/><glyph d="M67 328q0 27 18 46t41 19q25 0 41.5-19t16.5-46-18-45.5-41-18.5-40.5 18.5T67 328z" horiz-adv-x="250"/><glyph d="M104 48q0 27 18 46t41 19q25 0 41.5-19T221 48 203 2.5 162-16 121.5 2.5 104 48z" horiz-adv-x="325"/><glyph d="M100 43q0 28 16.5 43t38.5 15q35 0 53-26.5T226 10q0-25-9.5-61t-26-70.5T152-179l-27 20q11 14 23 40t19.5 57.5T171 0q-7-3-13-4.5T146-6q-19 0-32.5 14T100 43z" horiz-adv-x="325"/><glyph d="M104 48q0 27 18 46t41 19q25 0 41.5-19T221 48 203 2.5 162-16 121.5 2.5 104 48zm0 403q0 27 18 46t41 19q25 0 41.5-19t16.5-46-18-45.5-41-18.5-40.5 18.5T104 451z" horiz-adv-x="325"/><glyph d="M100 43q0 28 16.5 43t38.5 15q35 0 53-26.5T226 10q0-25-9.5-61t-26-70.5T152-179l-27 20q11 14 23 40t19.5 57.5T171 0q-7-3-13-4.5T146-6q-19 0-32.5 14T100 43zm0 408q0 27 18 46t41 19q25 0 41.5-19t16.5-46-18-45.5-41-18.5-40.5 18.5T100 451z" horiz-adv-x="325"/><glyph d="M4 178l15 60h125l48 231H63l15 60h127l40 187h64l-39-187h185l39 187h64l-38-187h127v-1l-14-59H506l-46-231h128l-15-60H449L409-16h-69l40 194H199L160-16H91l39 194H4zm207 60h182l48 231H257z"/><glyph horiz-adv-x="325"/><glyph d="M97 241q0 62 26.5 121t75 101T311 516v106h65l-1-106q77-4 122.5-40t45.5-82q0-22-12-37.5T497 341q-26-1-36.5 15.5T450 386q0 10 3.5 20.5T465 426q-8 24-28 35.5t-41.5 15T360 480q-68 0-114.5-55T199 266q0-67 21.5-119T281 65t90-30q47 0 90 25.5t67 61.5l26-20q-35-55-86.5-84T369-16l-1-118h-58v118q-60 8-108.5 40.5T125 112 97 241z"/><glyph d="M118 72l59 67q-36 50-36 115 0 32 10 63t29 57l-62 70 41 33 54-68q22 18 50 28.5t62 10.5q35 0 63-10.5t50-28.5l54 68 40-33-62-70q20-26 29.5-57t9.5-63q0-65-36-115l59-67-40-32-51 65q-22-18-51.5-28T325 67t-64 10-51 27l-51-64zm109 199q0-24 4.5-52.5t15-54 29.5-42 49-16.5 49 16.5 29.5 42 15 54T423 271q0 19-5 43t-16 46.5-30 37.5-47 15-47-15-30-37.5-16-46.5-5-43z"/><glyph d="M104 542q0 24 10 53t32 56.5 58.5 45.5 88.5 19v117h54l-1-117q29-3 56.5-12.5T457 674l-4 42h50V498h-37q-3 48-18 89t-48.5 66-92.5 25q-42 0-69-17t-40-44-13-57q0-38 21-66t55-50 73-43q38-20 75-41t68.5-47 50-61 18.5-82q0-46-21.5-87T460 15.5 351-16v-137h-52l-1 137q-34 2-72 14t-66 29l5-40h-54v211h35q5-92 54.5-133.5T329 23q59 0 96 35t37 90q0 45-24.5 75.5T374 278t-83 46q-46 24-89 52t-70.5 67.5T104 542z"/><glyph d="M8 248l13 60h71q-1 23-1 42t2 44H8l13 60h83q17 71 55.5 130.5t97 95.5T393 716q47 0 88-14t81-43l1 49h53l-19-202h-37q-5 48-23.5 86T485 652t-85 22q-49 0-92-25.5T234 574t-44-120l309-2-27-56-289-1q-2-24-1.5-50.5T183 307l254-1-28-56-217-1q22-97 81-153.5T411 39q59 0 113 27.5t91 83.5l26-21q-40-59-84.5-90.5T468-4.5 387-16q-77 0-136.5 34T153 112t-53 137z"/><glyph d="M92 21q0 27 24.5 51.5T179 108q11 17 18.5 40t7.5 51q0 32-5 59t-13 54h-79v48h66q-7 29-12.5 62t-5.5 75q0 67 24 116t65.5 76 95.5 27q59 0 93-19.5t48.5-46.5 14.5-50q0-18-10-30.5T457 556q-15 0-23.5 6.5t-12.5 16-4 16.5q0 6 2.5 15.5T430 629q-6 20-26 34.5T349 678q-37 0-62.5-20T248 606t-13-69q0-51 8.5-93.5T259 360h152v-48H268q6-44 5.5-74.5t-11.5-58-40-62.5q12 2 25.5 3t26.5 1q43 0 80-15t67.5-30T474 61t36.5 15.5T527 124h32q-2-60-27.5-100T457-16q-31 0-60.5 14.5t-58 33.5T280 65.5 216 80h-8l-8-1q-5-38-25.5-66.5T129-16q-17 0-27 11.5T92 21z"/><glyph d="M0 656v44h258v-33q-46 0-64-14t-13.5-38.5T205 558l83-132q11-16 18.5-27.5t17-24T349 340q5 9 9.5 18t9 17.5l9 17 9 17L394 426l83 157q5 10 12.5 23.5t17 28T525 659q-19-1-39-1.5t-40-1.5v44h204v-33q-49-3-80.5-34T503 538L385 315h121v-43l-130-1-1-63 131-1v-43l-131-1q1-38 1-60t-.5-36-2.5-27q21 1 41.5 2t41.5 2V0H221v33q31 1 45.5 12T285 83.5t4 79.5l-128-1v47l128-1v63l-128-1v47l99-1-144 229q-25 40-37.5 67T62 658q-16-1-31-1t-31-1z"/><glyph d="M102 340v50h446v-50H102zm198-203v446h50V137h-50z"/><glyph d="M148 219l316 316 34-34-316-316zm3 285l36 35 315-315-35-36z"/><glyph d="M110 340v50h446v-50H110zm164-146q0 27 18 46t41 19q25 0 41.5-19t16.5-46-18-45.5-41-18.5-40.5 18.5T274 194zm0 332q0 27 18 46t41 19q25 0 41.5-19t16.5-46-18-45.5-41-18.5-40.5 18.5T274 526z"/><glyph d="M102 265v50h446v-50H102zm0 150v50h446v-50H102z"/><glyph d="M103 85v62l377 166-377 167v64l445-194v-67z"/><glyph d="M103 279v67l445 198v-62L171 316l377-167V85z"/><glyph d="M102 0v50h446V0H102zm0 340v50h446v-50H102zm198-203v446h50V137h-50z"/><glyph d="M102 282v62l446-2V157h-52l-3 127z"/><glyph d="M-75 522q0 47 21 91t61.5 73 98.5 30q62 2 103-25t61-70 20-89q0-51-25-96t-66.5-73-92.5-28q-59 0-99.5 27t-61 69.5T-75 522zm86 17q0-24 4.5-52.5t15-53.5T60 391.5t49-16.5q37 0 57.5 22.5t29 55T204 516q0 25-4.5 53.5t-15.5 54-30 41.5-47 16-46.5-15T31 628.5 15.5 582 11 539zm1-521l564 698 45-40L54-17zm346 151q0 52 25 96.5t67 72 93 27.5q60 0 100-26.5t60.5-69.5 20.5-91q0-46-21-90.5T642 14t-99-30q-62-1-103 26t-61.5 70-20.5 89zm87 16q0-25 5-53.5t16.5-54T497 36t47-16 46.5 14.5 29 37 14.5 47 4 43.5q0 24-4.5 52.5t-15 53.5-29.5 41.5-49 16.5q-36 0-57-22.5t-29.5-55T445 185z"/><glyph d="M96 304q0 42 23.5 86.5T184 470q-19 22-29.5 49.5T142 582q-1 26 8.5 56.5T182 697t58.5 45.5T330 760q54 0 94-18.5t62.5-47T509 636q0-19-10.5-32.5T468 589q-16 0-25 7t-13 17-4 17q0 6 2.5 17t9.5 17q-10 25-38 41.5T334 722q-46 0-73-18t-38.5-43.5T211 613q0-31 17.5-56t47-46 65-41 70.5-42q38-23 70.5-51.5T534 311t20-86q0-43-23.5-87.5T466 58q19-22 30-49t11-62q0-24-9.5-54t-31-57.5-58-45.5-89.5-18q-58 0-98 19.5t-60 49-20 59.5q0 19 11.5 35T183-49q16 1 25.5-6T222-72.5t4-21.5q0-5-3-14.5t-8-16.5q2-25 31.5-44.5T315-189q46 0 73 17t38.5 41.5T438-84q0 31-17 55t-45 44.5T314 56t-69 41q-38 24-72.5 52.5t-55.5 66T96 304zm77 37q0-43 18.5-74.5t49-55T307 168t72-40.5T444 81q17 22 25.5 50.5T478 188q0 43-18.5 74T411 316.5 344.5 360 272 401t-65 46q-17-22-25.5-50.5T173 341z"/></font>
</defs>
</svg>
